<svg width="6" height="82" viewBox="0 0 6 82" fill="none" xmlns="http://www.w3.org/2000/svg">
<g id="1Line" clip-path="url(#clip0_179_8253)">
<g id="Line1">
<path id="Vector" d="M5.00314 1.27183C5.40119 1.96913 5.32414 2.75674 5.35132 3.49771C5.94192 15.6764 5.57754 27.8811 5.42524 40.084C5.25829 52.8689 4.99884 65.6498 4.20786 78.4149C4.18221 78.8211 4.17608 79.2309 4.13779 79.6373C4.03263 80.803 3.6285 81.7405 2.2382 81.6372C0.847893 81.5339 0.495792 80.5827 0.538381 79.4007C1.3793 59.3144 -0.0610933 39.2431 0.23989 19.1598C0.307922 13.7833 0.831518 8.4224 1.80505 3.13459C1.88901 2.50095 2.08712 1.88779 2.38977 1.32486C3.06934 0.286022 4.38681 0.290452 5.00314 1.27183Z" fill="black"/>
</g>
</g>
<defs>
<clipPath id="clip0_179_8253">
<rect width="6" height="82" fill="white"/>
</clipPath>
</defs>
</svg>
