<svg width="17" height="83" viewBox="0 0 17 83" fill="none" xmlns="http://www.w3.org/2000/svg">
<g id="2lines" clip-path="url(#clip0_179_8246)">
<path id="Line2" d="M16.1765 2.11216C16.5745 2.80946 16.4975 3.59707 16.5247 4.33804C17.1153 16.5168 16.7509 28.7215 16.5986 40.9243C16.4316 53.7093 16.1722 66.4901 15.3812 79.2552C15.3556 79.6614 15.3494 80.0712 15.3111 80.4777C15.206 81.6433 14.8018 82.5809 13.4115 82.4775C12.0212 82.3742 11.6691 81.4231 11.7117 80.241C12.5526 60.1548 11.1122 40.0834 11.4132 20.0001C11.4813 14.6237 12.0049 9.26273 12.9784 3.97493C13.0624 3.34128 13.2605 2.72813 13.5631 2.1652C14.2427 1.12635 15.5602 1.13078 16.1765 2.11216Z" fill="black"/>
<path id="Line1" d="M3.29666 73.4093C3.0748 73.5787 2.81484 73.6913 2.53946 73.7372C2.26408 73.7831 1.98164 73.761 1.71675 73.6727C1.45186 73.5844 1.21258 73.4327 1.01976 73.2307C0.826932 73.0287 0.686427 72.7827 0.610488 72.5139C0.465922 71.9486 0.405091 71.3652 0.429941 70.7823C0.350067 53.3875 0.079411 35.9885 0.574757 18.6048C0.682838 13.7552 1.31354 8.93148 2.45593 4.21736C2.69765 3.13189 3.10557 2.0903 3.66525 1.12944C3.99493 0.589279 4.447 0.250278 5.10993 0.375503C5.40356 0.422671 5.67124 0.571693 5.86606 0.796438C6.06088 1.02118 6.1704 1.30731 6.17543 1.60467C6.27301 2.59108 6.30902 3.58259 6.28325 4.57345C5.49068 24.0585 5.46987 43.5548 4.56639 63.0399C4.4413 65.7219 4.36878 68.406 4.27098 71.0904C4.24325 71.9676 4.11989 72.83 3.29666 73.4093Z" fill="black"/>
</g>
<defs>
<clipPath id="clip0_179_8246">
<rect width="17" height="83" fill="white"/>
</clipPath>
</defs>
</svg>
