<svg width="119" height="181" viewBox="0 0 119 181" fill="none" xmlns="http://www.w3.org/2000/svg">
<g id="3Lines" clip-path="url(#clip0_179_8170)">
<path id="Line 3" d="M110.083 20.78C112.019 19.5203 113.951 18.255 115.91 17.0175C116.814 16.4459 117.824 15.9464 118.59 17.1452C119.356 18.344 118.624 19.0877 117.775 19.7814L110 26.1023C109.75 26.1777 109.511 26.286 109.289 26.4241C86.9132 45.004 67.079 65.8926 51.6738 90.6996C39.5447 110.16 30.2506 131.25 24.0715 153.333C20.7309 162.402 18.9997 171.947 15.9588 181.138C15.8863 171.642 18.289 162.546 20.0257 153.35C25.769 132.389 33.7433 112.349 44.7922 93.5852C61.4682 65.2875 82.5009 40.8914 109.239 21.5902C109.539 21.3404 109.821 21.0696 110.083 20.78Z" fill="black"/>
<path id="Line 2" d="M108.567 1.88293C109.693 1.55553 110.908 1.12825 111.541 2.58232C112.052 3.73669 111.231 4.49141 110.415 5.16291L107.762 7.38275C98.6828 12.8212 90.5137 19.5139 82.5612 26.3898C50.5011 54.1098 26.1555 87.5574 8.98035 126.278C7.7484 129.041 7.07142 132.138 4.96815 134.574C3.42525 133.154 4.52962 131.916 4.90141 130.856C14.1605 105.189 27.5335 81.1985 44.4965 59.8258C62.4894 37.0896 84.142 17.5076 108.567 1.88293V1.88293Z" fill="black"/>
<path id="Line 1" d="M1.12063 95.3313C0.476797 93.7552 1.28702 92.7229 1.74207 91.7129C8.92838 75.5505 18.5439 60.5822 30.2552 47.3268C42.0091 34.0188 55.6889 23.336 70.9727 14.5235C72.3213 13.7522 73.9806 12.4036 75.0685 14.1019C76.2673 15.9778 74.1806 16.6215 72.8487 17.4317C56.0831 27.5372 41.5709 40.3844 28.6183 54.9022C18.5569 66.1734 10.4159 78.8766 3.57907 92.3956C3.02413 93.4278 2.87435 94.8652 1.12063 95.3313Z" fill="black"/>
</g>
<defs>
<clipPath id="clip0_179_8170">
<rect width="119" height="181" fill="white"/>
</clipPath>
</defs>
</svg>
