<svg width="137" height="251" viewBox="0 0 137 251" fill="none" xmlns="http://www.w3.org/2000/svg">
<path d="M2.41577e-07 224.338C8.42579e-08 226.138 2.61277 227.523 5.02807 226.983C37.9051 219.785 70.5305 209.276 92.3043 190.993C117.052 170.119 125.145 139.581 111.681 112.246C95.4586 79.3509 52.686 61.2657 8.00286 49.2629C5.67768 48.6331 3.29776 49.6769 3.26171 51.3324L2.41577e-07 224.338Z" fill="#EA552B"/>
<path d="M118.146 207.046C116.678 188.621 94.0875 168.947 76.4631 166.086C65.526 169.708 79.7256 176.58 84.0932 178.934C94.541 186.177 114.431 199.441 106.221 213.954C98.3467 223.913 90.9616 242.473 75.3397 233.963C69.1146 230.468 60.5607 228.621 55.7038 223.732C57.4164 203.433 59.328 185.226 81.6734 204.819C91.2966 210.55 93.1999 221.459 79.1457 219.984C77.6415 219.277 74.5243 218.01 75.2039 215.819C75.567 214.098 75.7943 212.351 75.8835 210.595C75.7113 206.276 69.1236 206.068 68.5255 210.387C64.6926 219.839 73.2195 228.177 82.734 226.611C99.86 226.158 99.751 204.149 87.9531 196.326C59.1651 171.31 41.3413 190.667 39.7194 223.026C36.8288 239.476 64.3209 246.466 76.4813 250.187C84.7362 251.708 91.4416 248.965 96.6428 242.691C104.345 231.889 117.457 220.708 118.146 207.046Z" fill="black"/>
<path d="M127.232 38.952C124.263 40.0637 120.437 41.1755 118.214 43.3989C113.332 48.3904 113.121 56.2279 109.73 61.9532C108.885 63.4429 108.14 65.1327 107.184 66.5112C105.805 68.5345 104.849 67.2561 103.582 65.6664C101.458 62.9094 100.824 59.5186 100.246 56.1279C99.6677 52.7372 99.1896 49.5465 98.5558 46.367C97.8108 42.7651 95.164 41.5979 91.9729 40.4306C89.2265 39.3189 86.4694 38.4185 83.7119 37.4624C82.5444 37.0399 79.4641 36.8286 78.9304 35.5613C78.2967 33.9604 80.7429 33.2267 81.7992 32.6931C84.868 31.3146 88.2707 30.6809 91.2394 29.358C94.6307 27.7683 95.8981 25.656 97.1768 22.3653C99.6118 15.7951 99.4005 8.79137 101.836 2.35458C102.48 0.876014 103.326 -0.713657 104.704 0.342465C106.083 1.39859 107.039 4.68913 108.04 6.06765C110.686 10.1031 111.432 15.0837 113.333 19.5305C114.289 21.6539 115.145 25.2558 116.947 26.7455C118.959 28.4464 122.884 28.7576 125.319 29.1801C129.244 29.9249 136.571 29.3357 136.982 32.7931C137.394 36.2505 130.523 37.7847 127.232 38.952Z" fill="black"/>
</svg>
