<svg width="79" height="84" viewBox="0 0 79 84" fill="none" xmlns="http://www.w3.org/2000/svg">
<path d="M41.9426 2.27134C42.3406 2.96864 42.2636 3.75625 42.2908 4.49722C42.8814 16.6759 42.517 28.8806 42.3647 41.0835C42.1977 53.8685 41.9383 66.6493 41.1473 79.4144C41.1217 79.8206 41.1155 80.2304 41.0772 80.6368C40.9721 81.8025 40.568 82.74 39.1776 82.6367C37.7873 82.5334 37.4352 81.5823 37.4778 80.4002C38.3188 60.3139 36.8784 40.2426 37.1793 20.1593C37.2474 14.7828 37.771 9.42191 38.7445 4.13411C38.8285 3.50046 39.0266 2.88731 39.3292 2.32438C40.0088 1.28553 41.3263 1.28996 41.9426 2.27134Z" fill="black"/>
</svg>
