<svg width="158" height="156" viewBox="0 0 158 156" fill="none" xmlns="http://www.w3.org/2000/svg">
<path d="M77.3955 54.0642C76.6874 51.8904 75.9924 49.7112 75.276 47.5435C74.0082 43.6932 72.879 39.7876 70.8408 36.2483C69.2328 33.4557 67.4836 30.7671 64.7547 28.8939C60.7245 26.1295 56.8927 26.6446 53.682 30.3116C50.98 33.399 49.9477 37.0722 49.8036 41.0525C49.6023 46.7065 50.8563 52.1389 52.637 57.4397C53.9685 61.4055 55.6084 65.268 57.0931 69.1808C57.3782 69.9276 57.5958 70.6987 57.8471 71.4576C57.7352 71.5144 57.624 71.5664 57.5149 71.6211C56.8236 70.3575 56.1454 69.0886 55.4354 67.8344C53.7121 64.7808 52.087 61.6633 50.1902 58.7162C49.3574 57.4286 48.0709 56.3429 46.7967 55.436C43.1763 52.8395 38.6903 53.9046 36.4608 57.7846C34.8927 60.5154 34.5011 63.5333 34.647 66.608C34.9542 72.9469 36.7349 78.8799 39.6318 84.5249C43.1634 91.4135 47.2922 97.9792 51.9709 104.147C52.4884 104.857 52.9693 105.594 53.4119 106.353C54.1614 107.574 54.1429 108.036 53.0999 109.009C51.3419 110.641 49.5267 112.213 47.7394 113.811C45.6061 115.728 43.4489 117.624 41.3619 119.592C40.8171 120.145 40.3785 120.794 40.0678 121.506C39.2318 123.27 40.2204 124.99 42.1558 124.863C43.5288 124.777 44.86 124.357 46.0336 123.639C48.7253 121.901 51.2554 119.914 53.8468 118.01C55.644 116.686 57.4326 115.339 59.2175 114.017C59.4944 113.813 59.7703 113.648 60.1715 113.387C60.8833 114.353 61.5604 115.273 62.2576 116.173C67.1579 122.464 73.4654 127.517 80.6732 130.927C85.05 132.997 89.6403 133.674 94.3778 132.249C97.0773 131.412 99.4813 129.821 101.307 127.663C103.861 124.752 104.007 121.186 101.917 117.71C99.7192 114.01 96.2639 111.224 92.1822 109.86C89.8671 109.037 87.4238 108.555 85.0772 107.792C83.1271 107.157 81.2267 106.356 79.3141 105.603C78.4949 105.28 78.4184 104.666 79.0319 104.124C79.6454 103.583 80.3446 102.914 81.0893 102.789C82.7421 102.475 84.428 102.373 86.1065 102.485C89.7679 102.818 93.4051 103.552 97.0722 103.782C99.8673 103.956 102.673 103.84 105.444 103.435C108.941 102.923 111.815 101.067 113.897 98.1583C117.342 93.3536 114.515 87.5373 110.452 85.6262C108.464 84.6478 106.221 84.3148 104.036 84.6739C101.105 85.166 98.1977 85.7993 95.2619 86.2611C93.7708 86.4972 92.2597 86.5825 90.7515 86.5158C90.1285 86.4876 89.2481 85.9997 88.9914 85.4712C88.5859 84.6421 89.0535 83.7169 89.8039 83.1643C90.4067 82.6782 91.1049 82.3242 91.8532 82.1251C95.2535 81.4067 98.6665 80.7444 102.092 80.1381C106.489 79.3521 110.852 78.497 114.909 76.5007C118.713 74.6261 121.953 72.1468 124.178 68.4408C125.126 66.8765 125.712 65.1198 125.893 63.2995C126.395 58.338 121.861 53.5611 116.701 54.0465C112.73 54.4077 109.178 55.8829 105.708 57.6779C102.978 59.086 100.303 60.5985 97.5562 61.972C96.5748 62.4221 95.538 62.7403 94.4731 62.9182C93.3196 63.1439 92.7379 62.4873 93.2902 61.4741C94.0376 60.0853 94.9483 58.7909 96.0031 57.6184C98.7021 54.6485 101.708 51.9393 104.236 48.8351C108.91 43.0953 111.343 36.447 111.164 28.9714C111.075 25.3124 110.189 21.8473 108.121 18.7143C104.826 13.7296 99.3297 11.6476 93.826 13.9406C84.9988 17.613 79.4987 24.0637 78.8595 33.9314C78.5194 39.0896 78.5183 44.2674 78.3109 49.4261C78.2493 50.9665 77.9829 52.4954 77.8092 54.0286L77.3955 54.0642Z" fill="#27DAB7"/>
<path d="M23.4387 70.752C22.9463 70.1153 22.2274 69.7794 21.4213 69.8885C21.1555 69.9234 20.9158 70.015 20.6805 70.1196C20.6762 70.1196 20.6718 70.124 20.6631 70.124L20.5368 70.1414C20.3058 70.1981 20.101 70.3028 19.9311 70.4598C19.6348 70.6866 19.3777 71.0137 19.2906 71.3888C19.2209 71.7028 19.2209 72.0255 19.2906 72.3396C19.3734 72.7015 19.6087 72.9938 19.8832 73.2293C19.8396 73.1944 19.796 73.1595 19.7524 73.129C19.8222 73.1987 19.8744 73.2772 19.9398 73.3514C19.9965 73.4168 20.0575 73.4779 20.1228 73.5346C20.2666 73.7308 20.4452 73.9009 20.6588 74.0448C21.4692 74.5856 22.5847 74.3196 23.2383 73.661C23.5346 73.3601 23.7699 72.9938 23.9006 72.5881C24.1184 71.9252 23.8352 71.2623 23.4387 70.752Z" fill="#55BBDA"/>
<path d="M30.4972 67.6381C30.3752 66.936 29.4994 66.273 28.7892 66.3385C27.7826 66.43 26.8763 66.9011 26.4014 67.83C26.2619 68.1048 26.1661 68.4014 26.1225 68.7023C25.9395 69.0817 25.8219 69.4961 25.7696 69.9496C25.726 70.3204 25.9787 70.8524 26.2445 71.0967C26.5626 71.3889 26.9504 71.5721 27.3905 71.5721C28.2837 71.5721 29.1421 71.1621 29.7303 70.4904C30.4537 69.6662 30.6802 68.7067 30.4972 67.6381Z" fill="#55BBDA"/>
<path d="M30.6638 75.4665C30.6158 75.2659 30.5243 75.0652 30.4285 74.8821C30.3326 74.6989 30.1932 74.5288 30.0581 74.3762C29.9274 74.2279 29.7574 74.1101 29.5962 74.0011C29.4307 73.8877 29.2259 73.8048 29.0429 73.7481C28.9383 73.7176 28.8424 73.7132 28.7291 73.7002C28.5941 73.6827 28.5374 73.6653 28.4285 73.6696C28.0668 73.674 27.7182 73.7787 27.4089 73.9575C27.2651 74.0403 27.1126 74.1712 26.9906 74.2889C26.8729 74.4023 26.7553 74.5681 26.6638 74.7207C26.5766 74.869 26.5069 75.0609 26.4503 75.2223C26.4328 75.2702 26.4198 75.3226 26.411 75.3749C26.3588 75.5406 26.3413 75.702 26.35 75.8677C26.2411 76.2297 26.2368 76.6266 26.3283 77.006C26.3544 77.1107 26.3936 77.1892 26.4416 77.2983C26.5418 77.5338 26.6681 77.7387 26.8511 77.9219C26.9731 78.0397 27.1344 78.1618 27.2825 78.2534C27.435 78.3493 27.6137 78.4191 27.788 78.4671C28.1627 78.563 28.5243 78.5587 28.9034 78.4758C29.13 78.4235 29.3566 78.3319 29.5483 78.1967C29.9187 77.9437 30.093 77.7562 30.35 77.3986C30.4808 77.2154 30.5635 76.9886 30.6376 76.7836C30.6463 76.7531 30.655 76.7226 30.6638 76.692C30.703 76.5219 30.7291 76.3082 30.7378 76.1338C30.7378 76.1032 30.7378 76.0727 30.7378 76.0422C30.7335 75.8503 30.7073 75.6409 30.6638 75.4665Z" fill="#55BBDA"/>
<path d="M36.9469 72.6709C36.9164 71.694 36.1843 71.0354 35.2388 70.9612C33.8793 70.8566 32.5852 72.0996 32.6593 73.469C32.7159 74.4896 33.4 75.3924 34.4763 75.4447C34.7639 75.4578 35.0253 75.3749 35.2562 75.231C36.2976 74.9039 36.9817 73.7918 36.9469 72.6709Z" fill="#55BBDA"/>
<path d="M24.7418 80.6356C24.6503 79.9683 24.2842 79.3708 23.7091 79.0045C23.4607 78.8475 23.1993 78.7602 22.9291 78.7297C22.9073 78.7254 22.8899 78.7123 22.8681 78.7079C22.2058 78.5422 21.4781 78.7602 21.0206 79.2749C20.598 79.7503 20.354 80.3434 20.3496 80.9845C20.3496 82.1926 21.2646 83.3527 22.5326 83.3266C23.9182 83.296 24.9204 81.9527 24.7418 80.6356Z" fill="#55BBDA"/>
<path d="M31.4266 82.6881C31.2567 82.3392 30.9299 82.0121 30.5944 81.8202C30.1369 81.5586 29.5399 81.4582 29.0301 81.6109C28.7207 81.7025 28.4854 81.842 28.2589 82.0121C27.9103 82.1604 27.5573 82.4744 27.4005 82.771C27.2088 83.1374 27.1303 83.5168 27.187 83.9311C27.2698 84.5461 27.6924 85.1218 28.2632 85.3747C28.3416 85.4358 28.4157 85.4968 28.4985 85.5579C28.834 85.7891 29.2218 85.8937 29.6227 85.9068C30.2894 85.933 31.0083 85.4925 31.309 84.9037C31.4222 84.6813 31.4963 84.4545 31.5443 84.219C31.566 84.1623 31.5878 84.1099 31.6096 84.0532C31.7534 83.5909 31.627 83.1025 31.4266 82.6881Z" fill="#55BBDA"/>
<path d="M39.6788 80.6922C39.5001 79.9072 38.8334 79.1352 38.0273 78.9564C38.0012 78.9521 37.9751 78.9477 37.9489 78.9433C37.6483 78.8561 37.3215 78.8474 36.999 78.939C36.1711 79.1745 35.6395 79.8156 35.365 80.6007C35.1515 81.2069 35.2125 81.9265 35.5437 82.4804C36.0622 83.3352 37.0426 83.61 37.9751 83.405C39.2212 83.1302 39.9533 81.9178 39.6788 80.6922Z" fill="#55BBDA"/>
<path d="M43.4913 72.7758C42.4979 71.7727 40.768 71.7553 39.8835 72.9023C39.5785 73.2992 39.3693 73.8051 39.3824 74.3197C39.3868 74.5509 39.4216 74.8126 39.4957 75.0393C39.6003 75.3577 39.7397 75.6281 39.9881 75.868C40.0839 75.9596 40.28 76.1035 40.4238 76.1995C40.4282 76.1995 40.4282 76.2038 40.4325 76.2038C40.5327 76.3041 40.6417 76.3957 40.7724 76.4655C41.1863 76.6836 41.7136 76.81 42.1711 76.6487C42.8639 76.4044 43.5044 76.0468 43.8704 75.3795C44.341 74.5203 44.1711 73.4605 43.4913 72.7758Z" fill="#55BBDA"/>
<path d="M40.9991 66.6351C40.7682 65.8108 40.0231 65.1959 39.156 65.1828C37.8444 65.1653 36.7595 66.4781 36.803 67.7429C36.8161 68.0525 36.8902 68.3622 37.0122 68.6457C37.0252 68.7329 37.0383 68.8245 37.0557 68.9161C37.1211 69.2999 37.5089 69.7622 37.8444 69.941C38.2366 70.146 38.7333 70.2681 39.1647 70.1155C40.0971 69.784 40.7769 69.012 40.9904 68.0395C41.0906 67.5815 41.1298 67.0974 40.9991 66.6351Z" fill="#55BBDA"/>
<path d="M36.0364 61.3753C35.8403 61.0351 35.5266 60.7822 35.1693 60.6339C34.8207 60.4856 34.3545 60.4071 33.9885 60.5423C33.7488 60.6339 33.4918 60.7211 33.2783 60.865C32.934 61.1006 32.6944 61.3273 32.4634 61.6762C32.3458 61.8594 32.2543 62.0775 32.1976 62.2912C32.1061 62.6532 32.1018 63.0588 32.202 63.4164C32.2935 63.761 32.4852 64.0924 32.7336 64.3454C32.8774 64.498 33.056 64.6376 33.2434 64.7335C33.5876 64.9124 33.958 65.0258 34.3501 65.0039C34.6377 64.9909 34.8687 64.9429 35.1257 64.8382C35.3698 64.7335 35.5963 64.6114 35.775 64.4064C36.0582 64.0837 36.2281 63.7348 36.263 63.3379C36.5114 62.6881 36.385 61.9815 36.0364 61.3753Z" fill="#55BBDA"/>
<path d="M28.2973 61.6457C28.2102 61.3098 28.0098 60.9173 27.744 60.6774C27.1601 60.1454 26.4106 59.9491 25.6394 60.1236C25.0642 60.2544 24.5588 60.6556 24.2712 61.1616C24.0795 61.4974 23.9793 61.8986 23.9923 62.2824C24.0098 62.7578 24.1274 63.0762 24.3322 63.5036C24.598 64.0488 25.3082 64.4326 25.9008 64.402C26.1231 64.3933 26.3453 64.3628 26.5631 64.3192C26.5849 64.3148 26.6067 64.3104 26.6285 64.3017C26.7636 64.2581 26.9727 64.1752 27.0947 64.1055C27.3126 63.979 27.5043 63.8176 27.6655 63.6257C27.7135 63.5865 27.757 63.5428 27.8006 63.4949C27.9139 63.364 28.0316 63.2245 28.1187 63.0718C28.3671 62.6357 28.4237 62.1298 28.2973 61.6457Z" fill="#55BBDA"/>
<path d="M22.1448 64.1135C22.0272 63.6905 21.7047 63.2369 21.3126 63.0276C20.8899 62.8051 20.3801 62.6917 19.9139 62.8444C19.6612 62.9272 19.4346 63.045 19.2385 63.2064C19.0119 63.2674 18.7984 63.3677 18.598 63.5204C18.5675 63.5466 18.537 63.5727 18.5065 63.5989C18.4978 63.5684 18.4411 63.6251 18.3279 63.7777C18.2712 63.8431 18.2189 63.9085 18.1753 63.9783C18.1623 64.0001 18.1492 64.0176 18.1361 64.0394C17.9793 64.2967 17.8834 64.5933 17.9096 64.8986C17.9096 64.8986 17.9096 64.8942 17.9139 64.8942C17.9139 64.9029 17.9139 64.9117 17.9139 64.9247C17.9401 65.4307 18.1056 65.8624 18.4542 66.2419C18.6764 66.4861 19.0119 66.6475 19.33 66.7434C19.6655 66.8437 20.049 66.8263 20.3801 66.7478C21.0599 66.5864 21.6132 66.0979 21.9662 65.5135C22.2058 65.1123 22.2668 64.5627 22.1448 64.1135Z" fill="#55BBDA"/>
<path d="M16.5237 77.4908C16.2404 77.2335 15.8439 77.0285 15.4518 77.046C15.3167 77.0634 15.1816 77.0809 15.0465 77.0983C14.9028 77.1375 14.772 77.1986 14.6544 77.2727C14.3102 77.2466 13.9572 77.3207 13.6566 77.4995C13.2121 77.7612 12.9245 78.145 12.7677 78.6335C12.4932 79.497 13.0117 80.4914 13.7873 80.897C14.2056 81.1151 14.7067 81.2852 15.186 81.2546C15.3733 81.2416 15.5607 81.2241 15.7437 81.1761C15.7655 81.1718 15.7873 81.1631 15.8091 81.1543C15.9529 81.102 16.1272 81.0409 16.2622 80.9624C16.5672 80.7793 16.833 80.5263 17.003 80.2079C17.4692 79.3357 17.2513 78.1625 16.5237 77.4908Z" fill="#55BBDA"/>
<path d="M19.6173 86.8931C19.443 86.2389 18.8547 85.6937 18.2055 85.528C17.5432 85.3535 16.7545 85.5629 16.297 86.095C16.1576 86.2607 16.0356 86.4308 15.9484 86.6183C15.5694 87.0981 15.3341 87.7479 15.4081 88.3367C15.4691 88.8121 15.565 89.2787 15.9397 89.6233C16.3057 89.9591 16.724 90.1248 17.2251 90.1554C18.3232 90.2251 19.4212 89.5055 19.6652 88.4021C19.7741 87.8918 19.7523 87.3903 19.6173 86.8931Z" fill="#55BBDA"/>
<path d="M27.8796 90.5353C27.6007 90.0425 26.9907 89.6587 26.4156 89.6936C26.2935 89.7023 26.1759 89.7154 26.0583 89.7372C25.6792 89.7198 25.3219 89.8201 24.9864 89.9945C24.555 90.217 24.1498 90.592 23.9014 91.0107C23.1955 92.197 23.6661 93.8325 24.9515 94.3777C27.1389 95.3023 28.8905 92.3366 27.8796 90.5353Z" fill="#55BBDA"/>
<path d="M35.984 88.904C35.7138 88.3981 35.0472 87.9794 34.4589 88.0318C33.7182 88.0972 32.9993 88.3502 32.5722 88.9956C32.0929 89.314 31.8838 89.8679 31.8838 90.4349C31.8838 90.8361 31.9971 91.2417 32.2106 91.5775C32.6115 92.2056 33.2607 92.5458 33.9971 92.5632C34.8032 92.585 35.6485 92.1707 36.0494 91.4467C36.5069 90.618 36.411 89.7152 35.984 88.904Z" fill="#55BBDA"/>
<path d="M15.7574 71.0143C15.5613 70.709 15.3043 70.4561 14.9905 70.2729C14.594 70.0461 14.2846 70.0156 13.8358 69.9633C13.6528 69.9415 13.4393 69.9894 13.2302 70.0723C13.204 70.0723 13.1735 70.0679 13.1474 70.0679C12.2454 70.0679 11.5439 70.7919 11.326 71.6206C10.9513 73.0249 12.0319 74.3638 13.4001 74.5514C14.5809 74.7084 15.7313 73.9321 16.0232 72.7676C16.167 72.1788 16.0886 71.5203 15.7574 71.0143Z" fill="#55BBDA"/>
<path d="M11.5224 85.1184C11.3089 84.7259 10.8644 84.3988 10.4374 84.2854C10.1977 84.2113 9.95373 84.1982 9.71408 84.2549C9.58336 84.2592 9.46136 84.2854 9.33936 84.3247C9.19557 84.3072 9.04742 84.3116 8.90363 84.3552C8.43304 84.4904 8.04089 84.7434 7.74023 85.1315C7.67487 85.2144 7.61387 85.2842 7.56158 85.3757C7.52673 85.4368 7.36986 85.8337 7.46572 85.6025C7.43522 85.6767 7.40472 85.7465 7.37422 85.8206C7.30015 86.0605 7.28707 86.3047 7.34372 86.5446C7.335 86.4923 7.35679 86.7234 7.37858 86.8019C7.40908 86.9066 7.51801 87.1683 7.57466 87.2555C7.7838 87.5913 8.0191 87.8312 8.35025 88.0449C8.44611 88.1059 8.54633 88.1408 8.65526 88.1844C8.75984 88.2281 8.86006 88.2804 8.96899 88.3066C9.14764 88.3502 9.35243 88.3763 9.53543 88.3851C9.57465 88.3851 9.60951 88.3851 9.64872 88.3807C10.0757 88.3458 10.3459 88.2935 10.7293 88.0841C10.9167 87.9838 11.091 87.8486 11.2348 87.696C11.5921 87.3035 11.8317 86.8019 11.8274 86.2611C11.8187 85.825 11.7228 85.4891 11.5224 85.1184Z" fill="#55BBDA"/>
<path d="M13.3734 63.9266C13.3821 63.678 13.3298 63.4425 13.2165 63.2288C13.1425 63.002 13.0161 62.8101 12.8418 62.6443C12.6762 62.4655 12.4845 62.3434 12.2579 62.2693C12.0401 62.1559 11.8091 62.1035 11.5608 62.1123C11.3996 62.1341 11.2383 62.1559 11.0771 62.1777C10.7677 62.2649 10.5019 62.4219 10.2754 62.6443C10.1795 62.7665 10.088 62.8886 9.99215 63.0107C9.93114 63.1197 9.88321 63.2288 9.844 63.3422C9.64356 63.6344 9.53027 63.9876 9.53027 64.3409C9.53027 64.6549 9.60871 64.9515 9.76992 65.2263C9.92679 65.4879 10.1359 65.6973 10.3974 65.8543C10.5542 65.9197 10.7111 66.0026 10.8767 66.0505C11.051 66.1029 11.234 66.1116 11.417 66.1247C11.7263 66.1465 12.1098 66.0157 12.3712 65.8586C12.5194 65.7714 12.6675 65.658 12.7852 65.5315C12.881 65.4094 12.9725 65.2873 13.0684 65.1652C13.0727 65.1608 13.0771 65.1521 13.0815 65.1478C13.0858 65.1347 13.0945 65.1259 13.0989 65.1129C13.1817 64.9559 13.2601 64.7901 13.3037 64.6157C13.308 64.5982 13.3124 64.5808 13.3124 64.5633C13.3385 64.402 13.3734 64.2144 13.3778 64.0531C13.3778 64.0051 13.3778 63.9658 13.3734 63.9266Z" fill="#55BBDA"/>
<path d="M8.53224 78.2707C8.48867 78.0875 8.40588 77.9087 8.31002 77.7473C8.07037 77.3548 7.67386 77.0364 7.22506 76.9143C6.9854 76.8402 6.7414 76.8271 6.50175 76.8838C6.2621 76.8969 6.03552 76.9667 5.82637 77.0975C5.48214 77.3199 5.17277 77.6427 5.0377 78.0352C4.98977 78.0962 4.94619 78.1617 4.90698 78.2314C4.83726 78.3797 4.7719 78.528 4.71962 78.6807C4.69783 78.8377 4.67604 78.999 4.65426 79.156C4.64554 79.4046 4.69783 79.6314 4.80676 79.8451C4.85033 79.9978 4.92441 80.1286 5.0377 80.242C5.16406 80.4383 5.32964 80.5909 5.53879 80.7043C5.6085 80.7567 5.68693 80.7915 5.77408 80.809C5.99194 80.9224 6.22288 80.9747 6.47124 80.966C6.63246 80.9442 6.79368 80.9224 6.9549 80.9006C6.96798 80.8962 6.98105 80.8919 6.99412 80.8875C7.15534 80.8308 7.36885 80.7523 7.53442 80.652C7.69128 80.556 7.84815 80.4426 7.97451 80.3162C7.98758 80.3031 8.00065 80.2856 8.01808 80.2725C8.10958 80.1766 8.25338 79.9934 8.31873 79.88C8.32745 79.8669 8.33181 79.8539 8.34052 79.8408C8.40588 79.7187 8.49303 79.5137 8.53224 79.3828C8.58889 79.204 8.61503 79.0121 8.60632 78.8246C8.60196 78.6501 8.57146 78.4408 8.53224 78.2707Z" fill="#55BBDA"/>
<path d="M21.3126 56.1113C21.086 55.7057 20.8377 55.5312 20.476 55.2521C20.3409 55.1954 20.2059 55.1387 20.0664 55.0777L19.6133 55.0166C19.2342 55.0166 18.8769 55.1518 18.5762 55.383C18.3366 55.5705 18.1666 55.7842 18.049 56.0677C17.9531 56.2945 17.9183 56.5038 17.9183 56.7262C17.6394 57.1493 17.5392 57.6596 17.6568 58.1655C17.7919 58.7674 18.354 59.2253 18.9292 59.3779C19.4738 59.5262 20.0229 59.3867 20.5022 59.1119C21.1645 58.7368 21.5871 57.9692 21.5958 57.2147C21.6045 56.8396 21.5 56.4471 21.3126 56.1113Z" fill="#55BBDA"/>
<path d="M33.8754 54.973C33.6139 54.5761 33.2566 54.2665 32.7904 54.14C32.4462 54.044 32.0148 54.0615 31.6619 54.1923C31.6401 54.1967 31.6183 54.2011 31.5921 54.2054C31.2174 54.2577 30.8209 54.4104 30.5595 54.7026C30.5507 54.7113 30.542 54.7244 30.5333 54.7331L30.2501 55.0995C30.1194 55.3088 30.0453 55.5313 30.0366 55.7755C29.993 55.9369 29.993 56.0982 30.0366 56.2596C30.0497 56.4995 30.1194 56.7263 30.2501 56.9356C30.4157 57.2671 30.6074 57.6073 30.8993 57.8428L31.2653 58.1263C31.4745 58.2571 31.6967 58.3312 31.9407 58.34C32.1019 58.3836 32.2632 58.3836 32.4244 58.34C32.664 58.3269 32.8906 58.2571 33.0998 58.1263C33.3263 58.0085 33.5486 57.8471 33.7272 57.664C34.0845 57.302 34.3329 56.7699 34.3154 56.2552C34.298 55.7711 34.1368 55.3655 33.8754 54.973Z" fill="#55BBDA"/>
<path d="M27.9008 53.9305C27.8442 53.695 27.7353 53.49 27.574 53.3112C27.4825 53.1716 27.3736 53.0539 27.2385 52.9579C27.208 52.9187 27.1775 52.8794 27.1557 52.8576C26.9553 52.6395 26.6982 52.5349 26.4237 52.4389C26.0272 52.3037 25.5653 52.2601 25.1557 52.3735C24.6372 52.5174 24.1666 52.91 23.8965 53.3766C23.8921 53.3853 23.8878 53.3941 23.8834 53.4071C23.8442 53.4769 23.7222 53.7735 23.6961 53.852C23.6917 53.8694 23.683 53.8869 23.6786 53.9043C23.6307 54.0919 23.6002 54.2881 23.6089 54.4844C23.6307 54.8726 23.7091 55.2476 23.9313 55.5747C24.171 55.928 24.3627 56.1286 24.7244 56.3554C24.8812 56.4557 25.0686 56.5168 25.2385 56.5822C25.2734 56.5953 25.3082 56.6084 25.3475 56.6127C25.744 56.6956 26.0882 56.7174 26.4847 56.5953C26.415 56.6171 26.8289 56.4732 26.9553 56.3903C27.086 56.3031 27.2385 56.1853 27.3562 56.0763C27.6133 55.8364 27.7658 55.5224 27.8747 55.1953C28.0316 54.7504 27.9662 54.3841 27.9008 53.9305Z" fill="#55BBDA"/>
<path d="M41.4782 58.379C41.3824 58.2307 41.2647 58.0955 41.1384 57.9734C40.9074 57.6725 40.5676 57.45 40.2103 57.3454C39.7832 57.2233 39.3649 57.2843 38.9684 57.4544C38.524 57.6419 38.1449 57.9385 37.9227 58.3834C37.7222 58.7803 37.5959 59.2208 37.6395 59.67C37.6395 59.9971 37.7222 60.3024 37.8878 60.5858C38.049 60.8606 38.2669 61.0743 38.5371 61.2357C38.9597 61.4843 39.4347 61.5323 39.8835 61.4189C40.0839 61.384 40.28 61.3186 40.4543 61.2052C40.4891 61.1834 40.524 61.1572 40.5588 61.131C40.7157 61.0438 40.8551 60.9522 40.9946 60.8083C41.0643 60.7341 41.1253 60.6556 41.1906 60.5771C41.4608 60.2675 41.6351 59.9447 41.6917 59.5348C41.744 59.151 41.6961 58.7192 41.4782 58.379Z" fill="#55BBDA"/>
<path d="M48.7068 66.1776C48.6022 65.724 48.2667 65.3882 47.9007 65.1309C47.6044 64.9215 47.1207 64.8299 46.7678 64.843C46.3713 64.8561 45.953 64.9651 45.6262 65.1919C44.9203 65.6848 44.5281 66.4 44.4976 67.2636C44.4846 67.6822 44.6981 68.2143 45.0074 68.4978C45.356 68.8206 45.7613 68.9907 46.2406 69.0081C46.3713 69.0125 46.4976 69.0168 46.624 69.0037C47.0946 68.9601 47.5216 68.8293 47.8658 68.4804C48.0401 68.3016 48.1926 68.0704 48.2928 67.8262C48.4846 67.6256 48.6414 67.3813 48.7024 67.1109C48.7765 66.8013 48.7765 66.4872 48.7068 66.1776Z" fill="#55BBDA"/>
<path d="M48.7156 83.0906C48.7025 82.6152 48.5239 82.1442 48.184 81.804C47.8703 81.49 47.3518 81.2501 46.8986 81.2719C46.428 81.2937 45.9444 81.4463 45.6132 81.804C45.574 81.8476 45.5348 81.8912 45.4999 81.9392C45.4781 81.9479 45.4563 81.961 45.4346 81.9741C45.1949 82.1049 44.9553 82.3535 44.8158 82.589C44.6546 82.8638 44.5805 83.2083 44.5762 83.5267C44.5762 83.627 44.598 83.736 44.611 83.8276C44.6415 84.0675 44.7113 84.3117 44.8376 84.5254L45.1165 84.8874C45.2777 85.0619 45.4694 85.184 45.6873 85.2538C45.8398 85.3192 45.8616 85.3366 45.9836 85.3541C46.1884 85.3846 46.3975 85.4282 46.6067 85.4326C46.7548 85.437 46.9727 85.3933 47.1208 85.3672C47.147 85.3628 47.1731 85.3585 47.1993 85.3497C47.3779 85.3061 47.5522 85.2276 47.7134 85.136C48.0315 84.9485 48.2581 84.7043 48.4498 84.3946C48.6938 83.9934 48.7287 83.5354 48.7156 83.0906Z" fill="#55BBDA"/>
<path d="M52.7328 77.6436C52.7154 77.5433 52.6805 77.4517 52.6413 77.3601C52.6151 76.7452 52.2796 76.2523 51.7785 75.9165C51.1685 75.5109 50.3319 75.5414 49.7088 75.9034C49.1206 76.2436 48.6979 76.9152 48.7154 77.6043C48.7415 78.5202 49.2992 79.2442 50.0661 79.6934L50.4975 79.8766L50.9812 79.942C51.1424 79.9202 51.3036 79.8984 51.4648 79.8766C51.7001 79.8199 51.9049 79.7109 52.0835 79.5539C52.2186 79.4753 52.3276 79.3663 52.4103 79.2268C52.5236 79.1134 52.6021 78.9782 52.6456 78.8255C52.7284 78.6859 52.7676 78.5333 52.7676 78.3676C52.8199 78.1277 52.8069 77.8878 52.7328 77.6436Z" fill="#55BBDA"/>
<path d="M44.7508 89.065C44.7421 89.017 44.7334 88.9734 44.716 88.9254C44.5896 88.546 44.4458 88.2669 44.1713 87.9746C43.6702 87.4469 42.8946 87.2376 42.1931 87.4338C42.0232 87.4818 41.8532 87.5472 41.7051 87.6432C41.6354 87.6868 41.5439 87.7653 41.5003 87.8002C41.4872 87.8089 41.3478 87.9049 41.2911 87.9659C41.0036 88.2756 40.8946 88.498 40.7465 88.8818C40.5809 89.3136 40.6245 89.8369 40.7247 90.2731C40.7813 90.5086 40.8903 90.7136 41.0515 90.8924C41.1778 91.0886 41.3478 91.2456 41.5613 91.359C41.7704 91.4899 41.9927 91.564 42.2367 91.5727C42.4763 91.6251 42.7203 91.6164 42.96 91.5422C43.0471 91.516 43.1299 91.4812 43.2171 91.4419C43.2258 91.4419 43.2388 91.4375 43.2476 91.4375C43.4088 91.4375 43.5613 91.3939 43.7051 91.3154C43.8576 91.2718 43.9927 91.1933 44.1016 91.0843C44.2367 91.0058 44.3456 90.8967 44.424 90.7615C44.5852 90.5871 44.6898 90.3821 44.7465 90.1466C44.8598 89.7453 44.8205 89.4531 44.7508 89.065Z" fill="#55BBDA"/>
<path d="M52.3629 68.8467C51.8401 68.8641 51.3346 68.995 50.8989 69.2654C50.8771 69.2697 50.8553 69.2741 50.8379 69.2785C50.3978 69.4224 49.9752 69.6928 49.7529 70.1115C49.5307 70.5345 49.4218 71.0404 49.5699 71.5115C49.6091 71.6292 49.6527 71.7426 49.705 71.8517C49.7137 71.9083 49.7181 71.9607 49.7268 72.0174C49.7878 72.1613 49.8488 72.3052 49.9098 72.4535C50.1102 72.7937 50.4196 73.0467 50.7769 73.1949C51.4392 73.4741 52.2453 73.3432 52.7595 72.8199C52.7856 72.7937 52.8074 72.7632 52.8335 72.7326C52.8989 72.7065 52.9642 72.6803 53.0253 72.6454C53.2039 72.5451 53.3869 72.4055 53.5307 72.266C53.9795 71.8342 54.1538 71.2716 54.1756 70.661C54.2148 69.7059 53.3172 68.8118 52.3629 68.8467Z" fill="#55BBDA"/>
<path d="M47.5964 57.7334C47.2304 57.258 46.7293 56.8742 46.1324 56.739C45.0256 56.4905 43.884 57.1098 43.6182 58.2481C43.4309 59.0506 43.7794 60.0667 44.5289 60.4854C44.7206 60.7515 44.9995 60.9565 45.3089 61.0437C46.237 61.3141 47.3568 60.9957 47.8492 60.1104C48.2805 59.3297 48.1237 58.4182 47.5964 57.7334Z" fill="#55BBDA"/>
<path d="M53.2345 61.1578C52.5068 60.9572 51.692 61.1666 51.1604 61.7074C50.8859 61.9865 50.7291 62.2918 50.6158 62.6625C50.4197 63.3036 50.6593 64.0363 51.1169 64.503C51.3696 64.7559 51.692 64.9129 52.0275 64.9696C52.302 65.1354 52.6201 65.2488 52.9251 65.2139C53.1256 65.1877 53.326 65.1833 53.5177 65.1223C53.8532 65.0133 54.119 64.8693 54.3718 64.6164C54.7465 64.2413 54.9731 63.7005 54.9687 63.1684C54.96 62.1784 54.1365 61.4108 53.2345 61.1578Z" fill="#55BBDA"/>
<path d="M40.6324 50.2147C39.8699 49.7568 38.9636 49.8833 38.2185 50.302C37.8263 50.5244 37.5039 50.9518 37.3862 51.3879C37.2686 51.8241 37.3209 52.3998 37.5692 52.7879C37.5823 52.8054 37.5954 52.8272 37.6084 52.8446C37.7043 53.0758 37.8481 53.2895 38.0398 53.477C38.1967 53.6297 38.3753 53.778 38.5627 53.887C38.7108 53.9742 38.8938 54.044 39.0551 54.1007C39.103 54.1181 39.1466 54.1269 39.1945 54.1356C39.3731 54.1661 39.5736 54.2097 39.7566 54.201C39.9657 54.1923 40.1749 54.1574 40.3797 54.1181C40.5235 54.0571 40.6673 53.996 40.8154 53.935C41.0289 53.8216 41.1988 53.6646 41.3252 53.4683C41.5692 53.1499 41.713 52.7792 41.713 52.3692C41.7261 51.5144 41.3862 50.664 40.6324 50.2147Z" fill="#55BBDA"/>
<path d="M5.18586 67.5859C4.37105 67.3503 3.4778 67.6818 2.92443 68.3011C2.74578 68.4974 2.56277 68.7154 2.44513 68.9597C2.20112 69.4569 2.04861 70.0326 2.22726 70.5865C2.41027 71.1447 2.79807 71.5852 3.29916 71.8207C3.48216 71.9603 3.6826 72.0606 3.8961 72.1129C4.41898 72.2438 4.99414 72.222 5.46473 71.9341C5.82203 71.716 6.09653 71.4587 6.31876 71.1011C7.06821 69.9017 6.63248 68.0045 5.18586 67.5859Z" fill="#55BBDA"/>
<path d="M11.7357 56.2018C11.7357 56.1844 11.6747 55.7352 11.6703 55.7134C11.666 55.7003 11.666 55.6916 11.6616 55.6785C11.618 55.504 11.5396 55.3383 11.4481 55.1857C11.4045 55.1072 11.2128 54.8586 11.1474 54.7975C11.1387 54.7888 11.1344 54.7844 11.1256 54.7757C11.0559 54.7059 10.825 54.5271 10.7378 54.4748C10.7248 54.466 10.7117 54.4617 10.6986 54.453C10.5505 54.3657 10.3718 54.2959 10.2019 54.248C10.1191 54.2262 9.96661 54.2131 9.92739 54.2087C9.88382 54.2044 9.73567 54.1738 9.64853 54.1738C9.63545 54.1738 9.61802 54.1738 9.60495 54.1738C9.4568 54.1782 9.23458 54.2131 9.09079 54.2436C9.05594 54.2523 9.02108 54.2611 8.99058 54.2741C8.81628 54.3352 8.63328 54.405 8.47641 54.5009C8.40234 54.5489 8.3152 54.623 8.25855 54.6667C8.02761 54.8455 8.07554 54.8019 7.8969 55.0286C7.82282 55.1246 7.74003 55.2162 7.68339 55.3296C7.60931 55.4822 7.52653 55.648 7.4786 55.8093C7.4481 55.9096 7.46552 55.8529 7.43502 56.071C7.39145 56.228 7.39145 56.385 7.43502 56.5377C7.43502 56.6511 7.45681 56.7601 7.49603 56.8604C7.50474 56.8997 7.51346 56.9433 7.52653 56.9913C7.5701 57.157 7.63982 57.3184 7.72696 57.4666C7.83154 57.6498 7.97968 57.8374 8.1409 57.9813L8.50692 58.2648C8.71607 58.3956 8.93829 58.4697 9.1823 58.4785C9.34352 58.5221 9.50474 58.5221 9.66596 58.4785C9.90561 58.4654 10.1322 58.3956 10.3413 58.2648C10.5853 58.1557 10.7901 57.9856 10.9993 57.8155C11.0341 57.785 11.069 57.7588 11.0995 57.724C11.1605 57.6542 11.2215 57.5669 11.2738 57.5015C11.3174 57.4448 11.4002 57.3532 11.4437 57.2747C11.4524 57.2617 11.4568 57.2486 11.4655 57.2311C11.5352 57.0872 11.6093 56.9171 11.6572 56.7688C11.7139 56.5944 11.74 56.4025 11.7313 56.2193C11.74 56.2149 11.7357 56.2062 11.7357 56.2018Z" fill="#55BBDA"/>
<path d="M4.00952 62.0202C4.00952 62.0245 4.00952 62.0289 4.00952 62.0376C4.01388 62.0289 4.01388 62.0245 4.00952 62.0202C4.31889 61.2744 4.1751 60.4457 3.51279 59.9311C2.86791 59.4295 1.83959 59.4295 1.26007 60.0663C0.941991 60.4152 0.671839 60.799 0.554192 61.2657C0.401687 61.8675 0.436546 62.4737 0.719769 63.032C1.16421 63.8955 2.28404 64.227 3.12499 63.7516C3.52586 63.5248 3.80473 63.1323 3.94416 62.7005C4.01824 62.4781 4.02259 62.2513 4.00516 62.0245C4.00952 62.0245 4.00952 62.0245 4.00952 62.0202Z" fill="#55BBDA"/>
<path d="M18.3104 96.2267C18.2886 96.0654 18.2668 95.904 18.2451 95.7426C18.1884 95.5071 18.0795 95.3021 17.9183 95.1233C17.8355 94.9881 17.7309 94.8791 17.5915 94.7962C17.4782 94.6828 17.3431 94.6043 17.1906 94.5607C17.0512 94.4778 16.8943 94.4386 16.7331 94.4386C16.4934 94.3862 16.2494 94.395 16.0098 94.4691C15.6786 94.5171 15.3213 94.7352 15.073 94.9663C15.0337 94.9837 14.9945 95.0012 14.9553 95.0143L14.5937 95.2934C14.5719 95.3065 14.5544 95.3239 14.5414 95.3414C14.0969 95.8124 13.9052 96.4579 14.0795 97.0903C14.2407 97.6791 14.7331 98.2024 15.3344 98.3463C15.7527 98.4466 16.3191 98.5033 16.7418 98.3856C17.0381 98.3027 17.3649 98.1239 17.5784 97.8971C17.6873 97.7794 17.8224 97.618 17.9008 97.4784C18.0185 97.2735 18.1013 97.0205 18.1884 96.8112C18.2058 96.7719 18.2233 96.7326 18.2363 96.6934C18.2668 96.5495 18.2886 96.3881 18.3104 96.2267Z" fill="#55BBDA"/>
<path d="M11.4782 93.0482C11.2821 92.6993 11.1078 92.5902 10.7985 92.3547C10.537 92.2021 10.2581 92.1279 9.9575 92.1279C9.65684 92.1279 9.37798 92.2064 9.11654 92.3547C8.69388 92.5728 8.32351 92.8476 8.07079 93.2575C7.82678 93.65 7.72221 94.1472 7.77014 94.6052C7.77014 94.9235 7.85293 95.2201 8.00979 95.4949C8.11872 95.6999 8.27123 95.8656 8.46295 95.9877C8.90303 96.3279 9.45205 96.4544 10.0011 96.3017C10.2233 96.2407 10.4324 96.1316 10.6416 96.04C10.842 95.9528 11.0207 95.822 11.1732 95.665C11.4477 95.3858 11.6089 95.0326 11.6612 94.6488C11.6743 94.5528 11.6786 94.4525 11.6786 94.3522C11.7135 94.2257 11.7309 94.0905 11.7309 93.9553C11.7614 93.6893 11.6089 93.275 11.4782 93.0482Z" fill="#55BBDA"/>
<path d="M3.87914 86.4092C3.70049 85.8815 3.38676 85.4977 2.8726 85.2796C2.38894 85.0746 1.77892 85.0615 1.32141 85.3668C0.754962 85.7506 0.375878 86.2217 0.140584 86.8671C-0.0772802 87.4734 -0.0554938 88.2192 0.301804 88.7687C0.842107 89.6061 1.94014 90.0335 2.80289 89.3662C3.0469 89.1743 3.21683 88.9388 3.33012 88.6771C3.43905 88.5855 3.54363 88.4896 3.63513 88.3674C4.07522 87.8005 4.10572 87.0765 3.87914 86.4092Z" fill="#55BBDA"/>
</svg>
