<svg width="100" height="197" viewBox="0 0 100 197" fill="none" xmlns="http://www.w3.org/2000/svg">
<path d="M98.8508 69.9926C99.0342 70.2223 99.1776 70.3256 99.1948 70.452C99.4126 71.8987 99.6533 73.3225 99.768 74.8094C100.49 82.1408 99.4355 89.3056 97.8591 96.4418C96.9828 100.463 95.4323 104.307 93.2735 107.809C90.9807 111.564 88.7795 115.382 86.3262 119.05C81.8494 125.744 76.1003 131.106 69.5199 135.699C67.5251 137.071 65.4387 138.306 63.3923 139.603C59.1391 142.284 54.4904 144.07 49.7672 145.694C47.6979 146.406 47.7436 146.418 48.1047 148.599C49.7845 158.298 52.3244 167.828 55.6941 177.075C57.5154 182.196 59.7905 187.144 62.4922 191.858C63.0024 192.754 63.4839 193.661 63.9252 194.591C64.252 195.269 64.4069 196.003 63.8108 196.641C63.3121 197.175 62.5095 197.123 61.6268 196.423C60.9418 195.869 60.305 195.258 59.7236 194.597C58.479 193.148 57.4164 191.551 56.5595 189.843C54.5581 185.916 52.8343 181.853 51.4006 177.684C47.8614 167.801 45.2272 157.617 43.5305 147.256C43.3414 146.108 43.502 144.753 42.8199 143.852C42.1378 142.95 40.7162 142.967 39.6328 142.548C37.3818 141.644 35.2868 140.391 33.4249 138.834C30.1485 136.234 27.1047 133.352 24.3281 130.222C17.742 122.552 13.2884 113.82 11.6375 103.756C11.0698 99.6856 10.2309 95.6579 9.12666 91.6997C7.44899 85.8236 4.58953 80.3532 0.723648 75.6247C0.461787 75.28 0.224149 74.9174 0.0127379 74.5396C-0.0159224 74.4994 0.0127379 74.4191 0.0127379 74.3502C0.218963 74.2729 0.439984 74.243 0.659274 74.2629C0.878564 74.2828 1.09048 74.3519 1.2795 74.465C5.29194 76.0667 9.30433 77.6398 13.1162 79.764C16.8844 81.9307 20.1712 84.8455 22.7747 88.3297C27.5533 94.3841 31.6803 100.927 35.0872 107.849C35.5286 108.779 35.9529 109.715 36.4172 110.634C38.077 113.909 39.4058 117.342 40.3838 120.881C40.5901 121.628 40.653 122.46 41.2606 123.103C41.6676 122.788 41.4728 122.409 41.4728 122.104C41.4011 113.579 42.003 105.061 43.2727 96.6312C43.3874 95.839 43.7198 94.9778 43.3816 94.2487C42.9918 93.399 41.96 93.6401 41.2206 93.4621C35.179 92.0097 30.6966 88.4732 27.4122 83.289C26.3173 81.5482 25.3443 79.7335 24.5002 77.858C23.6135 75.8374 23.0244 73.6985 22.7518 71.5083C21.6198 63.1025 22.3818 54.5495 24.9816 46.4772C26.6612 41.3036 28.7703 36.2798 31.2869 31.4586C31.5494 30.9332 31.8542 30.4302 32.1982 29.9544C35.1903 25.8381 38.5035 22.026 42.5848 18.9373C42.9172 18.6847 43.1981 18.2943 43.7312 18.4091C43.8357 18.763 43.8154 19.1421 43.6738 19.4827C42.1315 26.0607 40.9281 32.7138 40.0683 39.4157C39.2786 45.6134 38.9663 51.8629 39.1341 58.1087C39.2825 62.5907 39.8973 67.045 40.9684 71.3992C41.983 75.4582 43.0664 79.4999 44.3447 83.4842C44.5224 84.0583 44.723 84.5922 44.9179 85.1376C45.537 85.0113 45.5253 84.529 45.6171 84.1272C46.7348 79.4884 47.7323 74.8151 48.9933 70.2165C51.2059 62.3724 53.8269 54.6496 56.8461 47.0801C58.881 41.9131 61.0535 36.7461 63.0769 31.5447C65.258 26.1702 67.0137 20.6321 68.3276 14.9817C68.6983 13.3327 68.9548 11.66 69.0956 9.97554C69.3363 6.7548 69.6343 3.53402 69.9209 0.319024C69.9305 0.25384 69.9559 0.192044 69.9948 0.138985C70.0338 0.0859255 70.0853 0.0432124 70.1446 0.0147306C70.2095 -0.0028643 70.2775 -0.00471054 70.3433 0.00926422C70.4091 0.023239 70.4708 0.0526427 70.523 0.095114C70.93 0.61181 71.3311 1.14 71.6979 1.6854C76.0084 8.00058 78.8459 14.9875 80.8063 22.3533C82.0028 26.7489 82.8575 31.2307 83.3627 35.7586C83.9841 41.096 83.8471 46.4946 82.9558 51.7935C82.7616 52.8024 82.4777 53.7919 82.1074 54.7501C79.8298 60.8959 76.4474 66.5717 72.1278 71.4968C66.362 78.0745 59.8874 83.9931 52.8222 89.1448C51.819 89.8797 50.7187 90.4826 49.6469 91.1198C49.2226 91.3335 48.858 91.6495 48.5858 92.0393C48.3137 92.4292 48.1424 92.8806 48.0876 93.3531C47.8125 95.6093 47.3997 97.8541 47.1245 100.11C46.0627 107.979 45.6011 115.917 45.7433 123.855C45.8293 126.846 46.0184 129.843 46.1617 132.846C46.7349 132.846 46.7808 132.41 46.8897 132.1C48.5885 127.463 51.2337 123.232 54.6565 119.676C57.4983 116.602 60.5106 113.69 63.6789 110.955C68.7403 106.598 73.813 102.252 78.8171 97.8254C86.905 90.6663 93.0271 82.0317 97.6529 72.3006C97.9681 71.6403 98.2717 70.9744 98.5927 70.3084C98.6214 70.1477 98.7017 70.1132 98.8508 69.9926Z" fill="#55BBDA"/>
</svg>
