<svg width="138" height="269" viewBox="0 0 138 269" fill="none" xmlns="http://www.w3.org/2000/svg">
<path d="M83.174 172.191C85.9346 169.331 88.8396 166.614 91.8777 164.05C93.5553 162.776 95.4834 161.87 97.5359 161.392C99.5883 160.913 101.719 160.873 103.788 161.273C105.545 161.498 107.2 162.22 108.558 163.355C109.917 164.489 110.921 165.988 111.453 167.674C112.914 171.651 112.819 176.033 111.185 179.942C110.182 182.3 109.044 184.597 107.777 186.824C106.66 188.854 105.375 190.75 104.358 192.802C101.766 197.965 102.85 200.609 108.079 202.951C111.075 204.199 113.964 205.691 116.715 207.412C122.302 211.126 123.866 215.62 122.302 222.1C121.209 226.748 118.516 230.865 114.693 233.733C107.637 239.099 98.8407 241.665 90.0007 240.937C82.8947 240.525 83.9337 239.599 80.0456 246.514C76.9953 251.945 73.8557 257.31 69.0737 261.447C67.157 263.155 65.089 264.686 62.8951 266.02C51.1188 272.901 40.8955 264.247 40.4151 253.897C40.3267 249.859 40.7547 245.826 41.6888 241.897C43.4094 233.933 42.4485 231.457 35.1973 227.509C33.7325 226.784 32.3145 225.969 30.9516 225.067C25.6891 221.275 24.393 215.119 28.1695 209.799C29.9716 207.454 32.1773 205.449 34.6833 203.876C38.5604 201.278 43.1524 200.464 47.6887 199.583C54.236 198.311 55.0516 197.352 54.9958 190.716C54.9958 187.749 54.6382 184.783 54.6829 181.794C54.817 174.143 59.1521 169.225 66.7386 167.842C73.0625 166.738 78.0344 168.065 83.174 172.191ZM72.8949 231.558C76.1272 231.584 79.2967 230.667 82.0141 228.919C84.7314 227.171 86.8782 224.67 88.1906 221.721C91.1291 214.483 86.8499 207.044 79.0847 206.107C76.1197 205.656 73.0873 206.043 70.3321 207.226C67.5769 208.409 65.2093 210.34 63.4984 212.799C60.6381 216.691 59.8337 220.996 62.0683 225.413C64.3029 229.829 68.3586 231.469 72.8949 231.558V231.558Z" fill="#EA552B"/>
<path d="M72.0347 226.349C70.9047 226.332 69.8022 225.999 68.8522 225.388C67.9023 224.777 67.143 223.912 66.6606 222.892C65.5433 220.472 66.1801 218.163 67.6326 216.033C70.1577 212.319 75.3308 210.323 79.3419 211.572C83.353 212.821 84.8501 216.033 83.3306 219.769C81.8111 223.505 77.4648 226.383 72.0347 226.349Z" fill="#FF90E7"/>
<path d="M124.167 44.2501C118.718 41.0721 112.253 40.7089 106.006 40.7816C99.27 40.7331 92.5376 41.103 85.8475 41.8893C74.1339 43.5056 62.1297 47.755 55.0833 57.8338C52.8412 61.2065 51.3083 64.9999 50.5777 68.9833C49.8472 72.9668 49.9343 77.0572 50.8337 81.006C56.518 108.591 89.4252 118.052 113.924 116.527C117.685 116.297 121.427 115.83 125.129 115.129C133.61 113.494 143.054 104.65 134.845 96.3876C130.614 92.1381 125.056 92.3016 119.517 92.7556C111.4 93.3912 96.9437 96.2241 92.803 86.6175C92.3607 85.5615 92.0673 84.4491 91.9314 83.3123C90.1153 69.8921 108.022 71.3086 116.194 71.7444C121.642 72.035 128.743 70.9454 132.121 66.0967C136.625 59.6498 132.738 51.5686 127.599 46.8652C126.556 45.8687 125.404 44.9916 124.167 44.2501Z" fill="#F7D046"/>
<path d="M126.472 17.0824C126.094 14.165 125.1 11.3612 123.556 8.85669C122.013 6.35217 119.955 4.20402 117.519 2.55438C111.163 -1.5861 102.736 0.375164 95.7263 1.11972C88.7163 1.86429 81.1978 2.75413 73.9335 3.98901C59.5502 6.40429 45.1307 10.2724 32.5272 17.8451C27.8409 20.6543 23.48 23.9736 19.5241 27.7423C13.3897 33.6315 8.52561 40.714 5.23158 48.5537C0.09797 61.0663 -1.29617 74.7992 1.21808 88.0881C2.5994 95.6062 5.04543 102.889 8.48235 109.717C14.6549 122.606 24.8541 133.136 37.5395 139.717C46.9104 144.293 57.2438 146.291 67.5228 147.599C77.8017 148.906 88.0807 150.086 98.3959 151.231C105.134 151.939 112.307 153.355 119.026 151.775C122.224 150.941 125.021 149 126.92 146.296C128.819 143.592 129.697 140.302 129.396 137.011C128.579 125.498 115.594 124.481 106.605 124.408C95.018 124.408 83.4134 123.936 72.0993 121.212C58.9509 118.052 46.6743 111.278 40.2091 98.9296C35.333 89.1736 34.3072 77.9399 37.3356 67.4621C40.3639 56.9843 47.2247 48.0299 56.5537 42.3793C66.4331 36.4773 78.056 35.0063 89.3519 34.7521C94.8001 34.6431 100.248 34.7521 105.697 34.8611C111.145 34.97 117.192 35.7146 122.55 33.6262C128.252 31.4106 127.362 23.8016 126.745 18.8258C126.636 18.1902 126.563 17.6453 126.472 17.0824Z" fill="black"/>
<path d="M44.916 139.798C44.8994 139.264 44.9947 138.732 45.1956 138.238C45.3966 137.744 45.6987 137.299 46.0819 136.932C47.7431 135.217 49.7064 135.486 52.7268 136.448C54.2974 136.944 55.2277 138.898 55.0646 140.735C55.0473 140.998 55.0028 141.259 54.9317 141.513C54.2732 143.521 52.2798 144.605 50.0024 144.207C46.2148 143.546 44.8797 142.395 44.916 139.798Z" fill="#F7D046"/>
<path d="M42.4099 184.63C43.5391 184.611 44.6425 184.968 45.5453 185.646C46.4482 186.323 47.0988 187.282 47.3941 188.371C48.0208 190.499 47.1729 192.414 45.0421 193.702C41.4293 195.911 37.6691 194.998 36.5042 191.714C35.236 188.025 38.0378 184.66 42.4099 184.63Z" fill="#F7D046"/>
<path d="M33.2532 174.073C33.2532 170.904 35.4928 168.524 38.5506 168.589C41.6085 168.655 46.1374 171.126 45.9886 174.91C45.9788 176.317 45.4221 177.665 44.4348 178.673C43.4476 179.681 42.1062 180.271 40.6911 180.32C36.8069 180.386 33.2779 177.422 33.2532 174.073Z" fill="#F7D046"/>
<path d="M27.9902 168.233C27.9902 170.794 26.3673 172.452 23.9139 172.446C20.7441 172.446 18.316 170.403 18.297 167.74C18.297 165.378 20.2305 163.617 22.8108 163.643C25.9425 163.681 27.9902 165.499 27.9902 168.233Z" fill="#F7D046"/>
<path d="M43.123 145.483C43.123 148.044 41.5001 149.702 39.0467 149.696C35.8769 149.696 33.4488 147.653 33.4298 144.99C33.4298 142.628 35.3634 140.867 37.9436 140.893C41.0753 140.931 43.123 142.749 43.123 145.483Z" fill="#F7D046"/>
<path d="M31.7275 119.41C31.7275 122.986 29.4637 125.301 26.0414 125.292C21.6198 125.292 18.2328 122.44 18.2063 118.722C18.2063 115.423 20.9035 112.965 24.5026 113C28.8712 113.054 31.7275 115.593 31.7275 119.41Z" fill="#F7D046"/>
<path d="M19.021 184.22C19.021 181.563 20.8513 179.622 23.3856 179.751C26.3624 179.908 29.2855 181.951 29.2386 184.744C29.2551 185.357 29.1466 185.967 28.9199 186.536C28.6932 187.104 28.3531 187.619 27.9212 188.048C27.4893 188.476 26.9747 188.81 26.41 189.026C25.8452 189.243 25.2423 189.339 24.6393 189.308C22.2123 189.151 18.7327 187.7 19.021 184.22Z" fill="#F7D046"/>
<path d="M13.5786 187.54C13.1089 188.356 12.512 189.091 11.8104 189.718C11.1012 190.238 10.2536 190.535 9.37459 190.573C8.49556 190.611 7.62454 190.387 6.87157 189.931C6.10394 189.491 5.50329 188.809 5.16337 187.993C4.82344 187.177 4.76336 186.271 4.99252 185.419C5.6285 183.132 6.67909 181.003 9.21324 180.217C9.97552 179.915 10.8143 179.862 11.6095 180.065C12.4046 180.269 13.1154 180.719 13.6399 181.35C14.2336 182.034 14.6047 182.882 14.7034 183.781C14.8022 184.68 14.624 185.587 14.1926 186.381C13.9866 186.821 13.7399 187.235 13.5786 187.54Z" fill="#F7D046"/>
<path d="M22.826 144.256C20.7618 144.054 18.434 143.417 17.2043 140.981C16.7789 140.19 16.6246 139.283 16.7644 138.398C16.9043 137.513 17.3309 136.697 17.9802 136.071C18.6146 135.387 19.4547 134.921 20.377 134.742C21.2993 134.564 22.2552 134.683 23.1042 135.081C23.6312 135.305 24.1216 135.616 24.6633 135.804C27.3278 136.679 28.7039 138.436 28.3233 140.54C27.9426 142.788 25.9736 144.242 22.826 144.256Z" fill="#F7D046"/>
<path d="M47.3451 125.984C48.263 125.894 49.1863 126.091 49.9885 126.549C50.4727 126.854 50.8803 127.268 51.1797 127.758C51.4791 128.247 51.6622 128.8 51.7147 129.373C51.7673 129.945 51.6878 130.522 51.4826 131.059C51.2774 131.595 50.9519 132.077 50.5315 132.467C48.8786 133.985 45.1612 133.925 43.6336 132.281C43.1235 131.787 42.7753 131.148 42.6357 130.45C42.496 129.752 42.5715 129.027 42.8519 128.373C43.5203 126.687 44.7733 125.984 47.3451 125.984Z" fill="#F7D046"/>
<path d="M56.3223 177.474C54.5701 177.395 52.8763 176.822 51.4368 175.822C50.815 175.363 50.3671 174.707 50.1655 173.962C49.964 173.217 50.0208 172.426 50.3268 171.717C50.91 170.233 52.4277 169.088 53.8764 169.307C55.6815 169.482 57.3882 170.21 58.7619 171.391C59.9221 172.468 60.3611 173.751 59.7842 175.221C59.5497 175.933 59.0789 176.545 58.4496 176.954C57.8204 177.364 57.07 177.547 56.3223 177.474V177.474Z" fill="#F7D046"/>
<path d="M37.6545 121.526C37.6545 119.114 39.5164 117.558 42.3534 117.582C44.9084 117.611 46.7762 119.29 46.6999 121.503C46.6353 123.387 43.7631 125.377 41.2609 125.289C40.7734 125.29 40.2907 125.193 39.8421 125.002C39.3935 124.812 38.9883 124.532 38.6511 124.18C38.3139 123.828 38.0517 123.412 37.8804 122.955C37.7091 122.499 37.6322 122.013 37.6545 121.526V121.526Z" fill="#F7D046"/>
<path d="M52.5115 205.781C52.4916 206.423 52.3342 207.053 52.05 207.628C51.7657 208.204 51.3613 208.71 50.8643 209.114C50.3673 209.518 49.7895 209.809 49.1703 209.968C48.5511 210.127 47.905 210.15 47.2762 210.035C45.9941 209.801 44.7278 209.487 43.4844 209.096C42.9464 208.916 42.4554 208.618 42.0476 208.222C41.6398 207.827 41.3256 207.345 41.1282 206.811C40.9307 206.277 40.8552 205.705 40.907 205.138C40.9588 204.571 41.1368 204.023 41.4277 203.534C42.7439 201.28 45.5336 200.303 48.4654 201.115C50.9484 201.806 52.5638 203.655 52.5115 205.781Z" fill="#F7D046"/>
<path d="M35.1273 163.583C35.0424 163.583 34.795 163.633 34.5545 163.64C32.207 163.704 30.3544 162.361 30.0362 160.382C29.8494 159.33 30.0526 158.245 30.6068 157.334C31.1611 156.424 32.0277 155.751 33.0414 155.445C36.7748 154.08 40.5366 156.295 40.4517 159.803C40.381 162.454 38.691 163.69 35.1273 163.583Z" fill="#F7D046"/>
<path d="M20.2904 221.94C20.2055 221.94 19.958 221.99 19.7176 221.998C17.3701 222.062 15.5175 220.719 15.1993 218.739C15.0125 217.687 15.2156 216.602 15.7699 215.692C16.3242 214.781 17.1908 214.108 18.2045 213.802C21.9379 212.438 25.6997 214.652 25.6148 218.161C25.5441 220.812 23.8541 222.048 20.2904 221.94Z" fill="#F7D046"/>
<path d="M35.1811 137.757C35.1096 137.757 34.9011 137.8 34.6926 137.806C32.7208 137.855 31.1601 136.71 30.892 135.014C30.7333 134.112 30.9039 133.181 31.371 132.4C31.8381 131.62 32.5691 131.043 33.4238 130.782C36.5631 129.612 39.7382 131.511 39.6607 134.518C39.6071 136.814 38.1834 137.88 35.1811 137.757Z" fill="#F7D046"/>
<path d="M47.6998 156.65C47.6998 154.274 49.2736 152.814 51.7526 152.862C55.2691 152.924 57.2606 154.426 57.2676 156.994C57.2676 159.315 55.4989 160.926 52.992 160.871C49.3571 160.823 47.6581 159.459 47.6998 156.65Z" fill="#F7D046"/>
<path d="M8.19414 171.099C4.98813 171.099 2.80734 168.993 2.78997 165.856C2.76041 165.119 2.88282 164.384 3.14922 163.698C3.41561 163.013 3.82003 162.392 4.33623 161.877C4.85244 161.361 5.46888 160.963 6.1455 160.707C6.82212 160.451 7.5438 160.344 8.26366 160.392C8.96721 160.371 9.66752 160.496 10.3224 160.76C10.9772 161.024 11.5731 161.421 12.074 161.926C12.5749 162.432 12.9705 163.036 13.237 163.703C13.5035 164.369 13.6352 165.083 13.6244 165.803C13.6315 166.523 13.494 167.236 13.2203 167.899C12.9466 168.562 12.5427 169.16 12.0335 169.657C11.5243 170.154 10.9207 170.538 10.2603 170.786C9.59984 171.034 8.89657 171.141 8.19414 171.099V171.099Z" fill="#F7D046"/>
<path d="M20.4017 156.158C17.8989 156.192 16.1347 154.525 16.1142 152.101C16.094 151.538 16.19 150.978 16.396 150.455C16.602 149.933 16.9135 149.46 17.3103 149.068C17.7072 148.675 18.1806 148.371 18.7001 148.176C19.2196 147.98 19.7736 147.897 20.3265 147.933C20.8702 147.905 21.4137 147.99 21.9244 148.181C22.4352 148.373 22.9026 148.667 23.2986 149.046C23.6946 149.426 24.0112 149.882 24.2292 150.389C24.4472 150.896 24.5621 151.442 24.5672 151.995C24.5723 152.548 24.4673 153.096 24.2587 153.607C24.05 154.118 23.7419 154.58 23.3529 154.967C22.9639 155.354 22.5019 155.657 21.9948 155.858C21.4877 156.059 20.9458 156.154 20.4017 156.137L20.4017 156.158Z" fill="#F7D046"/>
<path d="M28.232 205.861C27.2629 205.769 26.3018 205.608 25.3562 205.38C24.1677 205.095 23.1274 204.39 22.4343 203.399C21.7411 202.407 21.4435 201.2 21.5985 200.006C21.8085 198.735 22.4966 197.587 23.5263 196.791C24.5561 195.995 25.8524 195.608 27.1584 195.707C28.999 195.827 30.7794 196.401 32.3348 197.376C34.3575 198.63 34.7506 200.525 34.1562 202.684C33.6673 204.692 31.7501 205.823 28.232 205.861Z" fill="#F7D046"/>
<path d="M36.003 221.007C34.9354 220.964 33.904 220.609 33.0368 219.985C32.1696 219.361 31.5049 218.496 31.1252 217.497C30.7455 216.498 30.6675 215.41 30.9011 214.368C31.1346 213.325 31.6693 212.374 32.4388 211.633C33.2082 210.892 34.1785 210.393 35.229 210.198C36.2796 210.004 37.3641 210.123 38.3478 210.539C39.3315 210.956 40.1711 211.653 40.7623 212.543C41.3534 213.433 41.6701 214.477 41.6728 215.545C41.6734 216.28 41.5255 217.008 41.2381 217.685C40.9507 218.361 40.5297 218.973 40.0003 219.483C39.4708 219.993 38.8439 220.391 38.157 220.653C37.4702 220.915 36.7375 221.035 36.003 221.007Z" fill="#F7D046"/>
<path d="M56.7412 196.105C55.6737 196.062 54.6423 195.707 53.7751 195.082C52.9079 194.458 52.2432 193.593 51.8635 192.595C51.4838 191.596 51.4058 190.508 51.6394 189.465C51.8729 188.423 52.4076 187.472 53.1771 186.731C53.9465 185.989 54.9168 185.491 55.9673 185.296C57.0179 185.102 58.1024 185.22 59.0861 185.637C60.0698 186.054 60.9094 186.75 61.5005 187.64C62.0917 188.53 62.4083 189.574 62.4111 190.643C62.4117 191.378 62.2638 192.106 61.9764 192.782C61.689 193.459 61.268 194.07 60.7385 194.58C60.2091 195.09 59.5822 195.488 58.8953 195.75C58.2085 196.012 57.4758 196.133 56.7412 196.105Z" fill="#F7D046"/>
<path d="M11.7539 211.285C10.6864 211.242 9.65498 210.887 8.78778 210.263C7.92058 209.639 7.25585 208.774 6.87615 207.775C6.49645 206.776 6.41851 205.688 6.65205 204.645C6.8856 203.603 7.42032 202.652 8.18976 201.911C8.95921 201.169 9.92948 200.671 10.98 200.476C12.0306 200.282 13.1151 200.4 14.0988 200.817C15.0825 201.234 15.9221 201.931 16.5132 202.821C17.1044 203.711 17.421 204.755 17.4238 205.823C17.4244 206.558 17.2765 207.286 16.9891 207.962C16.7017 208.639 16.2807 209.251 15.7512 209.761C15.2218 210.271 14.5949 210.669 13.908 210.93C13.2212 211.192 12.4885 211.313 11.7539 211.285Z" fill="#F7D046"/>
<path d="M9.04188 123.29C9.7617 123.265 10.4792 123.384 11.1523 123.638C11.8254 123.892 12.4405 124.277 12.9617 124.77C13.4828 125.263 13.8994 125.855 14.187 126.51C14.4747 127.165 14.6276 127.87 14.6367 128.585C14.6331 130.027 14.0705 131.413 13.0655 132.456C12.0604 133.498 10.6899 134.118 9.23729 134.186C7.68483 134.245 6.1706 133.7 5.01774 132.667C3.86487 131.633 3.16466 130.194 3.06652 128.656C3.00481 125.891 5.83308 123.331 9.04188 123.29Z" fill="#F7D046"/>
<path d="M10.6807 149.851C10.6489 151.255 10.0842 152.591 9.10488 153.58C8.12555 154.569 6.80757 155.135 5.42702 155.159C4.04646 155.182 2.71045 154.662 1.6989 153.707C0.687355 152.752 0.0787531 151.435 0.000557952 150.034C-0.0493956 146.317 1.7889 144.276 5.2457 144.256C8.70249 144.236 10.6607 146.165 10.6807 149.851Z" fill="#F7D046"/>
</svg>
