<svg width="198" height="198" viewBox="0 0 198 198" fill="none" xmlns="http://www.w3.org/2000/svg">
<path d="M154.083 36.78C156.019 35.5203 157.951 34.255 159.91 33.0175C160.814 32.4459 161.824 31.9464 162.59 33.1452C163.356 34.344 162.624 35.0877 161.775 35.7814L154 42.1023C153.75 42.1777 153.511 42.286 153.289 42.4241C130.913 61.004 111.079 81.8926 95.6738 106.7C83.5447 126.16 74.2506 147.25 68.0715 169.333C64.7309 178.402 62.9997 187.947 59.9588 197.138C59.8863 187.642 62.289 178.546 64.0257 169.35C69.769 148.389 77.7433 128.349 88.7922 109.585C105.468 81.2875 126.501 56.8914 153.239 37.5902C153.539 37.3404 153.821 37.0696 154.083 36.78Z" fill="black"/>
<path d="M152.567 17.8829C153.694 17.5555 154.909 17.1283 155.542 18.5823C156.052 19.7367 155.231 20.4914 154.415 21.1629L151.763 23.3828C142.683 28.8212 134.514 35.5139 126.562 42.3898C94.5016 70.1098 70.156 103.557 52.9808 142.278C51.7489 145.041 51.0719 148.138 48.9686 150.574C47.4257 149.154 48.5301 147.916 48.9019 146.856C58.161 121.189 71.534 97.1985 88.4969 75.8258C106.49 53.0896 128.143 33.5076 152.567 17.8829V17.8829Z" fill="black"/>
<path d="M45.1211 111.332C44.4773 109.755 45.2875 108.723 45.7426 107.713C52.9289 91.5507 62.5444 76.5824 74.2557 63.327C86.0096 50.0191 99.6894 39.3363 114.973 30.5238C116.322 29.7524 117.981 28.4039 119.069 30.1022C120.268 31.978 118.181 32.6217 116.849 33.4319C100.084 43.5375 85.5714 56.3847 72.6188 70.9024C62.5574 82.1736 54.4164 94.8768 47.5796 108.396C47.0246 109.428 46.8748 110.865 45.1211 111.332Z" fill="black"/>
</svg>
