<svg width="131" height="111" viewBox="0 0 131 111" fill="none" xmlns="http://www.w3.org/2000/svg">
<path d="M48.6512 83.2499C50.6817 83.0625 52.717 83.5552 54.4325 84.6494C55.6692 85.5389 56.6078 86.7769 57.1264 88.2027C57.6451 89.6284 57.7198 91.176 57.3408 92.6445C57.2174 93.3792 57.0764 94.1315 56.9354 94.8663C53.9919 99.9222 48.9508 101.497 44.7206 98.6276C43.4118 97.8309 42.3681 96.6696 41.7193 95.2885C41.0706 93.9073 40.8454 92.3672 41.072 90.86C41.2676 89.2973 41.8923 87.8181 42.8777 86.5839C43.8631 85.3498 45.1713 84.4082 46.6595 83.8622C47.3104 83.6187 47.9755 83.4142 48.6512 83.2499V83.2499Z" fill="#F7D046"/>
<path d="M31.023 94.846C30.0924 94.8601 29.1684 94.6902 28.3046 94.3463C27.4408 94.0024 26.6545 93.4913 25.9915 92.8427C25.3285 92.1942 24.802 91.4211 24.4427 90.5686C24.0833 89.7161 23.8983 88.8011 23.8984 87.8769C23.8984 83.8617 27.7457 79.6519 31.4148 79.6342C32.3766 79.5718 33.3409 79.7103 34.2454 80.0409C35.1499 80.3715 35.9745 80.8868 36.666 81.5536C37.3576 82.2203 37.9006 83.0237 38.2601 83.9118C38.6196 84.7998 38.7875 85.7529 38.7531 86.7095C38.5394 90.5478 35.5827 95.0052 31.023 94.846Z" fill="#F7D046"/>
<path d="M14.982 100.014C14.8809 101.978 14.0179 103.823 12.5798 105.15C11.1416 106.477 9.24394 107.179 7.29728 107.104C6.40008 107.104 5.48337 106.907 4.58617 106.749C3.82736 106.62 3.10382 106.332 2.46234 105.902C1.82085 105.473 1.27567 104.913 0.862064 104.258C0.448455 103.602 0.175614 102.867 0.0611695 102.099C-0.0532749 101.33 -0.00677348 100.546 0.19767 99.797C0.431035 98.7062 0.879565 97.674 1.51651 96.762C2.15345 95.85 2.96577 95.0768 3.905 94.4887C4.84424 93.9005 5.89116 93.5094 6.98332 93.3386C8.07549 93.1678 9.19054 93.2209 10.262 93.4946C11.6441 93.9145 12.8528 94.7783 13.7047 95.9548C14.5566 97.1313 15.005 98.5564 14.982 100.014V100.014Z" fill="#F7D046"/>
<path d="M14.4951 86.6536C13.5214 84.4475 13.2518 81.9942 13.7231 79.629C13.9231 78.5389 14.4614 77.5396 15.2615 76.7735C16.0616 76.0073 17.0827 75.5132 18.1795 75.3615C20.7761 74.9751 22.5306 76.0639 23.8991 78.8738C24.8114 82.0173 23.0043 84.5111 21.6007 86.8995C20.1972 89.2879 17.1093 88.9366 14.4951 86.6536Z" fill="#F7D046"/>
<path d="M32.4423 103.805C32.4277 105.514 31.7573 107.15 30.5729 108.367C29.3886 109.584 27.783 110.288 26.0957 110.328C25.2444 110.335 24.4002 110.172 23.6112 109.848C22.8223 109.524 22.1041 109.046 21.4976 108.441C20.8912 107.836 20.4083 107.116 20.0767 106.323C19.745 105.529 19.571 104.677 19.5646 103.815C19.5583 102.953 19.7196 102.098 20.0395 101.3C20.3594 100.501 20.8316 99.774 21.429 99.16C22.0265 98.5461 22.7375 98.0572 23.5216 97.7215C24.3056 97.3857 25.1473 97.2096 25.9986 97.2031C27.7147 97.2238 29.3535 97.9285 30.5598 99.1644C31.766 100.4 32.4424 102.068 32.4423 103.805Z" fill="#F7D046"/>
<path d="M83.2104 93.468C83.1896 95.2914 82.4717 97.0353 81.2081 98.3325C79.9445 99.6296 78.2338 100.379 76.4364 100.422C74.607 100.442 72.8448 99.7231 71.5377 98.4248C70.2305 97.1266 69.4854 95.3549 69.4662 93.4994C69.447 91.644 70.1554 89.8568 71.4355 88.5311C72.7155 87.2053 74.4624 86.4496 76.2919 86.4302C78.127 86.4412 79.8836 87.1869 81.1793 88.505C82.475 89.823 83.205 91.6068 83.2104 93.468Z" fill="#F7D046"/>
<path d="M47.0674 71.4465C46.0278 71.459 44.9961 71.2648 44.0323 70.875C43.0684 70.4853 42.1916 69.9078 41.453 69.1762C40.7143 68.4446 40.1284 67.5734 39.7294 66.6133C39.3305 65.6533 39.1263 64.6235 39.1289 63.5838C39.1289 61.4985 39.9573 59.4986 41.4319 58.0241C42.9064 56.5496 44.9063 55.7212 46.9916 55.7212C49.077 55.7212 51.0769 56.5496 52.5514 58.0241C54.026 59.4986 54.8544 61.4985 54.8544 63.5838C54.8644 64.6128 54.6704 65.6335 54.2835 66.587C53.8967 67.5405 53.3247 68.4079 52.6006 69.139C51.8765 69.8701 51.0147 70.4505 50.065 70.8466C49.1152 71.2426 48.0964 71.4465 47.0674 71.4465Z" fill="#F7D046"/>
<path d="M55.9693 70.0965C56.0039 68.7577 56.4361 67.4596 57.2109 66.3672C57.9856 65.2748 59.0679 64.4376 60.32 63.9622C61.5721 63.4867 62.9373 63.3944 64.242 63.6971C65.5467 63.9998 66.7318 64.6838 67.6465 65.662C68.5612 66.6403 69.1642 67.8685 69.3786 69.1904C69.5931 70.5123 69.4094 71.8681 68.8508 73.0852C68.2923 74.3024 67.3842 75.3259 66.2421 76.0255C65.1 76.725 63.7756 77.069 62.4374 77.0137C60.6752 76.9171 59.0185 76.1436 57.8132 74.8546C56.6079 73.5656 55.9473 71.8609 55.9693 70.0965V70.0965Z" fill="#F7D046"/>
<path d="M26.1343 60.1925C26.0742 58.9823 26.3838 57.7826 27.0214 56.7542C27.6591 55.7258 28.5945 54.9177 29.7022 54.4384C30.7837 54.0651 31.9491 54.0106 33.0605 54.2814C34.1719 54.5521 35.1829 55.1369 35.9741 55.9665C36.7522 56.8311 37.2384 57.9206 37.3631 59.0794C37.4879 60.2382 37.2449 61.4069 36.6689 62.4187C35.8955 63.7206 34.9686 64.9241 33.9085 66.0032C33.4351 66.5415 32.8268 66.9425 32.1468 67.1645C31.4668 67.3865 30.74 67.4212 30.0421 67.2652C29.3442 67.1092 28.7006 66.768 28.1785 66.2773C27.6564 65.7866 27.2747 65.1643 27.0732 64.475C26.6677 63.0696 26.354 61.6391 26.1343 60.1925V60.1925Z" fill="#F7D046"/>
<path d="M65.1546 24.3094C66.8961 24.1308 68.6454 24.563 70.1102 25.5339C71.1718 26.3107 71.9776 27.3938 72.4223 28.6416C72.867 29.8895 72.93 31.2442 72.6031 32.5289C72.4973 33.1718 72.3764 33.8147 72.2556 34.4575C69.7325 38.8811 65.4114 40.274 61.7854 37.7637C60.6594 37.0702 59.7605 36.0553 59.2015 34.8463C58.6424 33.6374 58.4481 32.2881 58.6428 30.9677C58.8108 29.6028 59.3446 28.3105 60.1863 27.2312C61.0279 26.1518 62.1453 25.3266 63.4171 24.8452C63.981 24.6192 64.5621 24.44 65.1546 24.3094Z" fill="#F7D046"/>
<path d="M50.026 34.2954C49.2486 34.3117 48.4759 34.1682 47.7534 33.8733C47.031 33.5784 46.3734 33.1381 45.8194 32.5784C45.2654 32.0187 44.8263 31.3509 44.5279 30.6144C44.2296 29.8779 44.078 29.0875 44.0821 28.2899C44.0821 24.8299 47.2918 21.2022 50.353 21.187C51.1547 21.133 51.9585 21.2524 52.7124 21.5374C53.4663 21.8224 54.1534 22.2667 54.7292 22.8415C55.305 23.4163 55.7566 24.1088 56.0548 24.8741C56.3531 25.6394 56.4912 26.4604 56.4603 27.2839C56.3117 30.5915 53.845 34.4479 50.026 34.2954Z" fill="#F7D046"/>
<path d="M17.431 69.7551C16.903 71.26 15.8013 72.4951 14.3658 73.1917C12.9302 73.8883 11.2771 73.9899 9.76625 73.4744C9.06845 73.2087 8.38521 72.9063 7.71944 72.5684C7.15345 72.2916 6.65183 71.8992 6.24699 71.4166C5.84215 70.9341 5.54312 70.3721 5.36921 69.7669C5.19531 69.1618 5.1504 68.527 5.23739 67.9036C5.32438 67.2801 5.54134 66.682 5.87424 66.1477C6.30581 65.3495 6.89481 64.6471 7.60569 64.0827C8.31656 63.5184 9.13458 63.1039 10.0104 62.8642C10.8862 62.6245 11.8016 62.5647 12.7013 62.6882C13.6011 62.8118 14.4666 63.1162 15.2456 63.5831C16.2307 64.2359 16.9767 65.1912 17.3709 66.3046C17.7652 67.418 17.7862 68.6291 17.431 69.7551V69.7551Z" fill="#F7D046"/>
<path d="M10.1868 54.7415C9.90187 52.566 10.3003 50.356 11.3271 48.4173C11.7814 47.515 12.5095 46.7794 13.4076 46.3156C14.3056 45.8519 15.3276 45.6837 16.3275 45.8351C18.6913 46.1857 19.9429 47.5892 20.4171 50.3779C20.3164 53.3627 18.0843 55.0997 16.241 56.8186C14.3977 58.5375 11.7726 57.4932 10.1868 54.7415Z" fill="#F7D046"/>
<path d="M50.0257 47.7722C50.0067 49.4019 49.3552 50.9605 48.2086 52.12C47.0619 53.2794 45.5095 53.949 43.8784 53.9878C42.2998 53.8833 40.819 53.1875 39.7319 52.0394C38.6448 50.8913 38.0316 49.3757 38.015 47.7955C37.9984 46.2153 38.5795 44.6871 39.6422 43.5165C40.7049 42.3459 42.1708 41.6191 43.7468 41.4814C45.4123 41.4913 47.0064 42.1579 48.1823 43.336C49.3583 44.5142 50.0208 46.1085 50.0257 47.7722Z" fill="#F7D046"/>
<path d="M60.4862 19.4405C59.6669 19.4485 58.8542 19.2908 58.0951 18.9765C57.3361 18.6621 56.6459 18.1975 56.0644 17.6094C55.483 17.0212 55.0219 16.3214 54.708 15.5504C54.394 14.7794 54.2334 13.9526 54.2354 13.1179C54.2354 11.4451 54.8876 9.84079 56.0487 8.65793C57.2098 7.47507 58.7845 6.81055 60.4265 6.81055C62.0685 6.81055 63.6432 7.47507 64.8043 8.65793C65.9653 9.84079 66.6176 11.4451 66.6176 13.1179C66.6255 13.944 66.4728 14.7636 66.1684 15.5293C65.864 16.2951 65.4138 16.9919 64.8439 17.5796C64.2739 18.1673 63.5954 18.6343 62.8475 18.9537C62.0996 19.273 61.2971 19.4385 60.4862 19.4405V19.4405Z" fill="#F7D046"/>
<path d="M71.5718 6.45339C71.6058 5.13922 72.0301 3.86488 72.7906 2.79255C73.5512 1.72021 74.6136 0.898375 75.8427 0.431622C77.0718 -0.0351309 78.412 -0.125691 79.6928 0.171467C80.9735 0.468625 82.1369 1.14007 83.0348 2.10033C83.9327 3.0606 84.5246 4.26628 84.7351 5.56392C84.9456 6.86156 84.7653 8.19249 84.217 9.38732C83.6687 10.5822 82.7773 11.5869 81.6561 12.2736C80.535 12.9603 79.2349 13.298 77.9213 13.2437C76.1914 13.1489 74.5651 12.3895 73.3819 11.1242C72.1987 9.8589 71.5502 8.18547 71.5718 6.45339V6.45339Z" fill="#F7D046"/>
<path d="M23.0713 40.1244C23.2701 39.1302 23.7813 38.2254 24.5316 37.5401C25.2818 36.8547 26.2326 36.424 27.2473 36.3097C28.2621 36.1954 29.2887 36.4034 30.1799 36.9038C31.0711 37.4043 31.7809 38.1715 32.2077 39.0953C32.6304 39.9885 32.7575 40.9906 32.5708 41.9573C32.3841 42.924 31.8932 43.8056 31.1686 44.4753C30.2395 45.3359 29.2105 46.0836 28.1031 46.7028C27.5836 47.0249 26.9861 47.2024 26.3726 47.2168C25.7592 47.2313 25.1523 47.0822 24.6151 46.7851C24.078 46.488 23.6302 46.0537 23.3184 45.5274C23.0066 45.0012 22.8421 44.4022 22.8422 43.7929C22.8431 42.5662 22.9196 41.3411 23.0713 40.1244V40.1244Z" fill="#F7D046"/>
<path d="M109.284 63.2818C111.317 64.5052 112.882 66.3873 113.725 68.6229C114.277 70.322 114.312 72.1493 113.827 73.869C113.342 75.5887 112.358 77.1217 111.003 78.2702L109.079 80.1127C102.939 82.8867 97.0038 80.8993 95.039 75.2476C94.3608 73.5796 94.1816 71.7468 94.5236 69.9767C94.8656 68.2066 95.7137 66.577 96.9628 65.2899C98.2258 63.9195 99.8367 62.9264 101.62 62.4189C103.403 61.9114 105.289 61.9092 107.073 62.4123C107.827 62.6556 108.565 62.9459 109.284 63.2818V63.2818Z" fill="#F7D046"/>
<path d="M84.6189 62.0384C82.8644 60.7645 81.6855 58.8577 81.3367 56.7297C80.988 54.6016 81.4974 52.4229 82.7549 50.6639C85.5509 46.9066 92.075 45.5926 95.5337 48.0769C96.4876 48.6647 97.3058 49.445 97.9351 50.3672C98.5644 51.2894 98.9907 52.3327 99.1861 53.429C99.3815 54.5254 99.3417 55.6503 99.0692 56.7304C98.7968 57.8106 98.2978 58.8216 97.6048 59.6978C94.6431 63.1266 88.8026 65.303 84.6189 62.0384Z" fill="#F7D046"/>
<path d="M73.5917 56.5427C72.4102 58.0059 70.708 58.9408 68.8519 59.146C66.9958 59.3511 65.1344 58.8102 63.6686 57.6397C63.0145 57.0723 62.3792 56.4481 61.7998 55.7483C61.2844 55.2118 60.8858 54.5719 60.6298 53.8698C60.3738 53.1678 60.2661 52.4192 60.3137 51.6724C60.3612 50.9256 60.563 50.1972 60.9059 49.5342C61.2487 48.8712 61.7252 48.2884 62.3044 47.8233C63.0981 47.1128 64.0249 46.571 65.0295 46.2302C66.0342 45.8894 67.0964 45.7565 68.1528 45.8394C69.2093 45.9223 70.2385 46.2194 71.1793 46.7129C72.12 47.2064 72.9531 47.8863 73.6291 48.7122C74.4695 49.8421 74.9208 51.2196 74.9141 52.6338C74.9073 54.048 74.4428 55.4211 73.5917 56.5427V56.5427Z" fill="#F7D046"/>
<path d="M76.5244 36.7719C77.0572 34.3132 78.2974 32.0783 80.0824 30.3606C80.8991 29.5622 81.9392 29.0506 83.0542 28.8988C84.1691 28.7471 85.3021 28.9629 86.2912 29.5155C88.6395 30.8015 89.4222 32.7855 88.853 36.0555C87.7144 39.3438 84.6901 40.2624 82.1639 41.4197C79.6377 42.5771 77.2538 40.3726 76.5244 36.7719Z" fill="#F7D046"/>
<path d="M82.7148 20.5661C83.2495 18.097 84.5298 15.8537 86.3811 14.1423C87.2227 13.3424 88.2944 12.8298 89.4433 12.6777C90.5922 12.5257 91.7596 12.7419 92.7788 13.2956C95.1986 14.5656 96.0051 16.5719 95.4002 19.8483C94.227 23.0694 91.1656 24.0633 88.5076 25.2045C85.8495 26.3457 83.4848 24.1554 82.7148 20.5661Z" fill="#F7D046"/>
<path d="M89.7517 78.7873C88.6681 80.2457 87.0638 81.2228 85.2779 81.5121C83.492 81.8013 81.6644 81.3802 80.1812 80.3376C78.6775 79.2541 77.6629 77.6136 77.3605 75.7768C77.0581 73.9401 77.4927 72.0577 78.5687 70.5436C79.6447 69.0296 81.274 68.0079 83.0981 67.7034C84.9222 67.3989 86.7917 67.8366 88.2953 68.92C89.036 69.4704 89.6614 70.1626 90.1357 70.957C90.61 71.7514 90.9238 72.6322 91.0591 73.549C91.1944 74.4658 91.1486 75.4005 90.9242 76.2995C90.6999 77.1984 90.3014 78.0438 89.7517 78.7873V78.7873Z" fill="#F7D046"/>
<path d="M108.062 54.3396C107.147 53.6876 106.371 52.8598 105.779 51.9045C105.187 50.9492 104.791 49.8855 104.614 48.7754C104.438 47.6654 104.483 46.5312 104.749 45.439C105.014 44.3468 105.495 43.3184 106.161 42.4139C107.53 40.6073 109.555 39.4137 111.798 39.0921C114.04 38.7704 116.319 39.3466 118.14 40.6956C119.908 42.0511 121.075 44.0471 121.388 46.2543C121.702 48.4615 121.137 50.7037 119.816 52.4986C119.168 53.3952 118.348 54.1545 117.405 54.7328C116.463 55.3111 115.415 55.697 114.322 55.8681C113.23 56.0392 112.114 55.9923 111.04 55.7299C109.965 55.4676 108.953 54.9951 108.062 54.3396V54.3396Z" fill="#F7D046"/>
<path d="M116.796 58.8823C117.703 57.7102 118.942 56.8321 120.355 56.3598C121.768 55.8875 123.291 55.8425 124.73 56.2306C126.169 56.6186 127.459 57.4221 128.435 58.5386C129.411 59.655 130.028 61.0338 130.209 62.499C130.39 63.9643 130.125 65.4496 129.449 66.7654C128.773 68.0813 127.717 69.1681 126.414 69.8871C125.111 70.6062 123.622 70.925 122.135 70.8028C120.649 70.6806 119.233 70.123 118.068 69.201C116.553 67.9751 115.574 66.2173 115.337 64.2946C115.1 62.3718 115.623 60.4328 116.796 58.8823V58.8823Z" fill="#F7D046"/>
<path d="M95.7957 26.0616C96.4484 25.0974 97.3922 24.3513 98.4986 23.9248C99.605 23.4983 100.82 23.4122 101.979 23.6781C103.056 23.9979 104.016 24.6103 104.745 25.4425C105.473 26.2748 105.94 27.292 106.089 28.3733C106.209 29.4863 105.959 30.6074 105.377 31.574C104.794 32.5406 103.909 33.3026 102.849 33.7495C101.508 34.308 100.104 34.711 98.6652 34.9502C97.9759 35.0998 97.2577 35.0674 96.5858 34.8563C95.9139 34.6453 95.3128 34.2635 94.8455 33.7507C94.3782 33.2379 94.0618 32.613 93.9293 31.9413C93.7969 31.2696 93.8532 30.5758 94.0925 29.9324C94.5796 28.6102 95.1483 27.3176 95.7957 26.0616Z" fill="#F7D046"/>
</svg>
