<svg width="159" height="150" viewBox="0 0 159 150" fill="none" xmlns="http://www.w3.org/2000/svg">
<path d="M151.779 75.7877C152.9 77.7284 154.122 79.6165 155.141 81.6097C156.841 85.035 156.294 87.0885 153.034 89.638C151.957 90.4012 150.812 91.0625 149.613 91.6133C148.199 92.3289 146.759 92.9899 145.314 93.6293C144.716 93.9073 144.086 94.1103 143.439 94.2335C142.232 94.4456 141.211 94.1285 140.587 92.9715C140.058 92.0555 139.532 91.1441 139.064 90.1926C137.144 86.5168 135.303 82.7945 133.29 79.1657C130.82 74.7241 128.357 70.2722 125.61 65.9719C121.603 59.8377 116.984 54.1261 111.823 48.9248C109.623 46.6633 107.518 44.3276 104.89 42.4827C100.503 39.4218 95.5873 37.1972 90.3906 35.9207C83.9602 34.2232 77.1424 34.7569 71.0518 37.4345C60.9986 41.7719 53.432 48.8665 49.0431 59.075C46.0563 65.9445 44.676 73.4035 45.007 80.8843C45.4718 92.4683 47.4369 103.942 50.8531 115.019C52.3125 119.729 53.8894 124.403 55.5069 129.06C56.1951 131.049 57.1253 132.955 57.9142 134.91C58.3915 136.108 58.196 136.97 57.1304 137.667C54.6462 139.29 52.1444 140.905 49.2769 141.798C47.8536 142.236 47.187 142.042 46.3244 140.941C43.4843 137.298 40.7601 133.551 38.6995 129.415C36.9897 125.995 35.4831 122.458 34.0962 118.921C32.7804 115.55 31.6079 112.122 30.5603 108.66C28.8262 102.95 28.358 97.0316 28.0386 91.1091C27.3021 77.3815 30.1711 64.3549 35.9118 51.9369C38.7245 45.8179 42.9495 40.4527 48.2395 36.2824C52.5865 32.822 56.9555 29.4434 61.8908 26.871C72.7817 21.2127 84.043 20.0372 95.7596 23.9502C105.471 27.1951 113.929 32.58 121.797 38.9926C126.736 42.9408 131.317 47.318 135.485 52.073C138.279 55.3078 140.859 58.7289 143.427 62.1507C145.162 64.4672 146.766 66.8966 148.322 69.3411C149.628 71.3952 150.759 73.5625 151.978 75.6731L151.779 75.7877Z" fill="#EA552B"/>
<path d="M59.9169 125.72C56.143 119.784 54.0093 112.989 51.9498 106.169C50.1689 100.443 49.1504 94.5075 48.9208 88.5147C48.5794 77.5557 50.89 67.2943 57.1495 58.1212C65.692 45.6343 80.7176 40.6549 94.3427 45.1344C99.1697 46.7642 103.566 49.4619 107.204 53.0266C113.497 58.9655 118.645 66.0103 122.391 73.8103C125.059 79.4029 127.618 85.0462 130.229 90.6594C130.838 91.9761 131.473 93.284 132.003 94.6275C132.533 95.971 132.161 97.0172 130.93 97.8537C127.951 99.8756 124.601 101.079 121.289 102.425C119.857 103 118.68 102.414 117.754 101.356C116.934 100.408 116.182 99.4033 115.502 98.3497C111.352 92.0012 107.314 85.575 103.065 79.296C99.9678 74.7065 96.5772 70.318 91.8594 67.1993C89.7627 65.816 87.613 64.5262 85.1138 63.9734C79.5281 62.7346 75.1617 64.7645 71.6796 69.0791C69.1158 72.2397 67.7424 76.1987 67.7988 80.2659C67.7468 88.1139 68.8382 95.9268 71.0387 103.459C72.7483 109.126 74.8492 114.675 76.7386 120.283C77.1656 121.386 77.4559 122.538 77.6032 123.712C77.6762 124.551 77.4432 125.387 76.9471 126.068C74.4688 128.813 71.4824 131.052 68.1529 132.662C67.4546 133.066 66.6349 133.206 65.8426 133.057C65.0503 132.908 64.3378 132.48 63.8344 131.851C63.3 131.269 62.8191 130.641 62.3975 129.973C61.557 128.626 60.7975 127.245 59.9169 125.72Z" fill="#F7D046"/>
<path d="M85.4864 85.3532C84.6454 86.5376 84.8493 87.742 84.9231 88.8956C85.2352 93.7142 86.3715 98.378 87.5877 103.027C88.5647 106.782 89.5417 110.537 90.468 114.302C90.9333 116.199 90.5954 116.967 89.0038 117.943C87.7814 118.734 86.5196 119.462 85.2233 120.125C83.3635 121.029 81.5956 120.281 80.9508 118.324C78.3025 110.321 75.9117 102.251 74.7756 93.8665C74.1253 89.0731 73.9155 84.2899 74.8005 79.5041C75.036 78.1418 75.48 76.8237 76.1168 75.5962C77.5265 73.0069 80.0721 72.4942 82.7395 72.4652C86.4043 72.4395 89.4889 73.9953 92.3264 76.1598C94.9697 78.1845 97.0421 80.7591 99.0173 83.3836C104.113 90.1246 107.517 97.7666 110.426 105.644C111.159 107.632 110.844 108.55 108.948 109.5C107.177 110.384 105.334 111.108 103.512 111.871C102.996 112.115 102.412 112.172 101.859 112.031C101.306 111.891 100.82 111.561 100.484 111.101C99.9379 110.438 99.4787 109.709 99.1176 108.93C97.5405 105.522 96.0491 102.077 94.4578 98.6768C92.8665 95.2766 91.3453 91.9871 89.6138 88.7371C89.2165 87.9048 88.6408 87.1702 87.9275 86.5853C87.2142 86.0005 86.3808 85.5799 85.4864 85.3532V85.3532Z" fill="#FF90E7"/>
</svg>
