<svg width="27" height="114" viewBox="0 0 27 114" fill="none" xmlns="http://www.w3.org/2000/svg">
<path d="M2.27402 1.65419C6.10043 5.53 10.0801 9.60458 10.8365 13.9673C11.2014 15.9585 10.6952 17.9657 9.35335 19.8481C8.07294 21.6146 6.32289 23.2792 4.74091 24.9786C3.15893 26.678 1.6956 28.4767 1.15674 30.3525C0.633369 32.198 1.06236 34.0802 2.40256 35.8184C5.02271 39.2644 10.3421 41.9874 13.0265 45.4185C14.4235 47.232 15.0214 49.1762 14.779 51.1171C14.5366 53.0579 13.4597 54.9493 11.6225 56.6608C9.64507 58.4745 7.03974 60.0994 5.62585 62.0572C4.28478 63.9001 3.77812 65.87 4.14274 67.8237C4.5026 69.739 5.71034 71.5895 7.67749 73.2398C9.48688 74.7579 11.9736 76.0151 14.4157 77.2747C16.6997 78.4524 19.1468 79.6722 20.6299 81.1579C22.3207 82.8474 22.3899 84.6362 21.416 86.4375C20.3778 88.3655 18.341 90.1493 16.5563 91.9207C14.6273 93.8089 13.0629 95.7857 11.8845 97.8239C9.59922 101.865 9.03325 106.103 10.2234 110.261C10.5378 111.325 10.962 112.38 11.494 113.422C11.8055 114.045 13.5259 114.105 14.4602 113.874C15.0209 113.743 15.471 113.516 15.7308 113.234C15.9905 112.952 16.0431 112.633 15.879 112.333C13.8995 108.309 13.7306 104.114 15.3847 100.052C16.1948 98.032 17.462 96.0649 19.1617 94.1891C20.8524 92.3208 22.9386 90.5468 24.4959 88.6487C26.0531 86.7505 27.1655 84.6735 26.5722 82.6164C26.0532 80.83 24.3674 79.2474 22.1229 77.856C19.8785 76.4647 17.3621 75.3219 15.0435 74.0299C12.631 72.6883 10.7178 71.2398 9.63023 69.5031C8.56143 67.7726 8.35602 65.9364 9.03206 64.1565C9.75384 62.2584 11.6769 60.6783 13.6939 59.0659C15.973 57.2497 17.8169 55.3963 18.7464 53.2894C19.6239 51.2933 19.7079 49.2298 18.9935 47.2173C18.2781 45.3206 16.9061 43.5016 14.9397 41.8433C13.1007 40.2458 10.9551 38.7452 9.11606 37.1502C7.37588 35.6396 5.89278 34.0047 5.59616 32.2457C5.29954 30.4867 6.2685 28.7476 7.57364 27.1252C10.5102 23.5252 14.8656 20.1959 15.4539 16.2158C16.1065 11.7884 13.1304 7.52004 9.52148 3.54485C8.60195 2.55106 7.63297 1.55726 6.65412 0.563464C5.37865 -0.730957 1.07269 0.449148 2.26412 1.65164L2.27402 1.65419Z" fill="black"/>
</svg>
