<svg width="86" height="85" viewBox="0 0 86 85" fill="none" xmlns="http://www.w3.org/2000/svg">
<path d="M48.176 3.11216C48.574 3.80946 48.497 4.59707 48.5242 5.33804C49.1148 17.5168 48.7504 29.7215 48.5981 41.9243C48.4311 54.7093 48.1717 67.4901 47.3807 80.2552C47.3551 80.6614 47.3489 81.0712 47.3106 81.4777C47.2055 82.6433 46.8013 83.5809 45.411 83.4775C44.0207 83.3742 43.6686 82.4231 43.7112 81.241C44.5522 61.1548 43.1118 41.0834 43.4127 21.0001C43.4808 15.6237 44.0044 10.2627 44.9779 4.97493C45.0619 4.34128 45.26 3.72813 45.5626 3.1652C46.2422 2.12635 47.5597 2.13078 48.176 3.11216Z" fill="black"/>
<path d="M35.2967 74.4098C35.0748 74.5792 34.8148 74.6918 34.5395 74.7377C34.2641 74.7836 33.9816 74.7615 33.7168 74.6732C33.4519 74.5849 33.2126 74.4331 33.0198 74.2312C32.8269 74.0292 32.6864 73.7831 32.6105 73.5144C32.4659 72.9491 32.4051 72.3657 32.4299 71.7827C32.3501 54.388 32.0794 36.989 32.5748 19.6053C32.6828 14.7557 33.3135 9.93197 34.4559 5.21785C34.6977 4.13238 35.1056 3.09079 35.6653 2.12993C35.9949 1.58977 36.447 1.25077 37.1099 1.37599C37.4036 1.42316 37.6712 1.57218 37.8661 1.79693C38.0609 2.02167 38.1704 2.3078 38.1754 2.60516C38.273 3.59156 38.309 4.58308 38.2833 5.57393C37.4907 25.059 37.4699 44.5553 36.5664 64.0404C36.4413 66.7224 36.3688 69.4064 36.271 72.0909C36.2432 72.9681 36.1199 73.8305 35.2967 74.4098Z" fill="black"/>
</svg>
