<svg width="114" height="123" viewBox="0 0 114 123" fill="none" xmlns="http://www.w3.org/2000/svg">
<path d="M0 59.6131C2.12806 32.7978 34.8766 4.16395 60.4265 0C76.2818 5.27082 55.6969 15.2723 49.3653 18.6983C34.2192 29.2399 5.3854 48.5442 17.2868 69.667C28.7021 84.1618 39.4082 111.175 62.055 98.7884C71.0796 93.7021 83.48 91.0139 90.521 83.8983C88.0383 54.3554 85.267 27.8563 52.8732 56.3714C38.9225 64.7125 36.1633 80.5908 56.5376 78.443C58.7182 77.4152 63.2371 75.5704 62.2519 72.3816C61.7255 69.877 61.3961 67.3347 61.2667 64.7784C61.5163 58.4929 71.0665 58.1899 71.9334 64.4753C77.4901 78.2322 65.1287 90.3683 51.3357 88.0887C26.5083 87.4298 26.6662 55.3963 43.7695 44.0114C85.5032 7.60319 111.342 35.7757 113.693 82.8704C117.884 106.813 78.0289 116.986 60.4002 122.402C48.4331 124.615 38.7123 120.623 31.1721 111.491C20.0064 95.7709 0.99835 79.4972 0 59.6131Z" fill="#FFC900"/>
</svg>
