<svg width="118" height="168" viewBox="0 0 118 168" fill="none" xmlns="http://www.w3.org/2000/svg">
<path d="M26.7196 104.747C25.3469 98.706 24.6375 92.5327 24.6038 86.3368C24.6136 81.6958 24.0445 77.0719 22.9095 72.5722C19.0881 58.2284 13.9111 44.281 7.44829 30.9185C5.26579 26.6996 3.31034 22.367 1.59039 17.9392C0.597579 15.2878 0.144307 12.4646 0.257072 9.63522C0.590302 2.78663 5.79532 -1.09118 12.5304 0.37825C15.0389 0.973487 17.4726 1.84836 19.7857 2.98647C33.21 9.16859 44.8838 18.2323 56.2635 27.5298C62.0702 32.2804 66.9868 37.9211 72.5295 42.9358C82.1163 51.7782 90.4661 61.8739 97.3531 72.9497C104.871 84.7219 111.822 96.713 115.251 110.462C116.706 116.443 118.093 122.25 116.681 128.383C116.542 129.273 116.509 130.177 116.582 131.075C116.736 136.017 115.482 140.901 112.967 145.158C105.769 157.272 95.1024 164.53 81.3067 167.241C80.0358 167.459 78.7495 167.575 77.46 167.588C72.9082 167.901 68.382 166.692 64.5933 164.152C61.1017 161.761 57.8816 158.949 54.5559 156.317C40.8385 141.923 31.2269 124.116 26.7196 104.747V104.747ZM31.9975 38.0261C32.7379 42.0673 33.7425 46.0556 35.0045 49.9652C36.9494 55.2747 39.4072 60.4031 41.7141 65.5918C45.5289 74.1291 47.722 83.1267 49.4323 92.2754C50.5248 98.1054 51.5795 103.943 52.8455 109.735C55.3097 120.981 61.0702 130.543 68.5355 139.095C70.3594 141.098 72.5088 142.778 74.8928 144.064C83.2865 148.776 92.7306 143.917 93.7508 134.255C93.9638 131.17 93.7307 128.071 93.0587 125.054C90.2824 110.293 84.0482 96.4011 74.8669 84.5167C65.7353 72.6844 56.8452 60.656 47.5855 48.9219C43.9283 44.284 39.5621 40.1893 35.4674 35.9136C34.4067 35.0291 33.2741 34.2346 32.0813 33.5384C31.9032 35.0278 31.8751 36.5313 31.9975 38.0261V38.0261Z" fill="#EA552B"/>
</svg>
