<svg width="118" height="169" viewBox="0 0 118 169" fill="none" xmlns="http://www.w3.org/2000/svg">
<g id="Eggplant" clip-path="url(#clip0_179_8249)">
<path id="Eggplant_2" d="M26.7196 105.747C25.3469 99.706 24.6375 93.5327 24.6038 87.3368C24.6136 82.6958 24.0445 78.0719 22.9095 73.5722C19.0881 59.2284 13.9111 45.281 7.44829 31.9185C5.26579 27.6996 3.31034 23.367 1.59039 18.9392C0.597579 16.2878 0.144307 13.4646 0.257072 10.6352C0.590302 3.78663 5.79532 -0.0911817 12.5304 1.37825C15.0389 1.97349 17.4726 2.84836 19.7857 3.98647C33.21 10.1686 44.8838 19.2323 56.2635 28.5298C62.0702 33.2804 66.9868 38.9211 72.5295 43.9358C82.1163 52.7782 90.4661 62.8739 97.3531 73.9497C104.871 85.7219 111.822 97.713 115.251 111.462C116.706 117.443 118.093 123.25 116.681 129.383C116.542 130.273 116.509 131.177 116.582 132.075C116.736 137.017 115.482 141.901 112.967 146.158C105.769 158.272 95.1024 165.53 81.3067 168.241C80.0358 168.459 78.7495 168.575 77.46 168.588C72.9082 168.901 68.382 167.692 64.5933 165.152C61.1017 162.761 57.8816 159.949 54.5559 157.317C40.8385 142.923 31.2269 125.116 26.7196 105.747V105.747ZM31.9975 39.0261C32.7379 43.0673 33.7425 47.0556 35.0045 50.9652C36.9494 56.2747 39.4072 61.4031 41.7141 66.5918C45.5289 75.1291 47.722 84.1267 49.4323 93.2754C50.5248 99.1054 51.5795 104.943 52.8455 110.735C55.3097 121.981 61.0702 131.543 68.5355 140.095C70.3594 142.098 72.5088 143.778 74.8928 145.064C83.2865 149.776 92.7306 144.917 93.7508 135.255C93.9638 132.17 93.7307 129.071 93.0587 126.054C90.2824 111.293 84.0482 97.4011 74.8669 85.5167C65.7353 73.6844 56.8452 61.656 47.5855 49.9219C43.9283 45.284 39.5621 41.1893 35.4674 36.9136C34.4067 36.0291 33.2741 35.2346 32.0813 34.5384C31.9032 36.0278 31.8751 37.5313 31.9975 39.0261V39.0261Z" fill="#EA552B"/>
</g>
<defs>
<clipPath id="clip0_179_8249">
<rect width="118" height="169" fill="white"/>
</clipPath>
</defs>
</svg>
