<svg width="126" height="120" viewBox="0 0 126 120" fill="none" xmlns="http://www.w3.org/2000/svg">
<g id="Leafs" clip-path="url(#clip0_179_8256)">
<g id="Leafdots">
<path id="Leaf" d="M77.396 41.0642C76.6879 38.8904 75.9929 36.7112 75.2765 34.5435C74.0087 30.6932 72.8795 26.7876 70.8412 23.2483C69.2333 20.4557 67.4841 17.7671 64.7552 15.8939C60.725 13.1295 56.8932 13.6446 53.6825 17.3116C50.9805 20.399 49.9482 24.0722 49.8041 28.0525C49.6028 33.7065 50.8568 39.1389 52.6375 44.4397C53.969 48.4055 55.6089 52.268 57.0936 56.1808C57.3787 56.9276 57.5963 57.6987 57.8476 58.4576C57.7357 58.5144 57.6245 58.5664 57.5154 58.6211C56.8241 57.3575 56.1458 56.0886 55.4359 54.8344C53.7126 51.7808 52.0875 48.6633 50.1906 45.7162C49.3579 44.4286 48.0714 43.3429 46.7971 42.436C43.1768 39.8395 38.6908 40.9046 36.4613 44.7846C34.8932 47.5154 34.5016 50.5333 34.6475 53.608C34.9547 59.9469 36.7354 65.8799 39.6323 71.5249C43.1639 78.4135 47.2927 84.9792 51.9713 91.1466C52.4889 91.8571 52.9698 92.5935 53.4124 93.353C54.1619 94.5737 54.1434 95.0359 53.1004 96.009C51.3424 97.641 49.5271 99.2126 47.7399 100.811C45.6066 102.728 43.4494 104.624 41.3624 106.592C40.8176 107.145 40.379 107.794 40.0683 108.506C39.2323 110.27 40.2209 111.99 42.1563 111.863C43.5293 111.777 44.8605 111.357 46.0341 110.639C48.7258 108.901 51.2559 106.914 53.8472 105.01C55.6445 103.686 57.4331 102.339 59.218 101.017C59.4949 100.813 59.7708 100.648 60.172 100.387C60.8838 101.353 61.5609 102.273 62.2581 103.173C67.1583 109.464 73.4659 114.517 80.6737 117.927C85.0504 119.997 89.6408 120.674 94.3782 119.249C97.0777 118.412 99.4818 116.821 101.307 114.663C103.862 111.752 104.007 108.186 101.918 104.71C99.7197 101.01 96.2644 98.2239 92.1826 96.8604C89.8676 96.0365 87.4243 95.5546 85.0777 94.7924C83.1276 94.1567 81.2271 93.3564 79.3145 92.6035C78.4954 92.2798 78.4189 91.6656 79.0324 91.1242C79.6459 90.5827 80.3451 89.9141 81.0898 89.7886C82.7426 89.4752 84.4285 89.3734 86.107 89.4854C89.7684 89.8177 93.4056 90.5521 97.0727 90.782C99.8678 90.9563 102.673 90.84 105.444 90.4349C108.941 89.923 111.815 88.0669 113.898 85.1583C117.342 80.3536 114.516 74.5373 110.452 72.6262C108.465 71.6478 106.222 71.3148 104.036 71.6739C101.106 72.166 98.1982 72.7993 95.2624 73.2611C93.7713 73.4972 92.2602 73.5825 90.752 73.5158C90.129 73.4876 89.2486 72.9997 88.9919 72.4712C88.5864 71.6421 89.0539 70.7169 89.8044 70.1643C90.4072 69.6782 91.1054 69.3242 91.8537 69.1251C95.254 68.4067 98.667 67.7444 102.093 67.1381C106.49 66.3521 110.853 65.497 114.909 63.5007C118.714 61.6261 121.953 59.1468 124.179 55.4408C125.127 53.8765 125.713 52.1198 125.894 50.2995C126.396 45.338 121.862 40.5611 116.701 41.0465C112.73 41.4077 109.178 42.8829 105.708 44.6779C102.978 46.086 100.304 47.5985 97.5566 48.972C96.5752 49.4221 95.5385 49.7403 94.4736 49.9182C93.3201 50.1439 92.7384 49.4873 93.2907 48.4741C94.0381 47.0853 94.9488 45.7909 96.0036 44.6184C98.7025 41.6485 101.709 38.9393 104.236 35.8351C108.91 30.0953 111.343 23.447 111.164 15.9714C111.075 12.3124 110.189 8.84733 108.121 5.71429C104.827 0.729618 99.3302 -1.35242 93.8265 0.940574C84.9993 4.61302 79.4992 11.0637 78.86 20.9314C78.5199 26.0896 78.5188 31.2674 78.3114 36.4261C78.2498 37.9665 77.9834 39.4954 77.8097 41.0286L77.396 41.0642Z" fill="#27DAB7"/>
<g id="Dots">
<path id="Vector" d="M23.4392 57.752C22.9468 57.1153 22.2279 56.7794 21.4218 56.8885C21.156 56.9234 20.9163 57.015 20.681 57.1196C20.6767 57.1196 20.6723 57.124 20.6636 57.124L20.5372 57.1414C20.3063 57.1981 20.1015 57.3028 19.9316 57.4598C19.6353 57.6866 19.3782 58.0137 19.2911 58.3888C19.2213 58.7028 19.2213 59.0255 19.2911 59.3396C19.3738 59.7015 19.6091 59.9938 19.8836 60.2293C19.8401 60.1944 19.7965 60.1595 19.7529 60.129C19.8226 60.1987 19.8749 60.2772 19.9403 60.3514C19.9969 60.4168 20.0579 60.4779 20.1233 60.5346C20.2671 60.7308 20.4457 60.9009 20.6592 61.0448C21.4697 61.5856 22.5852 61.3196 23.2388 60.661C23.5351 60.3601 23.7703 59.9938 23.9011 59.5881C24.1189 58.9252 23.8357 58.2623 23.4392 57.752Z" fill="#55BBDA"/>
<path id="Vector_2" d="M30.4982 54.6381C30.3762 53.936 29.5004 53.273 28.7901 53.3385C27.7836 53.43 26.8773 53.9011 26.4024 54.83C26.2629 55.1048 26.1671 55.4014 26.1235 55.7023C25.9405 56.0817 25.8228 56.4961 25.7705 56.9496C25.727 57.3204 25.9797 57.8524 26.2455 58.0967C26.5636 58.3889 26.9514 58.5721 27.3915 58.5721C28.2847 58.5721 29.1431 58.1621 29.7313 57.4904C30.4546 56.6662 30.6812 55.7067 30.4982 54.6381Z" fill="#55BBDA"/>
<path id="Vector_3" d="M30.6643 62.466C30.6163 62.2654 30.5248 62.0648 30.429 61.8816C30.3331 61.6984 30.1937 61.5283 30.0586 61.3757C29.9279 61.2274 29.7579 61.1096 29.5967 61.0006C29.4311 60.8872 29.2263 60.8043 29.0433 60.7476C28.9388 60.7171 28.8429 60.7127 28.7296 60.6997C28.5945 60.6822 28.5379 60.6648 28.429 60.6691C28.0673 60.6735 27.7187 60.7782 27.4094 60.957C27.2656 61.0398 27.1131 61.1707 26.9911 61.2884C26.8734 61.4018 26.7558 61.5676 26.6643 61.7202C26.5771 61.8685 26.5074 62.0604 26.4508 62.2218C26.4333 62.2697 26.4203 62.3221 26.4115 62.3744C26.3593 62.5401 26.3418 62.7015 26.3505 62.8672C26.2416 63.2292 26.2372 63.6261 26.3288 64.0056C26.3549 64.1102 26.3941 64.1887 26.442 64.2978C26.5423 64.5333 26.6686 64.7383 26.8516 64.9214C26.9736 65.0392 27.1348 65.1613 27.283 65.2529C27.4355 65.3488 27.6141 65.4186 27.7884 65.4666C28.1632 65.5626 28.5248 65.5582 28.9039 65.4753C29.1305 65.423 29.3571 65.3314 29.5488 65.1962C29.9192 64.9432 30.0934 64.7557 30.3505 64.3981C30.4812 64.2149 30.564 63.9881 30.6381 63.7831C30.6468 63.7526 30.6555 63.7221 30.6643 63.6915C30.7035 63.5214 30.7296 63.3077 30.7383 63.1333C30.7383 63.1028 30.7383 63.0722 30.7383 63.0417C30.734 62.8498 30.7078 62.6405 30.6643 62.466Z" fill="#55BBDA"/>
<path id="Vector_4" d="M36.9469 59.6704C36.9164 58.6935 36.1843 58.0349 35.2388 57.9608C33.8793 57.8561 32.5852 59.0991 32.6593 60.4685C32.7159 61.4891 33.4 62.3919 34.4763 62.4442C34.7639 62.4573 35.0253 62.3744 35.2562 62.2305C36.2976 61.9034 36.9817 60.7913 36.9469 59.6704Z" fill="#55BBDA"/>
<path id="Vector_5" d="M24.7427 67.6356C24.6512 66.9683 24.2852 66.3708 23.7101 66.0045C23.4617 65.8475 23.2003 65.7602 22.9301 65.7297C22.9083 65.7254 22.8909 65.7123 22.8691 65.7079C22.2068 65.5422 21.4791 65.7602 21.0216 66.2749C20.599 66.7503 20.3549 67.3434 20.3506 67.9845C20.3506 69.1926 21.2656 70.3527 22.5336 70.3266C23.9192 70.296 24.9214 68.9527 24.7427 67.6356Z" fill="#55BBDA"/>
<path id="Vector_6" d="M31.4266 69.6886C31.2567 69.3397 30.9299 69.0126 30.5944 68.8207C30.1369 68.559 29.5399 68.4587 29.0301 68.6114C28.7207 68.703 28.4854 68.8425 28.2589 69.0126C27.9103 69.1609 27.5573 69.4749 27.4005 69.7715C27.2088 70.1379 27.1303 70.5173 27.187 70.9316C27.2698 71.5466 27.6924 72.1223 28.2632 72.3752C28.3416 72.4363 28.4157 72.4973 28.4985 72.5584C28.834 72.7895 29.2218 72.8942 29.6227 72.9073C30.2894 72.9335 31.0083 72.493 31.309 71.9042C31.4222 71.6818 31.4963 71.455 31.5443 71.2195C31.566 71.1628 31.5878 71.1104 31.6096 71.0537C31.7534 70.5914 31.627 70.103 31.4266 69.6886Z" fill="#55BBDA"/>
<path id="Vector_7" d="M39.6792 67.6927C39.5006 66.9077 38.8339 66.1357 38.0278 65.9569C38.0017 65.9526 37.9755 65.9482 37.9494 65.9438C37.6487 65.8566 37.3219 65.8479 36.9995 65.9395C36.1716 66.175 35.64 66.8161 35.3655 67.6011C35.152 68.2074 35.213 68.927 35.5442 69.4809C36.0627 70.3357 37.0431 70.6105 37.9755 70.4055C39.2217 70.1307 39.9537 68.9183 39.6792 67.6927Z" fill="#55BBDA"/>
<path id="Vector_8" d="M43.4918 59.7753C42.4984 58.7722 40.7685 58.7548 39.884 59.9018C39.579 60.2987 39.3698 60.8046 39.3829 61.3192C39.3873 61.5504 39.4221 61.8121 39.4962 62.0389C39.6008 62.3572 39.7402 62.6276 39.9886 62.8675C40.0844 62.9591 40.2805 63.103 40.4243 63.199C40.4287 63.199 40.4287 63.2033 40.433 63.2033C40.5332 63.3036 40.6422 63.3952 40.7729 63.465C41.1868 63.6831 41.7141 63.8096 42.1716 63.6482C42.8644 63.404 43.5049 63.0463 43.8709 62.379C44.3415 61.5199 44.1716 60.4601 43.4918 59.7753Z" fill="#55BBDA"/>
<path id="Vector_9" d="M40.9996 53.6351C40.7686 52.8108 40.0236 52.1959 39.1565 52.1828C37.8449 52.1653 36.7599 53.4781 36.8035 54.7429C36.8166 55.0525 36.8907 55.3622 37.0127 55.6457C37.0257 55.7329 37.0388 55.8245 37.0562 55.9161C37.1216 56.2999 37.5094 56.7622 37.8449 56.941C38.2371 57.146 38.7338 57.2681 39.1652 57.1155C40.0976 56.784 40.7774 56.012 40.9909 55.0395C41.0911 54.5815 41.1303 54.0974 40.9996 53.6351Z" fill="#55BBDA"/>
<path id="Vector_10" d="M36.0364 48.3748C35.8403 48.0346 35.5266 47.7817 35.1693 47.6334C34.8207 47.4851 34.3545 47.4066 33.9885 47.5418C33.7488 47.6334 33.4918 47.7206 33.2783 47.8646C32.934 48.1001 32.6944 48.3269 32.4634 48.6758C32.3458 48.8589 32.2543 49.077 32.1976 49.2907C32.1061 49.6527 32.1018 50.0583 32.202 50.4159C32.2935 50.7605 32.4852 51.0919 32.7336 51.3449C32.8774 51.4975 33.056 51.6371 33.2434 51.7331C33.5876 51.9119 33.958 52.0253 34.3501 52.0035C34.6377 51.9904 34.8687 51.9424 35.1257 51.8377C35.3698 51.7331 35.5963 51.6109 35.775 51.406C36.0582 51.0832 36.2281 50.7343 36.263 50.3374C36.5114 49.6876 36.385 48.9811 36.0364 48.3748Z" fill="#55BBDA"/>
<path id="Vector_11" d="M28.2978 48.6457C28.2107 48.3098 28.0103 47.9173 27.7445 47.6774C27.1606 47.1454 26.4111 46.9491 25.6399 47.1236C25.0647 47.2544 24.5593 47.6556 24.2717 48.1616C24.08 48.4974 23.9798 48.8986 23.9928 49.2824C24.0103 49.7578 24.1279 50.0762 24.3327 50.5036C24.5985 51.0488 25.3087 51.4326 25.9013 51.402C26.1235 51.3933 26.3458 51.3628 26.5636 51.3192C26.5854 51.3148 26.6072 51.3104 26.629 51.3017C26.7641 51.2581 26.9732 51.1752 27.0952 51.1055C27.3131 50.979 27.5048 50.8176 27.666 50.6257C27.714 50.5865 27.7575 50.5428 27.8011 50.4949C27.9144 50.364 28.032 50.2245 28.1192 50.0718C28.3676 49.6357 28.4242 49.1298 28.2978 48.6457Z" fill="#55BBDA"/>
<path id="Vector_12" d="M22.1453 51.1135C22.0277 50.6905 21.7052 50.2369 21.3131 50.0276C20.8904 49.8051 20.3806 49.6917 19.9144 49.8444C19.6617 49.9272 19.4351 50.045 19.239 50.2064C19.0124 50.2674 18.7989 50.3677 18.5985 50.5204C18.568 50.5466 18.5375 50.5727 18.507 50.5989C18.4983 50.5684 18.4416 50.6251 18.3283 50.7777C18.2717 50.8431 18.2194 50.9085 18.1758 50.9783C18.1628 51.0001 18.1497 51.0176 18.1366 51.0394C17.9798 51.2967 17.8839 51.5933 17.91 51.8986C17.91 51.8986 17.91 51.8942 17.9144 51.8942C17.9144 51.9029 17.9144 51.9117 17.9144 51.9247C17.9405 52.4307 18.1061 52.8624 18.4547 53.2419C18.6769 53.4861 19.0124 53.6475 19.3305 53.7434C19.666 53.8437 20.0495 53.8263 20.3806 53.7478C21.0604 53.5864 21.6137 53.0979 21.9667 52.5135C22.2063 52.1123 22.2673 51.5627 22.1453 51.1135Z" fill="#55BBDA"/>
<path id="Vector_13" d="M16.5246 64.4903C16.2414 64.233 15.8449 64.028 15.4527 64.0455C15.3177 64.0629 15.1826 64.0804 15.0475 64.0978C14.9037 64.1371 14.773 64.1981 14.6554 64.2723C14.3111 64.2461 13.9582 64.3202 13.6575 64.499C13.2131 64.7607 12.9255 65.1445 12.7687 65.633C12.4941 66.4965 13.0127 67.4909 13.7883 67.8965C14.2066 68.1146 14.7077 68.2847 15.187 68.2542C15.3743 68.2411 15.5617 68.2236 15.7447 68.1757C15.7665 68.1713 15.7883 68.1626 15.81 68.1538C15.9538 68.1015 16.1281 68.0405 16.2632 67.9619C16.5682 67.7788 16.834 67.5258 17.0039 67.2074C17.4702 66.3352 17.2523 65.162 16.5246 64.4903Z" fill="#55BBDA"/>
<path id="Vector_14" d="M19.6182 73.8931C19.444 73.2389 18.8557 72.6937 18.2065 72.528C17.5442 72.3535 16.7555 72.5629 16.298 73.095C16.1586 73.2607 16.0366 73.4308 15.9494 73.6183C15.5703 74.0981 15.335 74.7479 15.4091 75.3367C15.4701 75.8121 15.566 76.2787 15.9407 76.6233C16.3067 76.9591 16.725 77.1248 17.2261 77.1554C18.3241 77.2251 19.4222 76.5055 19.6662 75.4021C19.7751 74.8918 19.7533 74.3903 19.6182 73.8931Z" fill="#55BBDA"/>
<path id="Vector_15" d="M27.8796 77.5358C27.6007 77.043 26.9907 76.6592 26.4156 76.6941C26.2935 76.7028 26.1759 76.7159 26.0583 76.7377C25.6792 76.7203 25.3219 76.8206 24.9864 76.995C24.555 77.2175 24.1498 77.5925 23.9014 78.0112C23.1955 79.1975 23.6661 80.833 24.9515 81.3782C27.1389 82.3028 28.8905 79.3371 27.8796 77.5358Z" fill="#55BBDA"/>
<path id="Vector_16" d="M35.984 75.904C35.7138 75.3981 35.0472 74.9794 34.4589 75.0318C33.7182 75.0972 32.9993 75.3502 32.5722 75.9956C32.0929 76.314 31.8838 76.8679 31.8838 77.4349C31.8838 77.8361 31.9971 78.2417 32.2106 78.5775C32.6115 79.2056 33.2607 79.5458 33.9971 79.5632C34.8032 79.585 35.6485 79.1707 36.0494 78.4467C36.5069 77.618 36.411 76.7152 35.984 75.904Z" fill="#55BBDA"/>
<path id="Vector_17" d="M15.7574 58.0143C15.5613 57.709 15.3043 57.4561 14.9905 57.2729C14.594 57.0461 14.2846 57.0156 13.8358 56.9633C13.6528 56.9415 13.4393 56.9894 13.2302 57.0723C13.204 57.0723 13.1735 57.0679 13.1474 57.0679C12.2454 57.0679 11.5439 57.7919 11.326 58.6206C10.9513 60.0249 12.0319 61.3638 13.4001 61.5514C14.5809 61.7084 15.7313 60.9321 16.0232 59.7676C16.167 59.1788 16.0886 58.5203 15.7574 58.0143Z" fill="#55BBDA"/>
<path id="Vector_18" d="M11.5228 72.1184C11.3093 71.7259 10.8649 71.3988 10.4379 71.2854C10.1982 71.2113 9.95422 71.1982 9.71457 71.2549C9.58385 71.2592 9.46185 71.2854 9.33985 71.3247C9.19605 71.3072 9.04791 71.3116 8.90412 71.3552C8.43353 71.4904 8.04137 71.7434 7.74072 72.1315C7.67536 72.2144 7.61436 72.2842 7.56207 72.3757C7.52721 72.4368 7.37035 72.8337 7.46621 72.6025C7.43571 72.6767 7.40521 72.7465 7.37471 72.8206C7.30063 73.0605 7.28756 73.3047 7.34421 73.5446C7.33549 73.4923 7.35728 73.7234 7.37907 73.8019C7.40957 73.9066 7.5185 74.1683 7.57514 74.2555C7.78429 74.5913 8.01959 74.8312 8.35074 75.0449C8.4466 75.1059 8.54682 75.1408 8.65575 75.1844C8.76033 75.2281 8.86054 75.2804 8.96948 75.3066C9.14812 75.3502 9.35292 75.3763 9.53592 75.3851C9.57514 75.3851 9.61 75.3851 9.64921 75.3807C10.0762 75.3458 10.3464 75.2935 10.7298 75.0841C10.9172 74.9838 11.0915 74.8486 11.2353 74.696C11.5926 74.3035 11.8322 73.8019 11.8279 73.2611C11.8191 72.825 11.7233 72.4891 11.5228 72.1184Z" fill="#55BBDA"/>
<path id="Vector_19" d="M13.3739 50.9266C13.3826 50.678 13.3303 50.4425 13.217 50.2288C13.143 50.002 13.0166 49.8101 12.8423 49.6443C12.6767 49.4655 12.485 49.3434 12.2584 49.2693C12.0406 49.1559 11.8096 49.1035 11.5613 49.1123C11.4 49.1341 11.2388 49.1559 11.0776 49.1777C10.7682 49.2649 10.5024 49.4219 10.2759 49.6443C10.18 49.7665 10.0885 49.8886 9.99263 50.0107C9.93163 50.1197 9.8837 50.2288 9.84449 50.3422C9.64405 50.6344 9.53076 50.9876 9.53076 51.3409C9.53076 51.6549 9.60919 51.9515 9.77041 52.2263C9.92728 52.4879 10.1364 52.6973 10.3979 52.8543C10.5547 52.9197 10.7116 53.0026 10.8772 53.0505C11.0515 53.1029 11.2345 53.1116 11.4175 53.1247C11.7268 53.1465 12.1103 53.0157 12.3717 52.8586C12.5199 52.7714 12.668 52.658 12.7857 52.5315C12.8815 52.4094 12.973 52.2873 13.0689 52.1652C13.0732 52.1608 13.0776 52.1521 13.082 52.1478C13.0863 52.1347 13.095 52.1259 13.0994 52.1129C13.1822 51.9559 13.2606 51.7901 13.3042 51.6157C13.3085 51.5982 13.3129 51.5808 13.3129 51.5633C13.339 51.402 13.3739 51.2144 13.3782 51.0531C13.3782 51.0051 13.3782 50.9658 13.3739 50.9266Z" fill="#55BBDA"/>
<path id="Vector_20" d="M8.53322 65.2712C8.48965 65.088 8.40686 64.9092 8.311 64.7478C8.07135 64.3553 7.67483 64.0369 7.22603 63.9148C6.98638 63.8407 6.74237 63.8276 6.50272 63.8843C6.26307 63.8974 6.03649 63.9671 5.82734 64.098C5.48312 64.3204 5.17375 64.6432 5.03867 65.0357C4.99074 65.0967 4.94717 65.1622 4.90796 65.2319C4.83824 65.3802 4.77288 65.5285 4.72059 65.6812C4.69881 65.8382 4.67702 65.9995 4.65523 66.1565C4.64652 66.4051 4.69881 66.6319 4.80774 66.8456C4.85131 66.9983 4.92538 67.1291 5.03867 67.2425C5.16503 67.4388 5.33061 67.5914 5.53976 67.7048C5.60948 67.7571 5.68791 67.792 5.77506 67.8095C5.99292 67.9229 6.22386 67.9752 6.47222 67.9665C6.63344 67.9447 6.79466 67.9229 6.95588 67.9011C6.96895 67.8967 6.98202 67.8923 6.9951 67.888C7.15632 67.8313 7.36982 67.7528 7.5354 67.6525C7.69226 67.5565 7.84912 67.4431 7.97549 67.3167C7.98856 67.3036 8.00163 67.2861 8.01906 67.273C8.11056 67.1771 8.25435 66.9939 8.31971 66.8805C8.32843 66.8674 8.33278 66.8543 8.3415 66.8413C8.40686 66.7191 8.494 66.5142 8.53322 66.3833C8.58986 66.2045 8.61601 66.0126 8.60729 65.8251C8.60293 65.6506 8.57243 65.4413 8.53322 65.2712Z" fill="#55BBDA"/>
<path id="Vector_21" d="M21.3126 43.1113C21.086 42.7057 20.8377 42.5312 20.476 42.2521C20.3409 42.1954 20.2059 42.1387 20.0664 42.0777L19.6133 42.0166C19.2342 42.0166 18.8769 42.1518 18.5762 42.383C18.3366 42.5705 18.1666 42.7842 18.049 43.0677C17.9531 43.2945 17.9183 43.5038 17.9183 43.7262C17.6394 44.1493 17.5392 44.6596 17.6568 45.1655C17.7919 45.7674 18.354 46.2253 18.9292 46.3779C19.4738 46.5262 20.0229 46.3867 20.5022 46.1119C21.1645 45.7368 21.5871 44.9692 21.5958 44.2147C21.6045 43.8396 21.5 43.4471 21.3126 43.1113Z" fill="#55BBDA"/>
<path id="Vector_22" d="M33.8754 41.973C33.6139 41.5761 33.2566 41.2665 32.7904 41.14C32.4462 41.044 32.0148 41.0615 31.6619 41.1923C31.6401 41.1967 31.6183 41.2011 31.5921 41.2054C31.2174 41.2577 30.8209 41.4104 30.5595 41.7026C30.5507 41.7113 30.542 41.7244 30.5333 41.7331L30.2501 42.0995C30.1194 42.3088 30.0453 42.5313 30.0366 42.7755C29.993 42.9369 29.993 43.0982 30.0366 43.2596C30.0497 43.4995 30.1194 43.7263 30.2501 43.9356C30.4157 44.2671 30.6074 44.6073 30.8993 44.8428L31.2653 45.1263C31.4745 45.2571 31.6967 45.3312 31.9407 45.34C32.1019 45.3836 32.2632 45.3836 32.4244 45.34C32.664 45.3269 32.8906 45.2571 33.0998 45.1263C33.3263 45.0085 33.5486 44.8471 33.7272 44.664C34.0845 44.302 34.3329 43.7699 34.3154 43.2552C34.298 42.7711 34.1368 42.3655 33.8754 41.973Z" fill="#55BBDA"/>
<path id="Vector_23" d="M27.9008 40.9305C27.8442 40.695 27.7353 40.49 27.574 40.3112C27.4825 40.1716 27.3736 40.0539 27.2385 39.9579C27.208 39.9187 27.1775 39.8794 27.1557 39.8576C26.9553 39.6395 26.6982 39.5349 26.4237 39.4389C26.0272 39.3037 25.5653 39.2601 25.1557 39.3735C24.6372 39.5174 24.1666 39.91 23.8965 40.3766C23.8921 40.3853 23.8878 40.3941 23.8834 40.4071C23.8442 40.4769 23.7222 40.7735 23.6961 40.852C23.6917 40.8694 23.683 40.8869 23.6786 40.9043C23.6307 41.0919 23.6002 41.2881 23.6089 41.4844C23.6307 41.8726 23.7091 42.2476 23.9313 42.5747C24.171 42.928 24.3627 43.1286 24.7244 43.3554C24.8812 43.4557 25.0686 43.5168 25.2385 43.5822C25.2734 43.5953 25.3082 43.6084 25.3475 43.6127C25.744 43.6956 26.0882 43.7174 26.4847 43.5953C26.415 43.6171 26.8289 43.4732 26.9553 43.3903C27.086 43.3031 27.2385 43.1853 27.3562 43.0763C27.6133 42.8364 27.7658 42.5224 27.8747 42.1953C28.0316 41.7504 27.9662 41.3841 27.9008 40.9305Z" fill="#55BBDA"/>
<path id="Vector_24" d="M41.4792 45.379C41.3833 45.2307 41.2657 45.0955 41.1393 44.9734C40.9084 44.6725 40.5685 44.45 40.2112 44.3454C39.7842 44.2233 39.3659 44.2843 38.9694 44.4544C38.525 44.6419 38.1459 44.9385 37.9237 45.3834C37.7232 45.7803 37.5969 46.2208 37.6404 46.67C37.6404 46.9971 37.7232 47.3024 37.8888 47.5858C38.05 47.8606 38.2679 48.0743 38.538 48.2357C38.9607 48.4843 39.4356 48.5323 39.8844 48.4189C40.0849 48.384 40.2809 48.3186 40.4552 48.2052C40.4901 48.1834 40.525 48.1572 40.5598 48.131C40.7167 48.0438 40.8561 47.9522 40.9955 47.8083C41.0653 47.7341 41.1263 47.6556 41.1916 47.5771C41.4618 47.2675 41.6361 46.9447 41.6927 46.5348C41.745 46.151 41.6971 45.7192 41.4792 45.379Z" fill="#55BBDA"/>
<path id="Vector_25" d="M48.7078 53.1776C48.6032 52.724 48.2677 52.3882 47.9017 52.1309C47.6054 51.9215 47.1217 51.8299 46.7688 51.843C46.3722 51.8561 45.954 51.9651 45.6272 52.1919C44.9213 52.6848 44.5291 53.4 44.4986 54.2636C44.4855 54.6822 44.6991 55.2143 45.0084 55.4978C45.357 55.8206 45.7622 55.9907 46.2415 56.0081C46.3722 56.0125 46.4986 56.0168 46.625 56.0037C47.0956 55.9601 47.5226 55.8293 47.8668 55.4804C48.0411 55.3016 48.1936 55.0704 48.2938 54.8262C48.4855 54.6256 48.6424 54.3813 48.7034 54.1109C48.7775 53.8013 48.7775 53.4872 48.7078 53.1776Z" fill="#55BBDA"/>
<path id="Vector_26" d="M48.7161 70.0906C48.703 69.6152 48.5244 69.1442 48.1845 68.804C47.8708 68.49 47.3523 68.2501 46.8991 68.2719C46.4285 68.2937 45.9449 68.4463 45.6137 68.804C45.5745 68.8476 45.5353 68.8912 45.5004 68.9392C45.4786 68.9479 45.4568 68.961 45.435 68.9741C45.1954 69.1049 44.9557 69.3535 44.8163 69.589C44.6551 69.8638 44.581 70.2083 44.5767 70.5267C44.5767 70.627 44.5984 70.736 44.6115 70.8276C44.642 71.0675 44.7117 71.3117 44.8381 71.5254L45.117 71.8874C45.2782 72.0619 45.4699 72.184 45.6878 72.2538C45.8403 72.3192 45.8621 72.3366 45.9841 72.3541C46.1889 72.3846 46.398 72.4282 46.6072 72.4326C46.7553 72.437 46.9732 72.3933 47.1213 72.3672C47.1475 72.3628 47.1736 72.3585 47.1997 72.3497C47.3784 72.3061 47.5527 72.2276 47.7139 72.136C48.032 71.9485 48.2586 71.7043 48.4503 71.3946C48.6943 70.9934 48.7292 70.5354 48.7161 70.0906Z" fill="#55BBDA"/>
<path id="Vector_27" d="M52.7333 64.6431C52.7158 64.5428 52.681 64.4512 52.6418 64.3596C52.6156 63.7447 52.2801 63.2518 51.779 62.916C51.169 62.5104 50.3324 62.5409 49.7093 62.9029C49.1211 63.2431 48.6984 63.9148 48.7159 64.6038C48.742 65.5197 49.2997 66.2437 50.0666 66.6929L50.498 66.8761L50.9816 66.9415C51.1429 66.9197 51.3041 66.8979 51.4653 66.8761C51.7006 66.8194 51.9054 66.7104 52.084 66.5534C52.2191 66.4749 52.328 66.3658 52.4108 66.2263C52.5241 66.1129 52.6026 65.9777 52.6461 65.825C52.7289 65.6855 52.7681 65.5328 52.7681 65.3671C52.8204 65.1272 52.8073 64.8873 52.7333 64.6431Z" fill="#55BBDA"/>
<path id="Vector_28" d="M44.7508 76.0655C44.7421 76.0175 44.7334 75.9739 44.716 75.9259C44.5896 75.5465 44.4458 75.2673 44.1713 74.9751C43.6702 74.4474 42.8946 74.2381 42.1931 74.4343C42.0232 74.4823 41.8532 74.5477 41.7051 74.6437C41.6354 74.6873 41.5439 74.7658 41.5003 74.8007C41.4872 74.8094 41.3478 74.9054 41.2911 74.9664C41.0036 75.2761 40.8946 75.4985 40.7465 75.8823C40.5809 76.3141 40.6245 76.8374 40.7247 77.2736C40.7813 77.5091 40.8903 77.7141 41.0515 77.8929C41.1778 78.0891 41.3478 78.2461 41.5613 78.3595C41.7704 78.4904 41.9927 78.5645 42.2367 78.5732C42.4763 78.6256 42.7203 78.6168 42.96 78.5427C43.0471 78.5165 43.1299 78.4816 43.2171 78.4424C43.2258 78.4424 43.2388 78.438 43.2476 78.438C43.4088 78.438 43.5613 78.3944 43.7051 78.3159C43.8576 78.2723 43.9927 78.1938 44.1016 78.0848C44.2367 78.0063 44.3456 77.8972 44.424 77.762C44.5852 77.5876 44.6898 77.3826 44.7465 77.1471C44.8598 76.7458 44.8205 76.4536 44.7508 76.0655Z" fill="#55BBDA"/>
<path id="Vector_29" d="M52.3634 55.8467C51.8406 55.8641 51.3351 55.995 50.8994 56.2654C50.8776 56.2697 50.8558 56.2741 50.8384 56.2785C50.3983 56.4224 49.9756 56.6928 49.7534 57.1115C49.5312 57.5345 49.4223 58.0404 49.5704 58.5115C49.6096 58.6292 49.6532 58.7426 49.7055 58.8517C49.7142 58.9083 49.7186 58.9607 49.7273 59.0174C49.7883 59.1613 49.8493 59.3052 49.9103 59.4535C50.1107 59.7937 50.4201 60.0467 50.7774 60.1949C51.4397 60.4741 52.2458 60.3432 52.7599 59.8199C52.7861 59.7937 52.8079 59.7632 52.834 59.7326C52.8994 59.7065 52.9647 59.6803 53.0257 59.6454C53.2044 59.5451 53.3874 59.4055 53.5312 59.266C53.98 58.8342 54.1543 58.2716 54.1761 57.661C54.2153 56.7059 53.3177 55.8118 52.3634 55.8467Z" fill="#55BBDA"/>
<path id="Vector_30" d="M47.5964 44.7334C47.2304 44.258 46.7293 43.8742 46.1324 43.739C45.0256 43.4905 43.884 44.1098 43.6182 45.2481C43.4309 46.0506 43.7794 47.0667 44.5289 47.4854C44.7206 47.7515 44.9995 47.9565 45.3089 48.0437C46.237 48.3141 47.3568 47.9957 47.8492 47.1104C48.2805 46.3297 48.1237 45.4182 47.5964 44.7334Z" fill="#55BBDA"/>
<path id="Vector_31" d="M53.2345 48.1578C52.5068 47.9572 51.692 48.1666 51.1604 48.7074C50.8859 48.9865 50.7291 49.2918 50.6158 49.6625C50.4197 50.3036 50.6593 51.0363 51.1169 51.503C51.3696 51.7559 51.692 51.9129 52.0275 51.9696C52.302 52.1354 52.6201 52.2488 52.9251 52.2139C53.1256 52.1877 53.326 52.1833 53.5177 52.1223C53.8532 52.0133 54.119 51.8693 54.3718 51.6164C54.7465 51.2413 54.9731 50.7005 54.9687 50.1684C54.96 49.1784 54.1365 48.4108 53.2345 48.1578Z" fill="#55BBDA"/>
<path id="Vector_32" d="M40.6329 37.2147C39.8704 36.7568 38.964 36.8833 38.2189 37.302C37.8268 37.5244 37.5043 37.9518 37.3867 38.3879C37.2691 38.8241 37.3213 39.3998 37.5697 39.7879C37.5828 39.8054 37.5959 39.8272 37.6089 39.8446C37.7048 40.0758 37.8486 40.2895 38.0403 40.477C38.1972 40.6297 38.3758 40.778 38.5632 40.887C38.7113 40.9742 38.8943 41.044 39.0555 41.1007C39.1035 41.1181 39.147 41.1269 39.195 41.1356C39.3736 41.1661 39.5741 41.2097 39.7571 41.201C39.9662 41.1923 40.1754 41.1574 40.3802 41.1181C40.5239 41.0571 40.6677 40.996 40.8159 40.935C41.0294 40.8216 41.1993 40.6646 41.3257 40.4683C41.5697 40.1499 41.7135 39.7792 41.7135 39.3692C41.7266 38.5144 41.3867 37.664 40.6329 37.2147Z" fill="#55BBDA"/>
<path id="Vector_33" d="M5.18684 54.5863C4.37203 54.3508 3.47878 54.6823 2.92541 55.3016C2.74676 55.4979 2.56375 55.7159 2.4461 55.9602C2.2021 56.4574 2.04959 57.033 2.22824 57.5869C2.41125 58.1452 2.79904 58.5857 3.30013 58.8212C3.48314 58.9608 3.68357 59.0611 3.89708 59.1134C4.41996 59.2442 4.99512 59.2224 5.4657 58.9346C5.823 58.7165 6.09751 58.4592 6.31973 58.1016C7.06919 56.9022 6.63346 55.005 5.18684 54.5863Z" fill="#55BBDA"/>
<path id="Vector_34" d="M11.7357 43.2023C11.7357 43.1849 11.6747 42.7357 11.6703 42.7139C11.666 42.7008 11.666 42.6921 11.6616 42.679C11.618 42.5045 11.5396 42.3388 11.4481 42.1861C11.4045 42.1076 11.2128 41.859 11.1474 41.798C11.1387 41.7893 11.1344 41.7849 11.1256 41.7762C11.0559 41.7064 10.825 41.5276 10.7378 41.4752C10.7248 41.4665 10.7117 41.4622 10.6986 41.4534C10.5505 41.3662 10.3718 41.2964 10.2019 41.2485C10.1191 41.2267 9.96661 41.2136 9.92739 41.2092C9.88382 41.2048 9.73567 41.1743 9.64853 41.1743C9.63545 41.1743 9.61802 41.1743 9.60495 41.1743C9.4568 41.1787 9.23458 41.2136 9.09079 41.2441C9.05594 41.2528 9.02108 41.2615 8.99058 41.2746C8.81628 41.3357 8.63328 41.4055 8.47641 41.5014C8.40234 41.5494 8.3152 41.6235 8.25855 41.6671C8.02761 41.846 8.07554 41.8023 7.8969 42.0291C7.82282 42.1251 7.74003 42.2167 7.68339 42.3301C7.60931 42.4827 7.52653 42.6484 7.4786 42.8098C7.4481 42.9101 7.46552 42.8534 7.43502 43.0715C7.39145 43.2285 7.39145 43.3855 7.43502 43.5382C7.43502 43.6516 7.45681 43.7606 7.49603 43.8609C7.50474 43.9002 7.51346 43.9438 7.52653 43.9917C7.5701 44.1575 7.63982 44.3188 7.72696 44.4671C7.83154 44.6503 7.97968 44.8378 8.1409 44.9818L8.50692 45.2652C8.71607 45.3961 8.93829 45.4702 9.1823 45.479C9.34352 45.5226 9.50474 45.5226 9.66596 45.479C9.90561 45.4659 10.1322 45.3961 10.3413 45.2652C10.5853 45.1562 10.7901 44.9861 10.9993 44.816C11.0341 44.7855 11.069 44.7593 11.0995 44.7244C11.1605 44.6547 11.2215 44.5674 11.2738 44.502C11.3174 44.4453 11.4002 44.3537 11.4437 44.2752C11.4524 44.2621 11.4568 44.2491 11.4655 44.2316C11.5352 44.0877 11.6093 43.9176 11.6572 43.7693C11.7139 43.5949 11.74 43.403 11.7313 43.2198C11.74 43.2154 11.7357 43.2067 11.7357 43.2023Z" fill="#55BBDA"/>
<path id="Vector_35" d="M4.0105 49.0207C4.0105 49.025 4.0105 49.0294 4.0105 49.0381C4.01486 49.0294 4.01486 49.025 4.0105 49.0207C4.31987 48.2749 4.17607 47.4462 3.51377 46.9316C2.86889 46.43 1.84057 46.43 1.26105 47.0668C0.942968 47.4157 0.672816 47.7995 0.555169 48.2661C0.402664 48.868 0.437522 49.4742 0.720746 50.0325C1.16519 50.896 2.28501 51.2275 3.12597 50.7521C3.52684 50.5253 3.80571 50.1328 3.94514 49.701C4.01921 49.4786 4.02357 49.2518 4.00614 49.025C4.0105 49.025 4.0105 49.025 4.0105 49.0207Z" fill="#55BBDA"/>
<path id="Vector_36" d="M18.3109 83.2267C18.2891 83.0654 18.2673 82.904 18.2455 82.7426C18.1889 82.5071 18.08 82.3021 17.9188 82.1233C17.836 81.9881 17.7314 81.8791 17.592 81.7962C17.4787 81.6828 17.3436 81.6043 17.1911 81.5607C17.0517 81.4778 16.8948 81.4386 16.7336 81.4386C16.4939 81.3862 16.2499 81.395 16.0103 81.4691C15.6791 81.5171 15.3218 81.7352 15.0734 81.9663C15.0342 81.9837 14.995 82.0012 14.9558 82.0143L14.5941 82.2934C14.5724 82.3065 14.5549 82.3239 14.5419 82.3414C14.0974 82.8124 13.9057 83.4579 14.08 84.0903C14.2412 84.6791 14.7336 85.2024 15.3349 85.3463C15.7532 85.4466 16.3196 85.5033 16.7423 85.3856C17.0386 85.3027 17.3654 85.1239 17.5789 84.8971C17.6878 84.7794 17.8229 84.618 17.9013 84.4784C18.019 84.2735 18.1018 84.0205 18.1889 83.8112C18.2063 83.7719 18.2238 83.7326 18.2368 83.6934C18.2673 83.5495 18.2891 83.3881 18.3109 83.2267Z" fill="#55BBDA"/>
<path id="Vector_37" d="M11.4792 80.0482C11.2831 79.6993 11.1088 79.5902 10.7994 79.3547C10.538 79.2021 10.2591 79.1279 9.95847 79.1279C9.65782 79.1279 9.37895 79.2064 9.11752 79.3547C8.69486 79.5728 8.32449 79.8476 8.07177 80.2575C7.82776 80.65 7.72318 81.1472 7.77111 81.6052C7.77111 81.9235 7.8539 82.2201 8.01077 82.4949C8.1197 82.6999 8.2722 82.8656 8.46392 82.9877C8.90401 83.3279 9.45303 83.4544 10.002 83.3017C10.2243 83.2407 10.4334 83.1316 10.6426 83.04C10.843 82.9528 11.0217 82.822 11.1742 82.665C11.4487 82.3858 11.6099 82.0326 11.6622 81.6488C11.6752 81.5528 11.6796 81.4525 11.6796 81.3522C11.7145 81.2257 11.7319 81.0905 11.7319 80.9553C11.7624 80.6893 11.6099 80.275 11.4792 80.0482Z" fill="#55BBDA"/>
<path id="Vector_38" d="M3.87963 73.4087C3.70098 72.881 3.38725 72.4972 2.87309 72.2791C2.38943 72.0741 1.77941 72.0611 1.3219 72.3664C0.75545 72.7502 0.376366 73.2212 0.141072 73.8667C-0.076792 74.4729 -0.0550055 75.2187 0.302292 75.7682C0.842596 76.6056 1.94063 77.033 2.80338 76.3657C3.04738 76.1738 3.21732 75.9383 3.33061 75.6766C3.43954 75.585 3.54411 75.4891 3.63562 75.367C4.0757 74.8 4.1062 74.076 3.87963 73.4087Z" fill="#55BBDA"/>
</g>
</g>
</g>
<defs>
<clipPath id="clip0_179_8256">
<rect width="126" height="120" fill="white"/>
</clipPath>
</defs>
</svg>
