<svg width="134" height="128" viewBox="0 0 134 128" fill="none" xmlns="http://www.w3.org/2000/svg">
<g id="Loop" clip-path="url(#clip0_179_8251)">
<path id="Loop_2" d="M101.303 126.914C118.226 128.372 132.815 113.003 133.22 96.6313C133.669 78.3869 119.113 62.7876 101.991 58.5805C93.0776 56.5089 83.7929 56.741 75.0133 59.2551C65.5189 61.8995 54.9473 67.1325 50.8311 76.6603C47.2963 84.9243 48.9848 95.7656 57.618 100.223C65.3866 104.253 75.2708 101.901 81.9993 96.9279C95.7962 86.69 100.463 67.0797 94.6773 51.1213C88.5612 34.323 71.8287 24.7282 54.3029 25.6776C45.8487 26.0453 37.6903 28.8458 30.8072 33.7427C24.0422 38.7037 18.3404 46.0632 17.8839 54.8079C17.4174 64.5865 25.483 71.0984 34.6919 71.6159C43.9008 72.1335 52.4664 67.3464 58.3279 60.7779C64.2536 54.1539 67.6019 45.6168 67.7663 36.7133C67.701 27.5935 64.1492 18.83 57.8393 12.2197C51.645 5.52382 43.112 1.47073 34.0241 0.907576C25.1338 0.548406 16.4222 3.38742 9.47006 8.90959C6.13689 11.5364 3.31186 14.7496 1.13304 18.3923C-1.43694 22.6443 5.26084 26.4531 7.87953 22.2255C14.8742 10.6236 30.7728 5.03651 43.2648 10.9979C49.6557 13.9344 54.7342 19.1405 57.511 25.6019C60.2877 32.0633 60.5638 39.3173 58.2854 45.9504C55.9805 52.2602 51.5435 57.5593 45.7389 60.9345C40.6605 63.8677 31.8582 65.8932 27.3714 60.7024C23.3966 56.0721 26.411 49.0841 29.7112 45.0282C34.0852 39.8981 39.9527 36.2628 46.5 34.6263C59.2161 31.2221 74.2206 34.4761 82.6475 45.1609C90.8549 55.5775 91.2034 71.3667 84.585 82.568C83.0081 85.3979 80.8742 87.8775 78.3114 89.858C75.7487 91.8385 72.81 93.2789 69.6718 94.0928C63.7265 95.4308 57.275 93.1309 56.6286 86.3423C55.8332 78.0451 62.9739 72.4157 69.7061 69.2913C76.433 66.1782 83.7922 64.6575 91.2144 64.847C105.252 65.2406 119.013 73.2238 123.712 87.0026C124.835 90.0201 125.35 93.2273 125.229 96.4397C125.109 99.6521 124.354 102.806 123.009 105.721C120.342 111.295 115.676 115.657 109.933 117.943C107.101 118.99 104.067 119.383 101.056 119.092C100.031 119.101 99.0509 119.512 98.327 120.235C97.6032 120.959 97.1928 121.939 97.184 122.965C97.2086 123.984 97.6254 124.955 98.3475 125.677C99.0695 126.399 100.041 126.816 101.06 126.841L101.303 126.914Z" fill="black"/>
</g>
<defs>
<clipPath id="clip0_179_8251">
<rect width="134" height="128" fill="white"/>
</clipPath>
</defs>
</svg>
