<svg width="116" height="211" viewBox="0 0 116 211" fill="none" xmlns="http://www.w3.org/2000/svg">
<g id="Mountain">
<path id="Mountain_2" d="M0.000501203 188.53C0.000501071 190.042 2.19622 191.207 4.226 190.753C31.8552 184.704 59.273 175.872 77.5714 160.507C98.369 142.965 105.17 117.301 93.855 94.3296C80.2222 66.685 41.3358 50.2959 3.78485 40.209C1.83081 39.6797 0.0307965 41.6559 0.000501203 43.0472L0.000501203 188.53Z" fill="#EA552B"/>
<path id="Dizziness" d="M99.2881 173.998C98.0545 158.514 79.0702 141.981 64.259 139.576C55.0676 142.62 67.0007 148.395 70.6711 150.373C79.4512 156.46 96.1662 167.606 89.267 179.803C82.6495 188.173 76.4432 203.77 63.3149 196.618C58.0834 193.681 50.8948 192.129 46.8132 188.02C48.2524 170.962 49.8589 155.661 68.6376 172.126C76.7248 176.942 78.3243 186.111 66.5133 184.87C65.2493 184.277 62.6296 183.212 63.2007 181.37C63.5059 179.924 63.6969 178.456 63.7719 176.98C63.6272 173.351 58.091 173.176 57.5884 176.805C54.3672 184.749 61.5331 191.756 69.5289 190.44C83.9213 190.06 83.8297 171.563 73.9149 164.989C49.722 143.966 34.7433 160.234 33.3802 187.427C30.951 201.252 54.0548 207.126 64.2742 210.253C71.2115 211.531 76.8466 209.226 81.2176 203.953C87.6904 194.876 98.7093 185.479 99.2881 173.998Z" fill="black"/>
<path id="Star" d="M106.924 32.7346C104.429 33.6688 101.214 34.6031 99.3451 36.4716C95.2431 40.6664 95.0656 47.2529 92.2157 52.0643C91.5055 53.3163 90.8794 54.7363 90.0758 55.8948C88.9171 57.5951 88.1138 56.5208 87.0486 55.1849C85.2638 52.8679 84.7312 50.0183 84.2453 47.1688C83.7594 44.3194 83.3576 41.638 82.825 38.966C82.1989 35.939 79.9746 34.9581 77.2929 33.9771C74.9849 33.0429 72.6678 32.2862 70.3505 31.4827C69.3693 31.1277 66.7807 30.9501 66.3322 29.8851C65.7996 28.5397 67.8554 27.9232 68.7431 27.4747C71.322 26.3162 74.1816 25.7837 76.6765 24.6719C79.5264 23.3359 80.5915 21.5608 81.6661 18.7954C83.7125 13.2739 83.5349 7.38811 85.5812 1.97875C86.1232 0.736186 86.8334 -0.599745 87.9921 0.287801C89.1508 1.17535 89.9544 3.94066 90.7953 5.09914C93.0192 8.4905 93.6455 12.6761 95.2434 16.4131C96.047 18.1976 96.7665 21.2245 98.2802 22.4764C99.9715 23.9059 103.27 24.1674 105.316 24.5224C108.615 25.1484 114.772 24.6532 115.118 27.5588C115.464 30.4643 109.689 31.7536 106.924 32.7346Z" fill="black"/>
</g>
</svg>
