<svg width="116" height="236" viewBox="0 0 116 236" fill="none" xmlns="http://www.w3.org/2000/svg">
<g id="RainbowFlower">
<g id="Flower">
<path id="Flower_2" d="M79.9508 151.027C82.3721 148.519 84.9201 146.135 87.5847 143.886C89.0561 142.769 90.7472 141.975 92.5474 141.555C94.3476 141.135 96.2163 141.099 98.0312 141.45C99.5719 141.648 101.024 142.281 102.215 143.276C103.406 144.272 104.287 145.586 104.754 147.065C106.036 150.553 105.952 154.396 104.519 157.825C103.639 159.893 102.641 161.908 101.53 163.861C100.55 165.641 99.4227 167.304 98.531 169.104C96.2574 173.633 97.208 175.951 101.794 178.006C104.423 179.1 106.956 180.409 109.369 181.918C114.269 185.176 115.641 189.118 114.269 194.801C113.311 198.878 110.949 202.489 107.596 205.004C101.407 209.71 93.6918 211.962 85.9384 211.323C79.7058 210.961 80.6172 210.149 77.2069 216.214C74.5316 220.978 71.7779 225.683 67.5836 229.312C65.9025 230.81 64.0887 232.153 62.1644 233.323C51.8356 239.358 42.8689 231.768 42.4475 222.69C42.37 219.148 42.7454 215.611 43.5646 212.165C45.0738 205.18 44.231 203.009 37.871 199.546C36.5862 198.91 35.3425 198.194 34.1472 197.403C29.5315 194.078 28.3948 188.678 31.707 184.012C33.2877 181.956 35.2222 180.197 37.4202 178.818C40.8207 176.538 44.8484 175.824 48.8271 175.052C54.5697 173.936 55.285 173.095 55.236 167.275C55.236 164.673 54.9225 162.071 54.9617 159.449C55.0792 152.739 58.8815 148.425 65.5355 147.212C71.0821 146.244 75.443 147.408 79.9508 151.027ZM70.9351 203.097C73.7702 203.119 76.5501 202.315 78.9335 200.782C81.3168 199.249 83.1997 197.055 84.3509 194.469C86.9282 188.12 83.1749 181.596 76.3641 180.774C73.7636 180.378 71.1039 180.718 68.6874 181.756C66.2708 182.793 64.1942 184.486 62.6936 186.643C60.1849 190.057 59.4793 193.833 61.4392 197.707C63.3992 201.58 66.9564 203.018 70.9351 203.097V203.097Z" fill="#EA552B"/>
<path id="Seed" d="M70.1808 198.528C69.1896 198.513 68.2226 198.221 67.3894 197.685C66.5562 197.149 65.8902 196.391 65.4671 195.496C64.4871 193.373 65.0457 191.348 66.3197 189.48C68.5344 186.223 73.0717 184.472 76.5897 185.567C80.1078 186.663 81.421 189.48 80.0882 192.757C78.7555 196.034 74.9434 198.558 70.1808 198.528Z" fill="#FF90E7"/>
</g>
<g id="Rainbow">
<path id="yellow" d="M103.012 38.8113C98.2334 36.0239 92.5628 35.7054 87.0834 35.7691C81.1754 35.7265 75.2705 36.051 69.4027 36.7407C59.1288 38.1583 48.6001 41.8854 42.4198 50.7254C40.4532 53.6835 39.1087 57.0106 38.468 60.5045C37.8272 63.9983 37.9036 67.586 38.6925 71.0494C43.6782 95.244 72.5406 103.542 94.0282 102.204C97.3267 102.003 100.609 101.593 103.856 100.978C111.295 99.5445 119.578 91.7876 112.378 84.5404C108.667 80.8133 103.792 80.9566 98.9342 81.3548C91.8142 81.9123 79.135 84.3971 75.5033 75.9712C75.1153 75.045 74.858 74.0694 74.7388 73.0723C73.1459 61.3015 88.8514 62.5439 96.0193 62.9262C100.798 63.181 107.026 62.2254 109.989 57.9726C113.939 52.3182 110.53 45.2303 106.022 41.1049C105.107 40.2309 104.098 39.4616 103.012 38.8113Z" fill="#F7D046"/>
<path id="Black" d="M110.928 14.9829C110.596 12.4241 109.724 9.96495 108.37 7.76826C107.016 5.57158 105.212 3.68746 103.075 2.24059C97.5 -1.39098 90.1092 0.329219 83.9608 0.982264C77.8124 1.63531 71.2179 2.41578 64.8465 3.49888C52.2311 5.61729 39.5839 9.00993 28.5295 15.6519C24.4193 18.1158 20.5944 21.0271 17.1247 24.3326C11.7443 29.4979 7.47807 35.7099 4.58892 42.586C0.0862905 53.5606 -1.13649 65.6056 1.06872 77.2612C2.28027 83.8552 4.42565 90.2428 7.44013 96.2313C12.854 107.536 21.7996 116.772 32.9258 122.544C41.1449 126.558 50.2082 128.31 59.2238 129.457C68.2393 130.604 77.2548 131.639 86.3022 132.643C92.2117 133.264 98.5035 134.506 104.397 133.12C107.201 132.389 109.655 130.686 111.321 128.314C112.986 125.943 113.756 123.057 113.492 120.171C112.775 110.073 101.387 109.181 93.5019 109.117C83.3395 109.117 73.1612 108.703 63.2377 106.314C51.7055 103.542 40.9378 97.6011 35.2673 86.7701C30.9905 78.2133 30.0908 68.3603 32.7469 59.1704C35.4031 49.9804 41.4205 42.1266 49.6029 37.1705C58.268 31.994 68.4623 30.7038 78.3698 30.4808C83.1484 30.3852 87.9269 30.4808 92.7055 30.5764C97.4841 30.6719 102.788 31.325 107.487 29.4933C112.489 27.5501 111.708 20.8763 111.167 16.512C111.071 15.9545 111.007 15.4767 110.928 14.9829Z" fill="black"/>
</g>
<g id="Dots">
<path id="Vector" d="M46.3951 122.615C46.3805 122.147 46.4641 121.68 46.6404 121.247C46.8167 120.814 47.0816 120.423 47.4177 120.101C48.8747 118.597 50.5967 118.833 53.2459 119.677C54.6234 120.112 55.4394 121.825 55.2963 123.437C55.2812 123.668 55.2421 123.896 55.1798 124.119C54.6022 125.881 52.8538 126.832 50.8563 126.483C47.5343 125.902 46.3633 124.893 46.3951 122.615Z" fill="#F7D046"/>
<path id="Vector_2" d="M44.1977 161.937C45.1881 161.92 46.1559 162.233 46.9477 162.827C47.7396 163.422 48.3102 164.263 48.5692 165.218C49.1189 167.084 48.3752 168.763 46.5063 169.894C43.3376 171.831 40.0396 171.03 39.0179 168.15C37.9056 164.914 40.3629 161.963 44.1977 161.937Z" fill="#F7D046"/>
<path id="Vector_3" d="M36.1661 152.677C36.1661 149.898 38.1305 147.81 40.8125 147.868C43.4945 147.925 47.4667 150.092 47.3362 153.412C47.3276 154.645 46.8393 155.828 45.9734 156.712C45.1075 157.596 43.931 158.114 42.6899 158.157C39.283 158.214 36.1879 155.615 36.1661 152.677Z" fill="#F7D046"/>
<path id="Vector_4" d="M31.5503 147.555C31.5503 149.801 30.1268 151.255 27.975 151.25C25.1948 151.25 23.0651 149.459 23.0484 147.123C23.0484 145.051 24.7444 143.507 27.0074 143.529C29.7543 143.563 31.5503 145.157 31.5503 147.555Z" fill="#F7D046"/>
<path id="Vector_5" d="M44.8232 127.602C44.8232 129.848 43.3998 131.302 41.2479 131.297C38.4677 131.297 36.3381 129.506 36.3214 127.17C36.3214 125.098 38.0173 123.553 40.2804 123.576C43.0272 123.61 44.8232 125.204 44.8232 127.602Z" fill="#F7D046"/>
<path id="Vector_6" d="M34.8281 104.733C34.8281 107.869 32.8425 109.9 29.8409 109.892C25.9627 109.892 22.9921 107.391 22.9688 104.129C22.9688 101.236 25.3345 99.0801 28.4913 99.1114C32.3228 99.1585 34.8281 101.385 34.8281 104.733Z" fill="#F7D046"/>
<path id="Vector_7" d="M23.6838 161.577C23.6838 159.247 25.2892 157.545 27.512 157.658C30.1228 157.796 32.6867 159.588 32.6455 162.037C32.66 162.575 32.5648 163.11 32.366 163.609C32.1671 164.108 31.8689 164.559 31.4901 164.935C31.1112 165.311 30.6599 165.603 30.1646 165.793C29.6692 165.984 29.1405 166.068 28.6116 166.04C26.4829 165.903 23.431 164.63 23.6838 161.577Z" fill="#F7D046"/>
<path id="Vector_8" d="M18.9096 164.489C18.4976 165.205 17.9741 165.85 17.3587 166.4C16.7367 166.855 15.9933 167.116 15.2223 167.149C14.4513 167.182 13.6873 166.987 13.0269 166.586C12.3536 166.2 11.8268 165.603 11.5287 164.887C11.2305 164.171 11.1778 163.377 11.3788 162.629C11.9366 160.623 12.8581 158.756 15.0808 158.066C15.7493 157.801 16.485 157.755 17.1825 157.933C17.8799 158.112 18.5033 158.506 18.9633 159.06C19.4841 159.66 19.8095 160.403 19.8961 161.192C19.9828 161.981 19.8265 162.776 19.4481 163.473C19.2674 163.859 19.051 164.222 18.9096 164.489Z" fill="#F7D046"/>
<path id="Vector_9" d="M27.0211 126.525C25.2106 126.348 23.1689 125.79 22.0903 123.653C21.7172 122.959 21.5819 122.164 21.7046 121.388C21.8273 120.612 22.2014 119.895 22.7709 119.347C23.3273 118.746 24.0641 118.338 24.8731 118.181C25.682 118.025 26.5204 118.129 27.2651 118.478C27.7273 118.675 28.1575 118.947 28.6326 119.112C30.9695 119.88 32.1765 121.421 31.8427 123.266C31.5088 125.238 29.7818 126.513 27.0211 126.525Z" fill="#F7D046"/>
<path id="Vector_10" d="M48.5262 110.499C49.3313 110.42 50.1411 110.593 50.8447 110.994C51.2694 111.262 51.6269 111.625 51.8895 112.055C52.1521 112.484 52.3127 112.969 52.3588 113.471C52.4048 113.973 52.3352 114.479 52.1552 114.95C51.9752 115.421 51.6897 115.843 51.321 116.185C49.8712 117.517 46.6107 117.464 45.2709 116.022C44.8235 115.588 44.5181 115.028 44.3956 114.416C44.2731 113.804 44.3393 113.168 44.5853 112.595C45.1715 111.115 46.2705 110.499 48.5262 110.499Z" fill="#F7D046"/>
<path id="Vector_11" d="M56.4 155.661C54.8632 155.591 53.3775 155.089 52.115 154.212C51.5696 153.809 51.1767 153.234 51 152.581C50.8232 151.927 50.8731 151.233 51.1414 150.611C51.6529 149.31 52.9841 148.306 54.2547 148.498C55.838 148.651 57.3349 149.289 58.5397 150.326C59.5574 151.27 59.9424 152.395 59.4363 153.685C59.2307 154.31 58.8178 154.846 58.2659 155.205C57.7139 155.564 57.0558 155.725 56.4 155.661V155.661Z" fill="#F7D046"/>
<path id="Vector_12" d="M40.0263 106.589C40.0263 104.473 41.6594 103.109 44.1477 103.13C46.3887 103.155 48.0269 104.628 47.9599 106.569C47.9033 108.222 45.3841 109.967 43.1895 109.89C42.7619 109.891 42.3385 109.805 41.9451 109.638C41.5516 109.471 41.1962 109.225 40.9005 108.917C40.6047 108.608 40.3747 108.243 40.2245 107.843C40.0742 107.443 40.0068 107.016 40.0263 106.589V106.589Z" fill="#F7D046"/>
<path id="Vector_13" d="M53.0575 180.489C53.0401 181.052 52.9021 181.605 52.6528 182.109C52.4034 182.613 52.0487 183.058 51.6128 183.412C51.1769 183.766 50.6701 184.022 50.127 184.161C49.5839 184.3 49.0172 184.32 48.4657 184.22C47.3412 184.014 46.2305 183.739 45.14 183.396C44.6681 183.239 44.2375 182.977 43.8798 182.63C43.5221 182.283 43.2465 181.86 43.0734 181.392C42.9002 180.924 42.8339 180.422 42.8794 179.925C42.9248 179.428 43.0809 178.947 43.336 178.518C44.4905 176.541 46.9373 175.684 49.5087 176.396C51.6865 177.002 53.1034 178.624 53.0575 180.489Z" fill="#F7D046"/>
<path id="Vector_14" d="M37.8102 143.477C37.7358 143.477 37.5187 143.521 37.3079 143.527C35.2489 143.583 33.624 142.405 33.3449 140.669C33.1811 139.746 33.3592 138.795 33.8454 137.996C34.3315 137.198 35.0916 136.608 35.9807 136.339C39.2553 135.142 42.5546 137.085 42.4802 140.162C42.4182 142.487 40.9359 143.571 37.8102 143.477Z" fill="#F7D046"/>
<path id="Vector_15" d="M24.7965 194.662C24.7221 194.662 24.5051 194.705 24.2942 194.712C22.2352 194.768 20.6103 193.59 20.3312 191.854C20.1674 190.931 20.3456 189.979 20.8317 189.181C21.3178 188.382 22.0779 187.792 22.967 187.524C26.2416 186.327 29.541 188.269 29.4665 191.346C29.4045 193.671 27.9223 194.756 24.7965 194.662Z" fill="#F7D046"/>
<path id="Vector_16" d="M37.8573 120.825C37.7946 120.825 37.6118 120.863 37.4289 120.868C35.6995 120.911 34.3306 119.907 34.0955 118.419C33.9563 117.628 34.1058 116.812 34.5156 116.127C34.9253 115.442 35.5664 114.937 36.316 114.707C39.0695 113.681 41.8543 115.347 41.7864 117.984C41.7394 119.998 40.4906 120.933 37.8573 120.825Z" fill="#F7D046"/>
<path id="Vector_17" d="M48.8378 137.396C48.8378 135.312 50.2181 134.031 52.3923 134.074C55.4766 134.128 57.2234 135.445 57.2295 137.697C57.2295 139.733 55.6782 141.146 53.4795 141.098C50.2913 141.055 48.8011 139.86 48.8378 137.396Z" fill="#F7D046"/>
<path id="Vector_18" d="M14.1878 150.069C11.3759 150.069 9.46314 148.222 9.4479 145.471C9.42198 144.824 9.52934 144.179 9.76299 143.578C9.99664 142.977 10.3514 142.432 10.8041 141.98C11.2569 141.528 11.7975 141.179 12.391 140.954C12.9844 140.73 13.6174 140.636 14.2488 140.678C14.8659 140.66 15.4801 140.77 16.0545 141.001C16.6289 141.233 17.1515 141.58 17.5908 142.024C18.0302 142.468 18.3772 142.997 18.6109 143.582C18.8446 144.166 18.9601 144.793 18.9506 145.424C18.9569 146.055 18.8362 146.681 18.5962 147.263C18.3562 147.844 18.0019 148.369 17.5553 148.804C17.1087 149.24 16.5793 149.577 16 149.795C15.4208 150.012 14.8039 150.106 14.1878 150.069V150.069Z" fill="#F7D046"/>
<path id="Vector_19" d="M24.8942 136.964C22.699 136.994 21.1516 135.532 21.1336 133.406C21.1159 132.912 21.2001 132.421 21.3808 131.963C21.5615 131.504 21.8347 131.09 22.1828 130.745C22.5308 130.401 22.9461 130.134 23.4017 129.963C23.8573 129.792 24.3433 129.719 24.8282 129.75C25.3051 129.726 25.7818 129.8 26.2297 129.968C26.6777 130.136 27.0877 130.394 27.435 130.727C27.7824 131.059 28.06 131.46 28.2512 131.904C28.4424 132.349 28.5433 132.828 28.5477 133.313C28.5521 133.798 28.4601 134.279 28.2771 134.727C28.0941 135.175 27.8238 135.58 27.4826 135.92C27.1414 136.259 26.7363 136.525 26.2915 136.701C25.8467 136.877 25.3714 136.96 24.8942 136.946L24.8942 136.964Z" fill="#F7D046"/>
<path id="Vector_20" d="M31.7628 180.558C30.9127 180.478 30.0698 180.337 29.2404 180.136C28.1979 179.887 27.2856 179.268 26.6776 178.399C26.0696 177.529 25.8087 176.47 25.9446 175.423C26.1288 174.308 26.7323 173.301 27.6354 172.603C28.5386 171.905 29.6756 171.565 30.8211 171.653C32.4355 171.757 33.997 172.261 35.3613 173.116C37.1353 174.216 37.4801 175.878 36.9588 177.772C36.53 179.533 34.8484 180.525 31.7628 180.558Z" fill="#F7D046"/>
<path id="Vector_21" d="M38.5788 193.843C37.6425 193.805 36.7378 193.493 35.9772 192.946C35.2166 192.399 34.6335 191.64 34.3005 190.764C33.9675 189.888 33.8991 188.934 34.104 188.019C34.3088 187.105 34.7778 186.271 35.4527 185.621C36.1275 184.971 36.9786 184.533 37.9 184.363C38.8214 184.192 39.7726 184.296 40.6354 184.662C41.4982 185.027 42.2346 185.638 42.7531 186.419C43.2716 187.199 43.5493 188.115 43.5518 189.052C43.5522 189.697 43.4225 190.335 43.1705 190.929C42.9184 191.522 42.5491 192.058 42.0847 192.506C41.6204 192.953 41.0705 193.302 40.4681 193.532C39.8657 193.761 39.223 193.867 38.5788 193.843Z" fill="#F7D046"/>
<path id="Vector_22" d="M56.7677 172.001C55.8314 171.964 54.9268 171.652 54.1662 171.105C53.4055 170.557 52.8225 169.799 52.4895 168.923C52.1564 168.047 52.0881 167.092 52.2929 166.178C52.4978 165.264 52.9668 164.429 53.6416 163.779C54.3165 163.129 55.1675 162.692 56.0889 162.521C57.0103 162.351 57.9615 162.455 58.8244 162.82C59.6872 163.186 60.4236 163.797 60.9421 164.577C61.4605 165.358 61.7383 166.274 61.7407 167.211C61.7412 167.856 61.6115 168.494 61.3594 169.087C61.1074 169.681 60.7381 170.217 60.2737 170.664C59.8094 171.112 59.2595 171.461 58.6571 171.69C58.0546 171.92 57.412 172.026 56.7677 172.001Z" fill="#F7D046"/>
<path id="Vector_23" d="M17.3102 185.315C16.3739 185.278 15.4692 184.966 14.7086 184.419C13.948 183.871 13.365 183.113 13.032 182.237C12.6989 181.361 12.6306 180.406 12.8354 179.492C13.0402 178.578 13.5092 177.743 14.1841 177.093C14.859 176.443 15.71 176.006 16.6314 175.835C17.5528 175.665 18.504 175.769 19.3668 176.134C20.2297 176.5 20.966 177.111 21.4845 177.891C22.003 178.672 22.2807 179.588 22.2832 180.525C22.2837 181.17 22.154 181.808 21.9019 182.401C21.6498 182.995 21.2805 183.531 20.8162 183.978C20.3518 184.426 19.802 184.775 19.1995 185.004C18.5971 185.234 17.9545 185.34 17.3102 185.315Z" fill="#F7D046"/>
<path id="Vector_24" d="M14.9312 108.136C15.5626 108.115 16.1919 108.219 16.7822 108.442C17.3726 108.665 17.9121 109.002 18.3692 109.435C18.8263 109.867 19.1917 110.386 19.444 110.961C19.6962 111.535 19.8303 112.154 19.8384 112.781C19.8352 114.046 19.3418 115.261 18.4603 116.176C17.5787 117.09 16.3766 117.633 15.1026 117.693C13.741 117.745 12.4129 117.267 11.4017 116.361C10.3905 115.454 9.77638 114.192 9.6903 112.843C9.63618 110.418 12.1168 108.172 14.9312 108.136Z" fill="#F7D046"/>
<path id="Vector_25" d="M16.3687 131.433C16.3408 132.664 15.8455 133.836 14.9866 134.703C14.1276 135.571 12.9716 136.067 11.7607 136.088C10.5499 136.109 9.37808 135.653 8.49086 134.815C7.60364 133.977 7.06985 132.822 7.00126 131.594C6.95745 128.334 8.5698 126.543 11.6017 126.526C14.6336 126.508 16.3511 128.2 16.3687 131.433Z" fill="#F7D046"/>
</g>
</g>
</svg>
