<svg width="130" height="122" viewBox="0 0 130 122" fill="none" xmlns="http://www.w3.org/2000/svg">
<g id="Rainbow" clip-path="url(#clip0_179_8242)">
<path id="Small 3" d="M124.779 54.7877C125.9 56.7284 127.122 58.6165 128.141 60.6097C129.841 64.035 129.294 66.0885 126.034 68.638C124.957 69.4012 123.812 70.0625 122.613 70.6133C121.199 71.3289 119.759 71.9899 118.314 72.6293C117.716 72.9073 117.086 73.1103 116.439 73.2335C115.232 73.4456 114.211 73.1285 113.587 71.9715C113.058 71.0555 112.532 70.1441 112.064 69.1926C110.144 65.5168 108.303 61.7945 106.29 58.1657C103.82 53.7241 101.357 49.2722 98.6096 44.9719C94.603 38.8377 89.9838 33.1261 84.8232 27.9248C82.6228 25.6633 80.5181 23.3276 77.8904 21.4827C73.5029 18.4218 68.5873 16.1972 63.3906 14.9207C56.9602 13.2232 50.1424 13.7569 44.0518 16.4345C33.9986 20.7719 26.432 27.8665 22.0431 38.075C19.0563 44.9445 17.676 52.4035 18.007 59.8843C18.4718 71.4683 20.4369 82.9422 23.8531 94.0191C25.3125 98.7294 26.8894 103.403 28.5069 108.06C29.1951 110.049 30.1253 111.955 30.9142 113.91C31.3915 115.108 31.196 115.97 30.1304 116.667C27.6462 118.29 25.1444 119.905 22.2769 120.798C20.8536 121.236 20.187 121.042 19.3244 119.941C16.4843 116.298 13.7601 112.551 11.6995 108.415C9.9897 104.995 8.48307 101.458 7.09622 97.9205C5.78043 94.5502 4.60786 91.1223 3.56034 87.6601C1.82621 81.95 1.35798 76.0316 1.0386 70.1091C0.302094 56.3815 3.17113 43.3549 8.9118 30.9369C11.7245 24.8179 15.9495 19.4527 21.2395 15.2824C25.5865 11.822 29.9555 8.44337 34.8908 5.87099C45.7817 0.212675 57.043 -0.962809 68.7596 2.95021C78.4711 6.19507 86.9295 11.58 94.7966 17.9926C99.7364 21.9408 104.317 26.318 108.485 31.073C111.279 34.3078 113.859 37.7289 116.427 41.1507C118.162 43.4672 119.766 45.8966 121.322 48.3411C122.628 50.3952 123.759 52.5625 124.978 54.6731L124.779 54.7877Z" fill="#EA552B"/>
<path id="Small 2" d="M32.9169 104.72C29.143 98.7837 27.0093 91.9885 24.9498 85.1693C23.1689 79.4435 22.1504 73.5075 21.9208 67.5147C21.5794 56.5557 23.89 46.2943 30.1495 37.1212C38.692 24.6343 53.7176 19.6549 67.3427 24.1344C72.1697 25.7642 76.5659 28.4619 80.2037 32.0266C86.4974 37.9655 91.6454 45.0103 95.3914 52.8103C98.0595 58.4029 100.618 64.0462 103.229 69.6594C103.838 70.9761 104.473 72.284 105.003 73.6275C105.533 74.971 105.161 76.0172 103.93 76.8537C100.951 78.8756 97.6012 80.0794 94.289 81.4251C92.8567 82.0002 91.6803 81.4139 90.7543 80.3557C89.9341 79.4077 89.1815 78.4033 88.5021 77.3497C84.3517 71.0012 80.3138 64.575 76.0648 58.296C72.9678 53.7065 69.5772 49.318 64.8594 46.1993C62.7627 44.816 60.613 43.5262 58.1138 42.9734C52.5281 41.7346 48.1617 43.7645 44.6796 48.0791C42.1158 51.2397 40.7424 55.1987 40.7988 59.2659C40.7468 67.1139 41.8382 74.9268 44.0387 82.4588C45.7483 88.1263 47.8492 93.675 49.7386 99.2829C50.1656 100.386 50.4559 101.538 50.6032 102.712C50.6762 103.551 50.4432 104.387 49.9471 105.068C47.4688 107.813 44.4824 110.052 41.1529 111.662C40.4546 112.066 39.6349 112.206 38.8426 112.057C38.0503 111.908 37.3378 111.48 36.8344 110.851C36.3 110.269 35.8191 109.641 35.3975 108.973C34.557 107.626 33.7975 106.245 32.9169 104.72Z" fill="#F7D046"/>
<path id="Small 1" d="M58.4859 64.3532C57.6449 65.5376 57.8488 66.742 57.9226 67.8956C58.2347 72.7142 59.3711 77.378 60.5872 82.0272C61.5642 85.7821 62.5413 89.5369 63.4676 93.3021C63.9328 95.1992 63.5949 95.9672 62.0033 96.9428C60.7809 97.7339 59.5192 98.4624 58.2228 99.1254C56.363 100.029 54.5951 99.2808 53.9503 97.3237C51.302 89.3209 48.9113 81.2512 47.7752 72.8665C47.1248 68.0731 46.915 63.2899 47.8 58.5041C48.0356 57.1418 48.4795 55.8237 49.1163 54.5962C50.526 52.0069 53.0716 51.4942 55.739 51.4652C59.4038 51.4395 62.4885 52.9953 65.3259 55.1598C67.9692 57.1845 70.0416 59.7591 72.0168 62.3836C77.1122 69.1246 80.5162 76.7666 83.4259 84.6437C84.1581 86.6322 83.8438 87.5502 81.9476 88.5002C80.177 89.384 78.3333 90.1085 76.5114 90.8707C75.9957 91.115 75.4111 91.1717 74.8583 91.0311C74.3055 90.8905 73.8192 90.5614 73.4835 90.1006C72.9374 89.4384 72.4783 88.7091 72.1171 87.9305C70.54 84.5222 69.0486 81.0769 67.4573 77.6768C65.866 74.2766 64.3448 70.9871 62.6133 67.7371C62.216 66.9048 61.6403 66.1702 60.927 65.5853C60.2137 65.0005 59.3803 64.5799 58.4859 64.3532V64.3532Z" fill="#FF90E7"/>
</g>
<defs>
<clipPath id="clip0_179_8242">
<rect width="130" height="122" fill="white"/>
</clipPath>
</defs>
</svg>
