<svg width="26" height="114" viewBox="0 0 26 114" fill="none" xmlns="http://www.w3.org/2000/svg">
<g id="wiggle">
<path id="Vector" d="M1.33359 1.65419C5.16 5.53 9.13964 9.60458 9.89603 13.9673C10.261 15.9585 9.75475 17.9657 8.41292 19.8481C7.13251 21.6146 5.38246 23.2792 3.80048 24.9786C2.2185 26.678 0.755171 28.4767 0.216309 30.3525C-0.307061 32.198 0.121934 34.0802 1.46213 35.8184C4.08228 39.2644 9.40168 41.9874 12.0861 45.4185C13.4831 47.232 14.081 49.1762 13.8386 51.1171C13.5962 53.0579 12.5193 54.9493 10.6821 56.6608C8.70464 58.4745 6.09931 60.0994 4.68542 62.0572C3.34435 63.9001 2.83769 65.87 3.20232 67.8237C3.56218 69.739 4.76991 71.5895 6.73706 73.2398C8.54645 74.7579 11.0331 76.0151 13.4753 77.2747C15.7593 78.4524 18.2064 79.6722 19.6895 81.1579C21.3802 82.8474 21.4494 84.6362 20.4755 86.4375C19.4374 88.3655 17.4006 90.1493 15.6159 91.9207C13.6869 93.8089 12.1224 95.7857 10.9441 97.8239C8.65879 101.865 8.09282 106.103 9.28301 110.261C9.59742 111.325 10.0215 112.38 10.5536 113.422C10.865 114.045 12.5854 114.105 13.5198 113.874C14.0805 113.743 14.5306 113.516 14.7903 113.234C15.0501 112.952 15.1026 112.633 14.9386 112.333C12.9591 108.309 12.7902 104.114 14.4443 100.052C15.2544 98.032 16.5216 96.0649 18.2212 94.1891C19.912 92.3208 21.9982 90.5468 23.5554 88.6487C25.1127 86.7505 26.2251 84.6735 25.6318 82.6164C25.1127 80.83 23.4269 79.2474 21.1825 77.856C18.9381 76.4647 16.4217 75.3219 14.1031 74.0299C11.6906 72.6883 9.77741 71.2398 8.6898 69.5031C7.621 67.7726 7.41559 65.9364 8.09163 64.1565C8.81341 62.2584 10.7365 60.6783 12.7535 59.0659C15.0325 57.2497 16.8765 55.3963 17.8059 53.2894C18.6835 51.2933 18.7675 49.2298 18.0531 47.2173C17.3377 45.3206 15.9656 43.5016 13.9993 41.8433C12.1603 40.2458 10.0147 38.7452 8.17563 37.1502C6.43545 35.6396 4.95235 34.0047 4.65573 32.2457C4.35911 30.4867 5.32807 28.7476 6.63321 27.1252C9.56976 23.5252 13.9252 20.1959 14.5135 16.2158C15.166 11.7884 12.1899 7.52004 8.58105 3.54485C7.66152 2.55106 6.69254 1.55726 5.71369 0.563464C4.43822 -0.730957 0.132264 0.449148 1.32369 1.65164L1.33359 1.65419Z" fill="black"/>
</g>
</svg>
