<svg width="126" height="135" viewBox="0 0 126 135" fill="none" xmlns="http://www.w3.org/2000/svg">
<path id="YellowDizziness" d="M0 65.429C2.35207 35.9976 38.5478 4.57018 66.7871 0C84.3115 5.78504 61.5597 16.7623 54.5616 20.5225C37.8213 32.0926 5.95228 53.2802 19.1064 76.4638C31.7234 92.3727 43.5565 122.021 68.5871 108.426C78.5616 102.844 92.2674 99.8933 100.05 92.0835C97.3055 59.6583 94.2425 30.574 58.4387 61.8711C43.0196 71.0259 39.97 88.4534 62.4889 86.096C64.899 84.9679 69.8937 82.9431 68.8048 79.4432C68.2229 76.6943 67.8588 73.904 67.7158 71.0982C67.9917 64.1996 78.5471 63.867 79.5054 70.7656C85.6469 85.8646 71.9843 99.1847 56.7394 96.6827C29.2986 95.9596 29.4732 60.8008 48.3769 48.3052C94.5036 8.34496 123.062 39.266 125.661 90.9554C130.293 117.234 86.2425 128.399 66.7581 134.343C53.5313 136.773 42.7873 132.391 34.4534 122.368C22.1123 105.114 1.10344 87.2531 0 65.429Z" fill="#FFC900"/>
</svg>
