<svg width="108" height="92" viewBox="0 0 108 92" fill="none" xmlns="http://www.w3.org/2000/svg">
<g id="YellowDots">
<path id="Vector" d="M40.2372 68.852C41.9165 68.697 43.5998 69.1045 45.0187 70.0095C46.0415 70.7452 46.8177 71.7691 47.2467 72.9483C47.6756 74.1274 47.7374 75.4074 47.424 76.6219C47.3219 77.2296 47.2053 77.8517 47.0887 78.4594C44.6542 82.641 40.485 83.9432 36.9864 81.5703C35.904 80.9113 35.0407 79.9509 34.5042 78.8086C33.9676 77.6663 33.7814 76.3926 33.9688 75.146C34.1306 73.8536 34.6472 72.6302 35.4622 71.6095C36.2772 70.5887 37.3592 69.81 38.5899 69.3584C39.1283 69.1571 39.6784 68.988 40.2372 68.852V68.852Z" fill="#F7D046"/>
<path id="Vector_2" d="M25.6575 78.4427C24.8879 78.4543 24.1237 78.3138 23.4093 78.0294C22.6949 77.7449 22.0446 77.3222 21.4962 76.7858C20.9479 76.2494 20.5124 75.6101 20.2152 74.905C19.9181 74.1999 19.765 73.4432 19.7651 72.6788C19.7651 69.358 22.947 65.8763 25.9816 65.8617C26.777 65.81 27.5745 65.9246 28.3226 66.198C29.0707 66.4715 29.7527 66.8977 30.3246 67.4491C30.8966 68.0005 31.3457 68.6649 31.643 69.3994C31.9403 70.1339 32.0792 70.9222 32.0507 71.7133C31.874 74.8878 29.4286 78.5743 25.6575 78.4427Z" fill="#F7D046"/>
<path id="Vector_3" d="M12.391 82.7168C12.3073 84.3415 11.5936 85.8676 10.4042 86.965C9.21473 88.0624 7.64524 88.6428 6.03525 88.5807C5.29321 88.5807 4.53504 88.4178 3.79301 88.2875C3.16543 88.1807 2.56703 87.9421 2.03648 87.5872C1.50594 87.2322 1.05505 86.7688 0.712973 86.2269C0.370897 85.685 0.145242 85.0766 0.0505905 84.4411C-0.0440612 83.8056 -0.00560203 83.1571 0.163484 82.5376C0.356489 81.6354 0.727448 80.7818 1.25424 80.0275C1.78102 79.2732 2.45285 78.6338 3.22965 78.1474C4.00645 77.6609 4.8723 77.3375 5.77559 77.1962C6.67887 77.055 7.60107 77.0988 8.48719 77.3252C9.6303 77.6725 10.63 78.3869 11.3345 79.3599C12.0391 80.333 12.41 81.5116 12.391 82.7168V82.7168Z" fill="#F7D046"/>
<path id="Vector_4" d="M11.988 71.6672C11.1827 69.8425 10.9598 67.8136 11.3496 65.8574C11.5149 64.9558 11.9602 64.1294 12.6219 63.4957C13.2836 62.8621 14.1281 62.4534 15.0352 62.3279C17.1828 62.0084 18.6338 62.9089 19.7656 65.2328C20.5202 67.8327 19.0256 69.8952 17.8648 71.8705C16.7039 73.8458 14.1501 73.5553 11.988 71.6672Z" fill="#F7D046"/>
<path id="Vector_5" d="M26.8313 85.8523C26.8192 87.2654 26.2648 88.6184 25.2853 89.6252C24.3057 90.632 22.9778 91.2137 21.5823 91.2474C20.8783 91.2528 20.18 91.1177 19.5276 90.8498C18.8751 90.582 18.2811 90.1867 17.7795 89.6864C17.2779 89.1862 16.8786 88.5908 16.6043 87.9344C16.33 87.2779 16.1861 86.5732 16.1808 85.8604C16.1755 85.1476 16.309 84.4408 16.5736 83.7802C16.8381 83.1197 17.2286 82.5183 17.7227 82.0105C18.2169 81.5028 18.8049 81.0985 19.4534 80.8208C20.1019 80.5431 20.798 80.3974 21.5021 80.3921C22.9213 80.4092 24.2768 80.992 25.2744 82.0141C26.272 83.0363 26.8314 84.4153 26.8313 85.8523Z" fill="#F7D046"/>
<path id="Vector_6" d="M68.8197 77.3031C68.8024 78.8111 68.2087 80.2534 67.1636 81.3263C66.1186 82.3991 64.7038 83.0187 63.2172 83.0545C61.7042 83.0706 60.2468 82.4764 59.1657 81.4027C58.0846 80.3289 57.4683 78.8636 57.4525 77.3291C57.4366 75.7945 58.0225 74.3164 59.0811 73.22C60.1398 72.1235 61.5846 71.4985 63.0976 71.4824C64.6154 71.4916 66.0682 72.1083 67.1398 73.1984C68.2115 74.2885 68.8152 75.7637 68.8197 77.3031Z" fill="#F7D046"/>
<path id="Vector_7" d="M38.9274 59.0901C38.0676 59.1005 37.2143 58.9399 36.4171 58.6175C35.62 58.2952 34.8949 57.8176 34.2839 57.2125C33.673 56.6074 33.1885 55.8869 32.8585 55.0929C32.5285 54.2988 32.3597 53.4471 32.3618 52.5873C32.3618 50.8626 33.047 49.2086 34.2665 47.9891C35.486 46.7696 37.1401 46.0845 38.8647 46.0845C40.5894 46.0845 42.2434 46.7696 43.463 47.9891C44.6825 49.2086 45.3676 50.8626 45.3676 52.5873C45.3759 53.4383 45.2154 54.2825 44.8955 55.0711C44.5756 55.8597 44.1025 56.5771 43.5036 57.1817C42.9048 57.7864 42.192 58.2664 41.4065 58.594C40.6211 58.9215 39.7784 59.0902 38.9274 59.0901Z" fill="#F7D046"/>
<path id="Vector_8" d="M46.29 57.9734C46.3186 56.8662 46.6761 55.7926 47.3168 54.8891C47.9576 53.9857 48.8527 53.2933 49.8883 52.9C50.9238 52.5068 52.0529 52.4305 53.132 52.6808C54.211 52.9312 55.1912 53.4969 55.9477 54.3059C56.7042 55.115 57.2029 56.1308 57.3802 57.2241C57.5576 58.3173 57.4057 59.4387 56.9437 60.4453C56.4818 61.452 55.7307 62.2985 54.7862 62.877C53.8416 63.4556 52.7462 63.7401 51.6395 63.6943C50.1821 63.6145 48.8119 62.9747 47.815 61.9087C46.8182 60.8426 46.2718 59.4327 46.29 57.9734V57.9734Z" fill="#F7D046"/>
<path id="Vector_9" d="M21.615 49.7825C21.5653 48.7816 21.8213 47.7894 22.3487 46.9388C22.8761 46.0882 23.6497 45.4199 24.5658 45.0235C25.4603 44.7147 26.4241 44.6697 27.3433 44.8936C28.2625 45.1176 29.0986 45.6012 29.753 46.2874C30.3965 47.0024 30.7986 47.9035 30.9018 48.8619C31.005 49.8203 30.8041 50.7869 30.3276 51.6236C29.688 52.7004 28.9214 53.6958 28.0446 54.5882C27.6531 55.0335 27.15 55.3651 26.5876 55.5487C26.0252 55.7323 25.4241 55.761 24.8469 55.632C24.2697 55.5029 23.7375 55.2208 23.3056 54.8149C22.8738 54.4091 22.5581 53.8944 22.3915 53.3244C22.0561 52.162 21.7967 50.9788 21.615 49.7825V49.7825Z" fill="#F7D046"/>
<path id="Vector_10" d="M53.8863 20.1051C55.3266 19.9574 56.7734 20.3149 57.9848 21.1178C58.8628 21.7603 59.5293 22.656 59.8971 23.6881C60.2649 24.7201 60.317 25.8406 60.0466 26.9031C59.9591 27.4348 59.8592 27.9665 59.7592 28.4981C57.6724 32.1567 54.0987 33.3086 51.0998 31.2325C50.1685 30.6589 49.4251 29.8196 48.9627 28.8197C48.5004 27.8198 48.3397 26.7039 48.5007 25.6119C48.6397 24.483 49.0811 23.4142 49.7772 22.5215C50.4733 21.6289 51.3974 20.9464 52.4493 20.5482C52.9157 20.3613 53.3963 20.2131 53.8863 20.1051Z" fill="#F7D046"/>
<path id="Vector_11" d="M41.374 28.3641C40.7311 28.3776 40.092 28.2588 39.4945 28.015C38.8969 27.7711 38.3531 27.4069 37.8949 26.944C37.4367 26.4811 37.0736 25.9288 36.8268 25.3197C36.58 24.7105 36.4547 24.0568 36.4581 23.3972C36.4581 20.5356 39.1127 17.5353 41.6444 17.5227C42.3075 17.478 42.9723 17.5768 43.5958 17.8125C44.2193 18.0482 44.7876 18.4157 45.2638 18.8911C45.74 19.3665 46.1135 19.9392 46.3602 20.5721C46.6068 21.205 46.7211 21.8841 46.6955 22.5652C46.5726 25.3007 44.5325 28.4901 41.374 28.3641Z" fill="#F7D046"/>
<path id="Vector_12" d="M14.4161 57.6912C13.9794 58.9358 13.0682 59.9574 11.8809 60.5335C10.6937 61.1096 9.32643 61.1936 8.07691 60.7673C7.49979 60.5476 6.93472 60.2974 6.38409 60.0179C5.91598 59.789 5.50111 59.4645 5.16629 59.0654C4.83147 58.6663 4.58415 58.2015 4.44032 57.701C4.29649 57.2005 4.25935 56.6755 4.3313 56.1599C4.40324 55.6443 4.58268 55.1496 4.85801 54.7077C5.21494 54.0476 5.70207 53.4666 6.29 52.9999C6.87793 52.5331 7.55448 52.1903 8.2788 51.9921C9.00313 51.7939 9.76022 51.7444 10.5044 51.8465C11.2486 51.9487 11.9644 52.2005 12.6086 52.5866C13.4234 53.1266 14.0403 53.9166 14.3664 54.8374C14.6924 55.7583 14.7099 56.76 14.4161 57.6912V57.6912Z" fill="#F7D046"/>
<path id="Vector_13" d="M8.42535 45.2742C8.18965 43.4748 8.5192 41.6471 9.36843 40.0437C9.7441 39.2974 10.3463 38.689 11.0891 38.3055C11.8318 37.9219 12.6771 37.7828 13.504 37.908C15.459 38.198 16.4941 39.3588 16.8863 41.6652C16.803 44.1338 14.9569 45.5703 13.4325 46.992C11.908 48.4137 9.73682 47.5499 8.42535 45.2742Z" fill="#F7D046"/>
<path id="Vector_14" d="M41.3737 39.5102C41.358 40.858 40.8192 42.1471 39.8709 43.106C38.9225 44.0649 37.6386 44.6187 36.2896 44.6508C34.984 44.5644 33.7593 43.9889 32.8602 43.0394C31.9611 42.0898 31.454 40.8363 31.4402 39.5294C31.4265 38.2226 31.9071 36.9587 32.786 35.9905C33.6649 35.0223 34.8773 34.4212 36.1807 34.3074C37.5582 34.3156 38.8766 34.8668 39.8492 35.8412C40.8217 36.8156 41.3697 38.1342 41.3737 39.5102Z" fill="#F7D046"/>
<path id="Vector_15" d="M50.0252 16.0782C49.3476 16.0848 48.6755 15.9544 48.0477 15.6944C47.42 15.4345 46.8491 15.0502 46.3682 14.5638C45.8873 14.0774 45.506 13.4986 45.2463 12.8609C44.9867 12.2233 44.8538 11.5394 44.8555 10.8491C44.8555 9.46558 45.3949 8.13874 46.3552 7.16045C47.3155 6.18217 48.6179 5.63257 49.9759 5.63257C51.3339 5.63257 52.6363 6.18217 53.5965 7.16045C54.5568 8.13874 55.0963 9.46558 55.0963 10.8491C55.1028 11.5323 54.9765 12.2102 54.7247 12.8435C54.473 13.4768 54.1007 14.0531 53.6293 14.5391C53.1579 15.0252 52.5968 15.4114 51.9782 15.6756C51.3597 15.9397 50.6959 16.0766 50.0252 16.0782V16.0782Z" fill="#F7D046"/>
<path id="Vector_16" d="M59.1938 5.3373C59.2219 4.25042 59.5728 3.19647 60.2018 2.30959C60.8308 1.42271 61.7095 0.743004 62.726 0.356975C63.7426 -0.0290551 64.851 -0.103953 65.9103 0.141812C66.9695 0.387578 67.9317 0.942896 68.6743 1.73709C69.4169 2.53128 69.9064 3.52844 70.0806 4.60166C70.2547 5.67488 70.1055 6.77563 69.652 7.76382C69.1986 8.75202 68.4613 9.58296 67.5341 10.1509C66.6068 10.7189 65.5316 10.9982 64.4451 10.9532C63.0145 10.8748 61.6694 10.2468 60.6908 9.20033C59.7123 8.15384 59.1759 6.76982 59.1938 5.3373V5.3373Z" fill="#F7D046"/>
<path id="Vector_17" d="M19.0813 33.1851C19.2458 32.3628 19.6686 31.6145 20.2891 31.0477C20.9096 30.4809 21.6959 30.1247 22.5351 30.0301C23.3744 29.9356 24.2235 30.1076 24.9605 30.5215C25.6976 30.9354 26.2847 31.57 26.6376 32.334C26.9872 33.0727 27.0923 33.9015 26.9379 34.701C26.7835 35.5005 26.3775 36.2297 25.7782 36.7836C25.0099 37.4953 24.1588 38.1137 23.2429 38.6258C22.8132 38.8922 22.319 39.039 21.8117 39.0509C21.3044 39.0629 20.8024 38.9396 20.3582 38.6939C19.9139 38.4481 19.5436 38.0889 19.2857 37.6537C19.0278 37.2185 18.8918 36.7231 18.8919 36.2191C18.8926 35.2046 18.9559 34.1914 19.0813 33.1851V33.1851Z" fill="#F7D046"/>
<path id="Vector_18" d="M90.3838 52.3374C92.0652 53.3493 93.3595 54.9059 94.0569 56.7549C94.5133 58.16 94.5428 59.6713 94.1415 61.0936C93.7402 62.5159 92.9265 63.7838 91.8057 64.7336L90.2145 66.2575C85.1365 68.5518 80.2277 66.9081 78.6027 62.2338C78.0418 60.8543 77.8936 59.3385 78.1765 57.8745C78.4593 56.4105 79.1608 55.0627 80.1939 53.9982C81.2384 52.8649 82.5707 52.0435 84.0453 51.6238C85.5199 51.2041 87.0801 51.2022 88.5557 51.6183C89.1792 51.8195 89.7897 52.0597 90.3838 52.3374V52.3374Z" fill="#F7D046"/>
<path id="Vector_19" d="M69.9844 51.3091C68.5333 50.2555 67.5583 48.6785 67.2698 46.9185C66.9814 45.1584 67.4027 43.3565 68.4428 41.9017C70.7552 38.7943 76.1509 37.7075 79.0115 39.7622C79.8004 40.2483 80.4771 40.8937 80.9976 41.6564C81.5181 42.4191 81.8706 43.2819 82.0322 44.1887C82.1938 45.0954 82.1609 46.0258 81.9356 46.9191C81.7102 47.8124 81.2976 48.6486 80.7244 49.3733C78.275 52.2091 73.4445 54.009 69.9844 51.3091Z" fill="#F7D046"/>
<path id="Vector_20" d="M60.8647 46.7638C59.8875 47.974 58.4797 48.7472 56.9447 48.9169C55.4096 49.0866 53.8701 48.6392 52.6578 47.6711C52.1168 47.2019 51.5913 46.6856 51.1122 46.1068C50.6859 45.6631 50.3563 45.1339 50.1445 44.5533C49.9328 43.9726 49.8438 43.3535 49.8831 42.7359C49.9224 42.1182 50.0892 41.5158 50.3728 40.9675C50.6564 40.4192 51.0505 39.9371 51.5295 39.5525C52.186 38.9648 52.9524 38.5167 53.7834 38.2349C54.6143 37.953 55.4927 37.8431 56.3665 37.9117C57.2402 37.9802 58.0914 38.2259 58.8695 38.6341C59.6476 39.0423 60.3366 39.6046 60.8956 40.2877C61.5907 41.2221 61.964 42.3614 61.9584 43.531C61.9528 44.7007 61.5686 45.8362 60.8647 46.7638V46.7638Z" fill="#F7D046"/>
<path id="Vector_21" d="M63.29 30.4124C63.7306 28.3789 64.7564 26.5305 66.2327 25.1098C66.9082 24.4495 67.7683 24.0264 68.6905 23.9009C69.6126 23.7754 70.5496 23.9539 71.3677 24.4109C73.3099 25.4745 73.9572 27.1154 73.4864 29.8198C72.5448 32.5395 70.0435 33.2992 67.9542 34.2564C65.8649 35.2136 63.8933 33.3903 63.29 30.4124Z" fill="#F7D046"/>
<path id="Vector_22" d="M68.4102 17.0093C68.8523 14.9673 69.9112 13.1119 71.4424 11.6965C72.1384 11.0349 73.0247 10.611 73.9749 10.4852C74.9251 10.3595 75.8906 10.5383 76.7336 10.9962C78.7349 12.0466 79.4019 13.7059 78.9016 16.4156C77.9313 19.0797 75.3994 19.9017 73.2011 20.8455C71.0027 21.7894 69.0469 19.9778 68.4102 17.0093Z" fill="#F7D046"/>
<path id="Vector_23" d="M74.2297 65.1614C73.3335 66.3676 72.0067 67.1757 70.5296 67.4149C69.0526 67.6542 67.541 67.3059 66.3143 66.4436C65.0707 65.5475 64.2316 64.1907 63.9815 62.6716C63.7314 61.1525 64.0908 59.5956 64.9807 58.3434C65.8707 57.0912 67.2181 56.2463 68.7268 55.9945C70.2354 55.7426 71.7816 56.1046 73.0252 57.0006C73.6377 57.4558 74.155 58.0283 74.5472 58.6853C74.9395 59.3423 75.199 60.0708 75.311 60.8291C75.4229 61.5873 75.385 62.3604 75.1994 63.1038C75.0139 63.8473 74.6843 64.5465 74.2297 65.1614V65.1614Z" fill="#F7D046"/>
<path id="Vector_24" d="M89.3735 44.9417C88.6168 44.4024 87.975 43.7178 87.4854 42.9277C86.9958 42.1376 86.6683 41.2579 86.522 40.3398C86.3756 39.4217 86.4134 38.4837 86.633 37.5804C86.8527 36.6771 87.2498 35.8266 87.8013 35.0785C88.9333 33.5844 90.6083 32.5972 92.4629 32.3311C94.3176 32.0651 96.2023 32.5416 97.708 33.6573C99.1708 34.7784 100.136 36.4292 100.395 38.2547C100.654 40.0802 100.187 41.9346 99.0943 43.4191C98.5581 44.1606 97.8806 44.7886 97.1008 45.2669C96.321 45.7452 95.4543 46.0643 94.5507 46.2058C93.6471 46.3474 92.7244 46.3085 91.8359 46.0916C90.9473 45.8746 90.1105 45.4838 89.3735 44.9417V44.9417Z" fill="#F7D046"/>
<path id="Vector_25" d="M96.5964 48.6988C97.3464 47.7294 98.3711 47.0031 99.5398 46.6125C100.709 46.2219 101.968 46.1847 103.159 46.5057C104.349 46.8266 105.416 47.4912 106.223 48.4145C107.03 49.3379 107.54 50.4782 107.69 51.69C107.839 52.9019 107.62 54.1303 107.061 55.2186C106.502 56.3069 105.628 57.2057 104.551 57.8004C103.474 58.3951 102.242 58.6588 101.012 58.5577C99.783 58.4566 98.6119 57.9954 97.6485 57.233C96.3952 56.2191 95.586 54.7653 95.39 53.1751C95.1939 51.5848 95.6262 49.9811 96.5964 48.6988V48.6988Z" fill="#F7D046"/>
<path id="Vector_26" d="M79.2284 21.5544C79.7682 20.7569 80.5488 20.1399 81.4638 19.7871C82.3789 19.4344 83.3839 19.3632 84.3423 19.5831C85.2334 19.8476 86.0273 20.3541 86.6299 21.0424C87.2324 21.7307 87.6181 22.572 87.7413 23.4663C87.8404 24.3868 87.6341 25.314 87.1524 26.1134C86.6706 26.9129 85.9384 27.543 85.0619 27.9127C83.953 28.3746 82.7915 28.7079 81.6016 28.9057C81.0315 29.0294 80.4376 29.0026 79.8819 28.8281C79.3261 28.6536 78.829 28.3378 78.4425 27.9137C78.0561 27.4895 77.7943 26.9727 77.6848 26.4172C77.5752 25.8617 77.6219 25.2879 77.8198 24.7557C78.2226 23.6622 78.693 22.5932 79.2284 21.5544Z" fill="#F7D046"/>
</g>
</svg>
