<svg width="141" height="23" viewBox="0 0 141 23" fill="none" xmlns="http://www.w3.org/2000/svg">
<g clip-path="url(#clip0_189_8341)">
<path d="M0.6 10.8497C1.1 8.24971 3.4 6.44971 6.6 6.44971C10.3 6.44971 13.2 8.04971 13.2 13.0497V22.3497H10L9.6 20.3497C8.5 21.7497 7 22.6497 4.8 22.6497C2.1 22.6497 0 20.9497 0 17.8497C0 14.7497 2.8 12.7497 6.7 12.7497H9.3V12.0497C9.3 10.2497 8 9.74971 6.5 9.74971C5.4 9.74971 4.3 10.1497 3.8 11.5497L0.6 10.8497ZM5.7 19.3497C7.5 19.3497 9.3 18.1497 9.3 16.1497V15.8497H6.8C5.1 15.7497 4.1 16.4497 4.1 17.8497C4.1 18.5497 4.7 19.3497 5.7 19.3497Z" fill="black"/>
<path d="M75.9999 10.8497C76.4999 8.24971 78.7999 6.44971 81.9999 6.44971C85.6999 6.44971 88.5999 8.04971 88.5999 13.0497V22.3497H85.3999L84.9999 20.3497C83.8999 21.7497 82.3999 22.6497 80.1999 22.6497C77.4999 22.6497 75.3999 20.9497 75.3999 17.8497C75.3999 14.7497 78.1999 12.7497 82.0999 12.7497H84.6999V12.0497C84.6999 10.2497 83.3999 9.74971 81.8999 9.74971C80.7999 9.74971 79.6999 10.1497 79.1999 11.5497L75.9999 10.8497ZM81.0999 19.3497C82.8999 19.3497 84.6999 18.1497 84.6999 16.1497V15.8497H82.0999C80.3999 15.8497 79.3999 16.4497 79.3999 17.8497C79.4999 18.5497 80.0999 19.3497 81.0999 19.3497Z" fill="black"/>
<path d="M92.1001 22.4497V6.64971H96.0001V9.24971C97.1001 7.34971 98.9001 6.44971 100.6 6.44971C101.3 6.44971 101.9 6.54971 102.5 6.74971L101.8 10.3497C101.3 10.0497 100.8 9.84971 100.2 9.84971C97.9001 9.84971 96.0001 11.7497 96.0001 16.7497V22.3497L92.1001 22.4497Z" fill="black"/>
<path d="M110.8 6.44961C112.4 6.44961 113.9 7.24961 114.6 8.14961V0.349609H118.5V22.4496H114.6V20.8496C114.1 21.6496 112.7 22.7496 110.8 22.7496C106.1 22.7496 103.7 19.4496 103.7 14.6496C103.7 9.84961 106.1 6.44961 110.8 6.44961ZM111.4 19.3496C113.4 19.3496 115 17.6496 115 14.5496C115 11.4496 113.4 9.74961 111.4 9.74961C109.4 9.74961 107.8 11.4496 107.8 14.5496C107.8 17.6496 109.4 19.3496 111.4 19.3496Z" fill="black"/>
<path d="M132.5 8.94951L130.2 11.0495C129.5 10.0495 128.4 9.64951 127.6 9.64951C126.8 9.64951 126.1 10.1495 126.1 10.9495C126.1 11.6495 126.7 12.1495 127.6 12.4495C129.8 13.2495 133.3 13.9495 133.3 17.2495C133.3 20.1495 131.1 22.4495 127.7 22.4495C124.4 22.4495 122.2 20.1495 121.5 18.2495L124.6 16.5495C125.2 18.0495 126.2 19.1495 127.8 19.1495C129 19.1495 129.8 18.5495 129.8 17.4495C129.8 16.1495 127.8 15.8495 125.9 15.0495C124.2 14.3495 122.7 13.2495 122.7 10.8495C122.7 8.44951 124.7 6.24951 127.7 6.24951C129.7 6.34951 131.6 7.44951 132.5 8.94951Z" fill="black"/>
<path d="M51.9 6.64941L49.1 17.5494L46.4 6.64941H42.8L40.2 17.5494L38 11.2494L37.7 11.9494L36.5 16.0494L38.5 22.4494H41.9L44.6 12.2494L47.3 22.4494H50.8L55.8 6.64941H51.9Z" fill="black"/>
<path d="M70.6001 6.64941L67.8001 17.5494L65.1001 6.64941H61.5001L58.9001 17.5494L56.7001 11.2494L56.4001 11.9494L55.1001 16.0494L57.2001 22.4494H60.6001L63.3001 12.2494L66.0001 22.4494H69.4001L74.5001 6.64941H70.6001Z" fill="black"/>
<path d="M37.0999 6.64941L32.0999 22.3494H28.6999L25.9999 12.2494L23.2999 22.4494H19.8999L14.8999 6.74941H18.7999L21.5999 17.5494L24.2999 6.74941H27.8999L30.5999 17.5494L33.3999 6.74941L37.0999 6.64941Z" fill="black"/>
<path d="M138.4 17.3496C139.9 17.3496 141 18.4496 141 19.9496C141 21.4496 139.9 22.5496 138.4 22.5496C136.9 22.5496 135.8 21.4496 135.8 19.9496C135.8 18.4496 136.9 17.3496 138.4 17.3496Z" fill="black"/>
</g>
<defs>
<clipPath id="clip0_189_8341">
<rect width="141" height="22.3" fill="white" transform="translate(0 0.349609)"/>
</clipPath>
</defs>
</svg>
