<svg width="101" height="19" viewBox="0 0 101 19" fill="none" xmlns="http://www.w3.org/2000/svg">
<g clip-path="url(#clip0_189_8333)">
<path d="M8.68007 0C9.53989 0 10.3342 0.0663755 11.063 0.265502C11.7918 0.398253 12.3896 0.672052 12.9218 1.00393C13.4541 1.33581 13.8472 1.80873 14.1174 2.41441C14.3794 3.02009 14.5186 3.75852 14.5186 4.56332C14.5186 5.50087 14.3221 6.30568 13.8554 6.91135C13.4541 7.51703 12.799 8.05633 11.9965 8.45459C13.1266 8.78646 13.9864 9.39214 14.5105 10.1969C15.0345 11.0017 15.3703 12.0057 15.3703 13.1507C15.3703 14.0882 15.1737 14.893 14.838 15.5651C14.5105 16.2371 13.9782 16.8428 13.3804 17.241C12.7826 17.6476 12.0538 17.9795 11.2595 18.1786C10.4652 18.3777 9.67091 18.5105 8.8766 18.5105L0 18.5271V0H8.68007ZM8.1478 7.51703C8.8766 7.51703 9.47438 7.3179 9.93295 6.97773C10.3915 6.63755 10.5962 6.04017 10.5962 5.30175C10.5962 4.8952 10.5307 4.49694 10.3997 4.23144C10.2687 3.96594 10.0722 3.75852 9.80193 3.55939C9.53989 3.42664 9.26966 3.29389 8.94211 3.22751C8.61456 3.16114 8.27882 3.16114 7.88576 3.16114H4.04524V7.52533C4.04524 7.51703 8.1478 7.51703 8.1478 7.51703ZM8.34433 15.4406C8.74558 15.4406 9.13864 15.3742 9.47438 15.3079C9.80193 15.2415 10.1377 15.1087 10.3997 14.9013C10.6617 14.6939 10.8665 14.4948 11.063 14.1629C11.194 13.831 11.325 13.4245 11.325 12.9515C11.325 12.014 11.063 11.3419 10.5307 10.869C9.99846 10.4624 9.26966 10.2633 8.40984 10.2633H4.04524V15.4323H8.34433V15.4406Z" fill="black"/>
<path d="M21.135 15.3743C21.6672 15.9136 22.4615 16.1791 23.5179 16.1791C24.2467 16.1791 24.91 15.98 25.4422 15.6398C25.9745 15.2333 26.3021 14.835 26.4331 14.4285H29.6758C29.1436 16.0381 28.3492 17.1831 27.2929 17.9215C26.2366 18.5936 24.9755 18.9918 23.4524 18.9918C22.396 18.9918 21.4625 18.7927 20.6027 18.4525C19.7429 18.1206 19.0796 17.6477 18.4818 16.9756C17.884 16.37 17.4255 15.6315 17.1552 14.7604C16.8277 13.8892 16.6885 12.9516 16.6885 11.873C16.6885 10.8691 16.8195 9.92325 17.1552 9.05207C17.491 8.18089 17.9495 7.44246 18.5473 6.77041C19.1451 6.16473 19.8739 5.62543 20.6682 5.29355C21.528 4.96167 22.3878 4.75425 23.4524 4.75425C24.5824 4.75425 25.5733 4.95338 26.4331 5.4263C27.2929 5.89923 27.9562 6.43023 28.4885 7.23504C29.0207 7.97346 29.4138 8.84464 29.684 9.7822C29.815 10.7198 29.8805 11.6656 29.815 12.7359H20.2096C20.2096 13.8311 20.6027 14.835 21.135 15.3743ZM25.3112 8.32194C24.8445 7.84901 24.1157 7.58351 23.2559 7.58351C22.6581 7.58351 22.1995 7.71626 21.7983 7.91539C21.397 8.11451 21.135 8.38831 20.8729 8.65381C20.6109 8.91932 20.4717 9.25949 20.4062 9.59137C20.3407 9.92325 20.2751 10.197 20.2751 10.4625H26.2366C26.1055 9.46691 25.7698 8.79486 25.3112 8.32194ZM19.4808 1.27783H26.8998V3.08657H19.4808V1.27783Z" fill="black"/>
<path d="M34.9824 0V6.97773H35.0479C35.5146 6.17293 36.1042 5.63362 36.833 5.30175C37.5618 4.96987 38.2251 4.76245 38.9539 4.76245C39.9448 4.76245 40.7391 4.8952 41.3368 5.169C41.9346 5.4345 42.4669 5.84105 42.7944 6.31397C43.122 6.7869 43.3922 7.38428 43.5232 8.05633C43.6543 8.72838 43.7198 9.46681 43.7198 10.338V18.5935H40.0758V11.01C40.0758 9.86507 39.8792 9.06026 39.5435 8.52926C39.2078 7.99825 38.6264 7.71616 37.7665 7.71616C36.7757 7.71616 36.0469 8.04804 35.6457 8.58734C35.1789 9.19301 34.9824 10.1969 34.9824 11.541V18.5935H31.3384V0H34.9824Z" fill="black"/>
<path d="M46.3808 7.11854C46.7821 6.51287 47.2406 6.11461 47.8384 5.70806C48.4362 5.37618 49.0995 5.10239 49.8283 4.96963C50.5571 4.83688 51.2859 4.77051 52.0147 4.77051C52.678 4.77051 53.3413 4.83688 54.0701 4.90326C54.7333 4.96963 55.3966 5.16876 55.9289 5.44256C56.5267 5.70806 56.9197 6.11461 57.321 6.58754C57.6485 7.06046 57.8533 7.73252 57.8533 8.53732V15.5897C57.8533 16.1954 57.9188 16.8011 57.9843 17.3321C58.0498 17.8714 58.2463 18.336 58.451 18.6098H54.7415C54.6105 18.4771 54.545 18.2033 54.4795 18.0041C54.414 17.805 54.414 17.5312 54.414 17.3321C53.8162 17.9378 53.1529 18.336 52.3586 18.6098C51.5643 18.8753 50.77 18.9417 49.9757 18.9417C49.3124 18.9417 48.7801 18.8753 48.1905 18.6762C47.6583 18.5434 47.1997 18.2696 46.7329 17.9378C46.3317 17.6059 46.0041 17.1993 45.7421 16.66C45.5456 16.1207 45.4146 15.5897 45.4146 14.8513C45.4146 14.1129 45.5456 13.4408 45.8158 12.9679C46.0778 12.495 46.4136 12.0967 46.8066 11.7565C47.2079 11.491 47.732 11.2172 48.2642 11.0845C48.7965 10.9517 49.3206 10.819 49.9184 10.7526C50.4506 10.6862 50.9747 10.6199 51.507 10.5535C52.0392 10.4871 52.4978 10.4207 52.8991 10.3544C53.3003 10.2216 53.6279 10.0888 53.8899 9.88142C54.1519 9.6823 54.2175 9.4085 54.2175 9.01025C54.2175 8.6037 54.1519 8.27182 54.0209 8.07269C53.8899 7.87356 53.6934 7.66614 53.4887 7.53339C53.2921 7.40064 53.0219 7.33426 52.7599 7.26789C52.4978 7.20151 52.1621 7.20151 51.8345 7.20151C51.1057 7.20151 50.5735 7.33426 50.1804 7.67444C49.7792 8.00632 49.5171 8.54562 49.4516 9.21767H45.8076C45.783 8.38798 46.0451 7.64955 46.3808 7.11854ZM53.6033 12.3539C53.4068 12.4203 53.1365 12.4867 52.8745 12.553C52.6125 12.6194 52.3422 12.6194 52.0147 12.6858C51.7526 12.7522 51.4169 12.7522 51.1549 12.8185C50.8928 12.8849 50.6226 12.9513 50.3606 13.0177C50.0985 13.084 49.8283 13.2168 49.6973 13.3495C49.5007 13.4823 49.3697 13.6814 49.2305 13.8888C49.034 14.1544 49.034 14.4281 49.034 14.76C49.034 15.0919 49.0995 15.3657 49.2305 15.5648C49.3615 15.764 49.4926 15.9714 49.6973 16.1041C49.8938 16.2369 50.164 16.3033 50.4261 16.3696C50.6881 16.436 50.9583 16.436 51.2859 16.436C52.0147 16.436 52.547 16.3033 52.94 16.1041C53.3413 15.8386 53.6033 15.5648 53.7998 15.233C53.9964 14.9011 54.1274 14.5609 54.1274 14.229C54.1929 13.8971 54.1929 13.6233 54.1929 13.4242V12.0137C53.9964 12.1465 53.7998 12.2875 53.6033 12.3539Z" fill="black"/>
<path d="M63.34 5.10239V6.98579H63.4055C63.8722 6.18099 64.4618 5.64169 65.1906 5.30981C65.9194 4.97793 66.7137 4.77051 67.4425 4.77051C68.4334 4.77051 69.2277 4.90326 69.8255 5.17706C70.4888 5.44256 70.9555 5.84911 71.2831 6.32204C71.6106 6.79496 71.8808 7.39234 72.0774 8.06439C72.2084 8.73645 72.2739 9.47487 72.2739 10.3461V18.6015H68.6299V11.0181C68.6299 9.87313 68.4334 9.06832 68.0976 8.53732C67.7701 7.99802 67.1723 7.66614 66.2388 7.66614C65.248 7.66614 64.5192 8.07269 64.0524 8.67007C63.5856 9.27575 63.3891 10.2797 63.3891 11.6238V18.6762H59.7451V5.10239C59.7615 5.10239 63.34 5.10239 63.34 5.10239Z" fill="black"/>
<path d="M80.4382 7.51679C79.8404 7.51679 79.3819 7.64954 78.9806 7.92334C78.5794 8.18884 78.2518 8.52902 77.9898 8.99365C77.7277 9.4002 77.5885 9.86483 77.4575 10.4041C77.3265 10.9434 77.3265 11.4081 77.3265 11.9474C77.3265 12.4203 77.392 12.9513 77.4575 13.4242C77.5885 13.9635 77.7196 14.3618 77.9898 14.7683C78.2518 15.1749 78.5221 15.5067 78.9151 15.7723C79.3164 16.0378 79.7749 16.1788 80.3727 16.1788C81.2325 16.1788 81.8958 15.9133 82.4281 15.4404C82.8948 14.9674 83.2224 14.2954 83.2879 13.4242H86.8009C86.5388 15.2329 85.8756 16.5771 84.7455 17.5229C83.6155 18.4605 82.1579 18.9334 80.3727 18.9334C79.3819 18.9334 78.4484 18.7343 77.654 18.3941C76.7942 18.0622 76.1309 17.5893 75.5332 16.9836C74.9354 16.3779 74.4768 15.6395 74.1411 14.8347C73.8135 13.9635 73.6743 13.0923 73.6743 12.0801C73.6743 11.0098 73.8053 10.064 74.1411 9.19277C74.4686 8.3216 74.8699 7.51679 75.4676 6.84474C76.0654 6.17269 76.7942 5.69976 77.5885 5.30151C78.4484 4.96963 79.3737 4.76221 80.4382 4.76221C81.2325 4.76221 81.9613 4.89496 82.6901 5.09408C83.4189 5.29321 84.0822 5.63339 84.6145 6.03164C85.2123 6.43819 85.6708 6.96919 86.0066 7.64125C86.3341 8.24692 86.5388 9.05173 86.6043 9.92291H83.0259C82.8867 8.3216 82.0268 7.51679 80.4382 7.51679Z" fill="black"/>
<path d="M92.2952 15.374C92.8275 15.9133 93.6873 16.1788 94.6781 16.1788C95.4069 16.1788 96.0702 15.9797 96.6025 15.6395C97.1347 15.2329 97.4623 14.8347 97.5933 14.4281H100.771C100.238 16.0377 99.444 17.1827 98.3876 17.9212C97.3313 18.5932 96.0702 18.9915 94.5471 18.9915C93.4908 18.9915 92.5572 18.7923 91.6974 18.4522C90.8376 18.1203 90.1743 17.6474 89.5765 16.9753C88.9788 16.3696 88.5202 15.6312 88.25 14.76C87.9224 13.8888 87.7832 12.9513 87.7832 11.8727C87.7832 10.8688 87.9142 9.9229 88.25 9.05172C88.5775 8.18054 89.0443 7.44212 89.642 6.77006C90.2398 6.16439 90.9686 5.62509 91.7629 5.29321C92.6228 4.96133 93.5481 4.75391 94.5471 4.75391C95.6772 4.75391 96.668 4.95303 97.4623 5.42596C98.3221 5.89888 98.9854 6.42989 99.5177 7.23469C100.05 7.97312 100.443 8.8443 100.713 9.78185C100.975 10.7194 101.041 11.7316 100.975 12.8019H91.3699C91.3699 13.8308 91.7629 14.8347 92.2952 15.374ZM96.537 8.32159C96.0702 7.84867 95.3414 7.58316 94.4816 7.58316C93.8838 7.58316 93.4252 7.71592 93.024 7.91504C92.6228 8.11417 92.2952 8.38797 92.0987 8.65347C91.9021 8.91897 91.6974 9.25915 91.6319 9.59102C91.5664 9.9229 91.5009 10.1967 91.5009 10.4622H97.4623C97.2658 9.46657 96.93 8.79452 96.537 8.32159Z" fill="black"/>
</g>
<defs>
<clipPath id="clip0_189_8333">
<rect width="101" height="19" fill="white"/>
</clipPath>
</defs>
</svg>
