<svg width="91" height="23" viewBox="0 0 91 23" fill="none" xmlns="http://www.w3.org/2000/svg">
<g clip-path="url(#clip0_189_8329)">
<path fill-rule="evenodd" clip-rule="evenodd" d="M89.8858 15.5389C89.6041 15.3328 89.3809 15.3033 89.1964 15.6959C86.0316 22.6152 80.7019 19.1605 81.2359 19.4647C82.4203 18.9151 85.5269 16.4026 85.0608 12.9184C84.7794 10.7886 82.9736 9.84642 81.0515 10.1899C77.7022 10.7788 76.4791 14.4298 77.1003 17.6588C77.2071 18.2183 77.4013 18.6698 77.6052 19.1212C73.8287 22.2324 72.3241 16.3437 72.1492 15.637C72.1397 15.5978 75.0714 13.1343 75.8869 7.25537C76.7412 1.1016 74.7996 -0.027079 72.8095 0.0121795C69.1303 0.0808817 68.1399 7.84423 69.4698 14.3121C69.3631 14.3415 68.8388 14.6359 68.0041 14.6654C67.4021 12.7515 64.8295 11.0733 64.1597 11.721C62.4802 13.3404 64.5674 16.5007 66.0431 16.7461C65.1595 22.2521 59.6261 20.8879 60.655 13.9882C62.4511 10.612 63.8296 5.57706 63.5773 2.54434C63.4898 1.47456 62.7034 0.0318087 60.9269 0.100511C57.5098 0.237916 57.1409 8.00126 57.5389 13.5171C57.5195 13.3797 57.3253 14.1845 55.9273 14.5869C55.5972 12.7319 52.6364 10.8573 51.9375 11.7603C50.6366 13.4386 52.8985 16.432 53.9663 16.6381C53.083 22.1441 47.5495 20.7799 48.5785 13.8802C50.3843 10.504 51.753 5.47891 51.5102 2.44621C51.423 1.37641 50.6366 -0.0663374 48.8599 0.00236485C45.4427 0.139769 45.0739 7.90311 45.472 13.4189C45.4525 13.2815 45.2583 14.1158 43.8021 14.5084C43.7537 12.094 40.7831 10.9947 40.0646 11.7603C38.7929 13.1343 40.3558 15.9511 41.8023 16.6381C40.9189 22.1441 35.3855 20.7799 36.4144 13.8802C38.2105 10.504 39.589 5.46911 39.3366 2.43638C39.259 1.37641 38.4726 -0.0663374 36.6959 0.00236485C33.2787 0.139769 33.007 8.29571 33.405 13.8115C32.2788 18.6894 28.5025 24.7745 28.9975 12.5749C29.0461 11.721 29.0947 11.3971 28.6772 11.0733C28.3569 10.8279 27.6385 10.9456 27.2501 10.9555C26.7744 10.9751 26.6484 11.2597 26.5511 11.6818C26.3085 12.781 26.2599 13.8508 26.2211 15.3132C26.2018 16.0002 26.1434 16.3142 25.8813 17.2466C25.6192 18.179 24.1436 19.877 23.3282 19.5923C22.202 19.1997 22.5709 15.9904 22.7844 13.7821C22.9593 12.0351 22.3962 11.2597 20.9594 10.9751C20.1148 10.7984 19.6003 10.8279 18.7266 10.5432C17.8917 10.2783 17.7073 8.6883 15.9404 9.21829C14.9696 9.51273 15.5909 11.5836 15.3579 13.1245C14.2124 20.6916 11.834 20.8977 10.7273 17.227C15.6977 4.89985 12.1543 0.0416233 10.0865 0.0416233C7.93138 0.0416233 5.46557 1.54326 6.5043 11.1616C5.9995 11.0144 5.84418 10.9358 5.28111 10.9358C2.14545 10.926 0 13.4975 0 16.6676C0 19.8377 2.14545 22.4091 5.29083 22.4091C7.14503 22.4091 8.44589 21.5552 9.4361 20.2401C10.0768 21.1725 10.8632 22.4287 12.2999 22.3699C16.5714 22.203 17.814 13.3404 17.9597 12.8399C18.4159 12.9086 18.8528 13.046 19.2702 13.1147C19.9692 13.2226 20.0275 13.5073 20.008 14.2139C19.8236 20.2401 20.9206 22.3502 23.4156 22.3502C24.8037 22.3502 26.0464 20.9664 26.9007 19.9849C27.5415 21.3197 28.5509 22.311 29.9199 22.3502C33.2205 22.4287 34.4923 17.1092 34.3758 17.8061C34.2884 18.3557 35.4436 22.311 38.8512 22.3306C43.0643 22.3502 43.8507 17.6687 43.9381 16.8835C43.9574 16.7461 43.9479 16.7265 43.9381 16.8835C43.9381 16.8933 43.9381 16.9129 43.9381 16.9326C45.2778 16.6774 45.967 15.9609 45.967 15.9609C45.967 15.9609 47.0446 22.4091 51.0153 22.3404C55.1411 22.2619 55.9273 18.0318 56.0245 17.2074C56.0438 17.0307 56.0342 17.0111 56.0245 17.2074C56.0245 17.2172 56.0245 17.227 56.0245 17.227C57.6165 16.6381 58.034 16.0591 58.034 16.0591C58.034 16.0591 58.8883 22.3797 63.0821 22.4386C66.8197 22.4877 68.2078 18.6109 68.2176 16.9915C68.8486 17.0013 70.0136 16.6087 69.9845 16.5891C69.9845 16.5891 71.3533 22.1147 75.1782 22.3993C76.9742 22.5366 78.3235 21.3786 79.0905 20.8486C80.8961 22.3306 86.9054 24.2151 90.7013 17.7079C91.2448 16.7854 90.0896 15.6763 89.8858 15.5389ZM5.13549 20.2597C3.3007 20.2597 2.12604 18.5422 2.12604 16.697C2.12604 14.8519 3.20362 13.1343 5.03843 13.1343C5.8636 13.1343 6.31986 13.2226 6.97029 13.7919C7.08679 14.2532 7.41685 15.323 7.5819 15.8137C7.79546 16.4615 8.05758 17.0209 8.30999 17.6196C7.93138 19.1703 6.72759 20.2597 5.13549 20.2597ZM9.60114 13.841C9.52348 13.7134 9.5429 13.7919 9.45552 13.6741C9.12546 12.7515 8.47503 10.6905 8.39737 8.34478C8.30999 5.69484 8.74685 2.58361 10.038 2.58361C10.9117 2.58361 11.8437 8.8846 9.60114 13.841ZM35.4338 11.0831C35.2301 9.51273 35.2203 2.49529 36.8805 2.69156C37.8027 3.06452 36.2979 9.67957 35.4338 11.0831ZM47.5979 11.0831C47.3941 9.51273 47.3844 2.49529 49.0446 2.69156C49.9668 3.06452 48.4619 9.67957 47.5979 11.0831ZM59.6649 11.1812C59.461 9.61086 59.4514 2.59341 61.1114 2.78971C62.0336 3.15286 60.529 9.77772 59.6649 11.1812ZM72.9842 2.26955C74.5084 2.11251 74.4404 8.83552 71.3922 13.0754C70.994 11.5443 70.3923 2.79954 72.9842 2.26955ZM79.3915 16.7461C78.9061 14.2434 80.1681 12.6043 81.469 12.4277C81.9253 12.359 82.5854 12.6534 82.7115 13.2128C82.9252 14.263 82.6824 15.8235 79.7604 17.7963C79.7702 17.8061 79.4983 17.2957 79.3915 16.7461ZM27.755 9.0318C28.7937 9.0318 29.6383 8.17792 29.6383 7.12778C29.6383 6.07761 28.7937 5.22374 27.755 5.22374C26.7163 5.22374 25.8715 6.07761 25.8715 7.12778C25.8715 8.17792 26.7163 9.0318 27.755 9.0318Z" fill="black"/>
</g>
<defs>
<clipPath id="clip0_189_8329">
<rect width="91" height="23" fill="white"/>
</clipPath>
</defs>
</svg>
