<svg width="32" height="33" viewBox="0 0 32 33" fill="none" xmlns="http://www.w3.org/2000/svg">
<path d="M19.592 23.944C19.8693 23.944 20.0827 24.072 20.232 24.328C20.4027 24.584 20.488 24.936 20.488 25.384C20.488 26.2373 20.2853 26.8987 19.88 27.368C19.0053 28.4347 18.0453 29.352 17 30.12C15.9547 30.8667 14.92 31.24 13.896 31.24C12.2747 31.24 11.0373 30.2907 10.184 28.392C9.288 29.5227 8.49867 30.28 7.816 30.664C7.15467 31.048 6.376 31.24 5.48 31.24C4.17867 31.24 3.10133 30.76 2.248 29.8C1.416 28.8187 1 27.5493 1 25.992C1 24.2853 1.36267 22.7067 2.088 21.256C2.81333 19.784 3.80533 18.5893 5.064 17.672C6.344 16.7333 7.77333 16.1787 9.352 16.008C9.75733 11.8693 10.5253 8.33867 11.656 5.416C12.808 2.472 14.312 1 16.168 1C17.0853 1 17.8427 1.416 18.44 2.248C19.0587 3.08 19.368 4.33867 19.368 6.024C19.368 8.41333 18.7813 11.208 17.608 14.408C16.4347 17.608 14.8667 20.8933 12.904 24.264C12.9893 25.5013 13.1707 26.3867 13.448 26.92C13.7467 27.4533 14.12 27.72 14.568 27.72C15.144 27.72 15.7307 27.464 16.328 26.952C16.9253 26.44 17.7253 25.5867 18.728 24.392C18.984 24.0933 19.272 23.944 19.592 23.944ZM15.816 4.136C15.4107 4.136 15.0053 4.86133 14.6 6.312C14.1947 7.74133 13.8427 9.61867 13.544 11.944C13.2667 14.2693 13.064 16.7013 12.936 19.24C15.3253 14.0347 16.52 9.85333 16.52 6.696C16.52 5.88533 16.4453 5.256 16.296 4.808C16.168 4.36 16.008 4.136 15.816 4.136ZM6.6 28.008C7.00533 28.008 7.41067 27.848 7.816 27.528C8.22133 27.1867 8.73333 26.568 9.352 25.672C9.13867 24.52 9.032 23.2293 9.032 21.8C9.032 21.288 9.05333 20.456 9.096 19.304C7.92267 19.6667 6.94133 20.456 6.152 21.672C5.384 22.8667 5 24.2 5 25.672C5 27.2293 5.53333 28.008 6.6 28.008Z" fill="#1F2937"/>
<path d="M29.3407 24.904C29.6181 24.904 29.8314 25.032 29.9807 25.288C30.1514 25.544 30.2367 25.896 30.2367 26.344C30.2367 27.112 30.0554 27.7733 29.6928 28.328C29.0954 29.2453 28.3061 29.96 27.3248 30.472C26.3648 30.984 25.2127 31.24 23.8687 31.24C21.8207 31.24 20.2314 30.632 19.1007 29.416C17.9701 28.1787 17.4047 26.5147 17.4047 24.424C17.4047 22.952 17.7141 21.5867 18.3327 20.328C18.9514 19.048 19.8047 18.0347 20.8927 17.288C22.0021 16.5413 23.2501 16.168 24.6367 16.168C25.8741 16.168 26.8661 16.5413 27.6127 17.288C28.3594 18.0133 28.7327 19.0053 28.7327 20.264C28.7327 21.736 28.1994 23.0053 27.1327 24.072C26.0874 25.1173 24.2954 25.9493 21.7568 26.568C22.2687 27.5493 23.1327 28.04 24.3487 28.04C25.2234 28.04 25.9381 27.8373 26.4928 27.432C27.0688 27.0267 27.7301 26.344 28.4767 25.384C28.7327 25.064 29.0208 24.904 29.3407 24.904ZM24.0927 19.304C23.3034 19.304 22.6314 19.7627 22.0767 20.68C21.5434 21.5973 21.2768 22.7067 21.2768 24.008V24.072C22.5354 23.7733 23.5274 23.3253 24.2527 22.728C24.9781 22.1307 25.3407 21.4373 25.3407 20.648C25.3407 20.2427 25.2234 19.9227 24.9887 19.688C24.7754 19.432 24.4767 19.304 24.0927 19.304Z" fill="#1F2937"/>
<path fill-rule="evenodd" clip-rule="evenodd" d="M16.6356 26.6751C16.8917 26.4345 17.1781 26.1429 17.4947 25.8005C17.4347 25.3643 17.4047 24.9055 17.4047 24.424C17.4047 24.4166 17.4048 24.4091 17.4048 24.4017C17.4079 22.9382 17.7172 21.5803 18.3327 20.328C18.9514 19.048 19.8048 18.0347 20.8927 17.288C22.0021 16.5413 23.2501 16.168 24.6367 16.168C25.8741 16.168 26.8661 16.5413 27.6127 17.288C28.3594 18.0133 28.7327 19.0053 28.7327 20.264C28.7327 21.736 28.1994 23.0053 27.1327 24.072C26.2307 24.974 24.7727 25.7172 22.7586 26.3016C22.4387 26.3944 22.1047 26.4832 21.7568 26.568C21.9386 26.9165 22.1648 27.2032 22.4355 27.4279C22.9269 27.836 23.5646 28.04 24.3487 28.04C25.2234 28.04 25.9381 27.8373 26.4928 27.432C27.0688 27.0267 27.7301 26.344 28.4767 25.384C28.7327 25.064 29.0208 24.904 29.3407 24.904C29.6181 24.904 29.8314 25.032 29.9807 25.288C30.1514 25.544 30.2367 25.896 30.2367 26.344C30.2367 27.112 30.0554 27.7733 29.6928 28.328C29.0954 29.2453 28.3061 29.96 27.3248 30.472C26.3647 30.984 25.2127 31.24 23.8687 31.24C21.8961 31.24 20.349 30.6759 19.2274 29.5478C19.1846 29.5047 19.1424 29.4607 19.1007 29.416C18.9154 29.2131 18.7452 28.9988 18.5902 28.773C18.3471 29.0088 18.0985 29.2349 17.8444 29.4513C17.5694 29.6856 17.2879 29.9084 17 30.12C15.9547 30.8667 14.92 31.24 13.896 31.24C12.5745 31.24 11.5081 30.6093 10.6968 29.3479C10.5127 29.0618 10.3418 28.7431 10.184 28.392C9.9407 28.699 9.70527 28.9785 9.4777 29.2305C8.8672 29.9064 8.3133 30.3843 7.816 30.664C7.15467 31.048 6.376 31.24 5.48 31.24C4.17867 31.24 3.10133 30.76 2.248 29.8C1.416 28.8187 1 27.5493 1 25.992C1 24.2853 1.36267 22.7067 2.088 21.256C2.81333 19.784 3.80533 18.5893 5.064 17.672C6.344 16.7333 7.77333 16.1787 9.352 16.008C9.75733 11.8693 10.5253 8.33867 11.656 5.416C12.808 2.472 14.312 1 16.168 1C17.0853 1 17.8427 1.416 18.44 2.248C19.0587 3.08 19.368 4.33867 19.368 6.024C19.368 8.41333 18.7813 11.208 17.608 14.408C16.4347 17.608 14.8667 20.8933 12.904 24.264C12.9893 25.5013 13.1707 26.3867 13.448 26.92C13.7467 27.4533 14.12 27.72 14.568 27.72C15.144 27.72 15.7307 27.464 16.328 26.952C16.4252 26.8687 16.5277 26.7764 16.6356 26.6751ZM16.4493 25.4516C16.4195 25.1177 16.4047 24.775 16.4047 24.424C16.4047 22.808 16.7453 21.2917 17.4339 19.8898C18.1221 18.467 19.0853 17.3156 20.3269 16.4635L20.3344 16.4584L20.3344 16.4584C21.6151 15.5964 23.0589 15.168 24.6367 15.168C26.0876 15.168 27.3491 15.613 28.3147 16.5758C29.2912 17.5273 29.7327 18.7983 29.7327 20.264C29.7327 21.7251 29.281 23.0299 28.4004 24.1491C28.6746 23.9963 28.9884 23.904 29.3407 23.904C29.9918 23.904 30.5138 24.2356 30.829 24.758C31.1359 25.2322 31.2367 25.7936 31.2367 26.344C31.2367 27.2744 31.015 28.1327 30.5302 28.8745C29.8389 29.9359 28.9211 30.7662 27.7913 31.3565C26.6571 31.9604 25.3371 32.24 23.8687 32.24C21.6762 32.24 19.8375 31.6001 18.4851 30.2192C18.1946 30.4663 17.897 30.7019 17.5921 30.9259L17.5813 30.9338L17.5812 30.9337C16.4098 31.7705 15.1762 32.24 13.896 32.24C12.8746 32.24 11.9439 31.9356 11.1433 31.3214C10.7176 30.9948 10.343 30.5918 10.0139 30.124C9.43287 30.7395 8.86575 31.2197 8.31213 31.5323C7.4753 32.0166 6.51934 32.24 5.48 32.24C3.89733 32.24 2.54653 31.6411 1.50059 30.4644L1.49281 30.4556L1.48524 30.4467C0.469537 29.2487 0 27.7343 0 25.992C0 24.1394 0.394762 22.4074 1.19232 20.8113C1.9849 19.2038 3.07867 17.8818 4.47382 16.8647C5.67437 15.9846 6.9991 15.4062 8.43784 15.1334C8.86714 11.2607 9.62421 7.89639 10.7234 5.0552L10.7248 5.0516C11.9106 2.02102 13.6545 0 16.168 0C17.4459 0 18.4881 0.603931 19.2476 1.65816C20.0488 2.74026 20.368 4.25102 20.368 6.024C20.368 8.56931 19.7448 11.4851 18.5469 14.7523C17.3823 17.9283 15.8403 21.1764 13.9251 24.4965C14.0139 25.5146 14.1694 26.1308 14.3284 26.4454C14.4248 26.614 14.5002 26.6827 14.5332 26.7063C14.5413 26.712 14.5469 26.7152 14.55 26.7167C14.553 26.7183 14.5545 26.7188 14.5548 26.7189L14.5569 26.7193C14.5583 26.7196 14.5618 26.72 14.568 26.72C14.8304 26.72 15.1947 26.6063 15.6772 26.1927C15.8963 26.0049 16.1534 25.7588 16.4493 25.4516ZM27.2811 25.2741C26.4031 25.9674 25.2523 26.5361 23.8683 27.0022C24.0113 27.0266 24.1707 27.04 24.3487 27.04C25.0696 27.04 25.5611 26.8743 25.9027 26.6246L25.9099 26.6193L25.9173 26.6142C26.2855 26.3551 26.7401 25.9199 27.2811 25.2741ZM15.5199 6.73584C15.1508 8.08021 14.821 9.85215 14.5364 12.0669C14.5179 12.2224 14.4997 12.3784 14.4818 12.535C15.1751 10.2736 15.5144 8.34371 15.5199 6.73584ZM14.1061 16.5386C13.7545 17.4061 13.3644 18.3066 12.936 19.24C12.9861 18.2459 13.0477 17.2682 13.1207 16.3069C13.2342 14.8131 13.3753 13.3588 13.544 11.944C13.8427 9.61867 14.1947 7.74133 14.6 6.312C15.0053 4.86133 15.4107 4.136 15.816 4.136C16.008 4.136 16.168 4.36 16.296 4.808C16.4453 5.256 16.52 5.88533 16.52 6.696C16.52 9.28717 15.7154 12.568 14.1061 16.5386ZM24.2496 20.363L24.2205 20.3282C24.2162 20.323 24.2136 20.3207 24.2129 20.3201C24.2126 20.3199 24.2119 20.3196 24.2108 20.3191C24.2065 20.3173 24.1736 20.304 24.0927 20.304C23.7752 20.304 23.3814 20.4584 22.937 21.19C22.691 21.6151 22.5081 22.1051 22.398 22.6682C22.8944 22.4595 23.2972 22.2195 23.617 21.9561C24.1604 21.5086 24.3407 21.0807 24.3407 20.648C24.3407 20.4522 24.2922 20.4053 24.2825 20.396C24.2822 20.3956 24.2819 20.3953 24.2816 20.3951L24.2496 20.363ZM22.2798 23.7831C22.0432 23.8649 21.7945 23.9398 21.5336 24.008C21.4493 24.03 21.3637 24.0514 21.2768 24.072V24.008C21.2768 23.6679 21.295 23.341 21.3314 23.0271C21.4343 22.14 21.6828 21.3576 22.0767 20.68C22.6314 19.7627 23.3034 19.304 24.0927 19.304C24.4767 19.304 24.7754 19.432 24.9887 19.688C25.2234 19.9227 25.3407 20.2427 25.3407 20.648C25.3407 21.4373 24.9781 22.1307 24.2527 22.728C23.7324 23.1566 23.0747 23.5083 22.2798 23.7831ZM7.18383 26.7529C6.91259 26.9639 6.72314 27.008 6.6 27.008C6.34657 27.008 6.27868 26.9372 6.22503 26.8589C6.12476 26.7125 6 26.3676 6 25.672C6 24.3852 6.33237 23.2415 6.99195 22.2147C7.31625 21.7154 7.6669 21.314 8.04271 20.9997C8.0356 21.3177 8.032 21.5847 8.032 21.8C8.032 23.1107 8.11867 24.3233 8.29638 25.4345C7.81116 26.1099 7.44194 26.5322 7.18383 26.7529ZM9.352 25.672C8.73333 26.568 8.22133 27.1867 7.816 27.528C7.41067 27.848 7.00533 28.008 6.6 28.008C5.53333 28.008 5 27.2293 5 25.672C5 24.2 5.384 22.8667 6.152 21.672C6.70141 20.8256 7.34384 20.1859 8.07929 19.753C8.40046 19.5639 8.73936 19.4142 9.096 19.304C9.08133 19.7002 9.06918 20.0585 9.05955 20.379C9.04118 20.9904 9.032 21.4641 9.032 21.8C9.032 23.2293 9.13867 24.52 9.352 25.672Z" fill="white"/>
</svg>
