<svg width="42" height="42" viewBox="0 0 42 42" fill="none" xmlns="http://www.w3.org/2000/svg">
<g clip-path="url(#clip0_1_8486)">
<path d="M31.5 19.6875C36.5741 19.6875 40.6875 15.5741 40.6875 10.5C40.6875 5.42588 36.5741 1.3125 31.5 1.3125C26.4259 1.3125 22.3125 5.42588 22.3125 10.5C22.3125 15.5741 26.4259 19.6875 31.5 19.6875Z" stroke="#FF8E8E" stroke-width="1.5" stroke-linecap="round" stroke-linejoin="round"/>
<path d="M23.1475 2.14728L39.853 18.8528" stroke="#FF8E8E" stroke-width="1.5" stroke-linecap="round" stroke-linejoin="round"/>
<path d="M31.3966 19.6875L12.7941 35.1243C12.2903 35.53 11.6545 35.7355 11.0086 35.7012C10.3626 35.667 9.7521 35.3955 9.29405 34.9388L7.06105 32.7128C6.60435 32.2547 6.33284 31.6442 6.2986 30.9983C6.26437 30.3523 6.46982 29.7165 6.87555 29.2128L22.3123 10.6033" stroke="#FF8E8E" stroke-width="1.5" stroke-linecap="round" stroke-linejoin="round"/>
<path d="M22.0497 20.244C22.1415 20.3358 22.2041 20.4527 22.2295 20.58C22.2549 20.7073 22.242 20.8393 22.1923 20.9593C22.1427 21.0793 22.0586 21.1818 21.9506 21.2539C21.8427 21.3261 21.7158 21.3646 21.5859 21.3646C21.4561 21.3646 21.3292 21.3261 21.2213 21.2539C21.1133 21.1818 21.0292 21.0793 20.9796 20.9593C20.9299 20.8393 20.917 20.7073 20.9424 20.58C20.9677 20.4527 21.0303 20.3358 21.1222 20.244C21.2457 20.122 21.4123 20.0535 21.5859 20.0535C21.7596 20.0535 21.9262 20.122 22.0497 20.244" stroke="#FF8E8E" stroke-width="1.5" stroke-linecap="round" stroke-linejoin="round"/>
<path d="M8.17425 33.8257L1.3125 40.6875" stroke="#FF8E8E" stroke-width="1.5" stroke-linecap="round" stroke-linejoin="round"/>
</g>
<defs>
<clipPath id="clip0_1_8486">
<rect width="42" height="42" fill="white"/>
</clipPath>
</defs>
</svg>
