<svg width="42" height="42" viewBox="0 0 42 42" fill="none" xmlns="http://www.w3.org/2000/svg">
<g clip-path="url(#clip0_1_8495)">
<path d="M13.1533 40.6647C19.6772 40.6647 24.9658 35.3761 24.9658 28.8522C24.9658 22.3284 19.6772 17.0397 13.1533 17.0397C6.62946 17.0397 1.34082 22.3284 1.34082 28.8522C1.34082 35.3761 6.62946 40.6647 13.1533 40.6647Z" stroke="#FF8E8E" stroke-width="1.5" stroke-linecap="round" stroke-linejoin="round"/>
<path d="M2.0127 32.7897H24.2919" stroke="#FF8E8E" stroke-width="1.5" stroke-linecap="round" stroke-linejoin="round"/>
<path d="M2.0127 24.9147H24.2919" stroke="#FF8E8E" stroke-width="1.5" stroke-linecap="round" stroke-linejoin="round"/>
<path d="M10.6036 17.3145C8.48618 24.9648 8.79805 33.084 11.4961 40.5493" stroke="#FF8E8E" stroke-width="1.5" stroke-linecap="round" stroke-linejoin="round"/>
<path d="M15.7009 17.3145C16.6255 20.6442 17.0929 24.0841 17.0904 27.5398C17.0969 31.9758 16.327 36.3787 14.8154 40.5493" stroke="#FF8E8E" stroke-width="1.5" stroke-linecap="round" stroke-linejoin="round"/>
<path d="M21.2988 10.4772C23.986 10.5352 26.5471 11.6286 28.4476 13.5292C30.3482 15.4298 31.4416 17.9908 31.4996 20.678" stroke="#FF8E8E" stroke-width="1.5" stroke-linecap="round" stroke-linejoin="round"/>
<path d="M24.3604 1.3125C28.6208 1.49118 32.66 3.25886 35.682 6.26731C38.7041 9.27577 40.49 13.3069 40.6879 17.5665" stroke="#FF8E8E" stroke-width="1.5" stroke-linecap="round" stroke-linejoin="round"/>
</g>
<defs>
<clipPath id="clip0_1_8495">
<rect width="42" height="42" fill="white"/>
</clipPath>
</defs>
</svg>
